<?xml version="1.0" encoding="UTF-8"?>
<svg xmlns="http://www.w3.org/2000/svg" version="1.1" width="80" height="80" viewBox="0 0 80 80"><rect x="0" y="0" width="80" height="80" fill="#ffffff"/><g transform="scale(2.424)"><g transform="translate(0,0)"><path fill-rule="evenodd" d="M9 0L9 1L8 1L8 2L9 2L9 3L8 3L8 4L10 4L10 7L11 7L11 4L12 4L12 5L13 5L13 6L12 6L12 9L13 9L13 8L14 8L14 9L15 9L15 10L17 10L17 11L16 11L16 12L17 12L17 14L16 14L16 13L12 13L12 11L13 11L13 10L11 10L11 11L10 11L10 9L11 9L11 8L6 8L6 9L5 9L5 8L0 8L0 10L2 10L2 11L3 11L3 12L0 12L0 13L3 13L3 15L1 15L1 16L3 16L3 15L5 15L5 16L4 16L4 17L1 17L1 19L0 19L0 25L1 25L1 22L2 22L2 21L1 21L1 20L2 20L2 19L3 19L3 21L4 21L4 22L3 22L3 24L2 24L2 25L8 25L8 27L9 27L9 28L8 28L8 33L9 33L9 32L10 32L10 33L11 33L11 32L10 32L10 31L11 31L11 29L12 29L12 30L13 30L13 31L12 31L12 33L13 33L13 32L14 32L14 33L15 33L15 32L14 32L14 31L16 31L16 32L17 32L17 33L19 33L19 32L17 32L17 29L18 29L18 30L21 30L21 31L20 31L20 33L21 33L21 32L22 32L22 33L23 33L23 32L24 32L24 33L25 33L25 32L24 32L24 31L27 31L27 30L29 30L29 32L31 32L31 33L32 33L32 32L31 32L31 31L30 31L30 30L33 30L33 28L32 28L32 29L30 29L30 30L29 30L29 28L31 28L31 27L32 27L32 26L33 26L33 24L32 24L32 26L31 26L31 27L30 27L30 25L29 25L29 24L31 24L31 23L32 23L32 22L33 22L33 21L32 21L32 20L31 20L31 19L32 19L32 18L33 18L33 17L32 17L32 16L31 16L31 15L32 15L32 14L33 14L33 13L31 13L31 15L30 15L30 13L29 13L29 12L28 12L28 11L29 11L29 10L28 10L28 11L27 11L27 12L28 12L28 13L29 13L29 14L28 14L28 16L27 16L27 13L25 13L25 14L26 14L26 16L27 16L27 17L25 17L25 16L24 16L24 17L23 17L23 14L24 14L24 13L23 13L23 12L25 12L25 11L26 11L26 10L27 10L27 9L28 9L28 8L27 8L27 9L26 9L26 8L25 8L25 6L24 6L24 8L23 8L23 5L24 5L24 4L25 4L25 3L24 3L24 2L25 2L25 1L24 1L24 0L22 0L22 1L21 1L21 0L19 0L19 1L21 1L21 3L20 3L20 2L18 2L18 3L17 3L17 2L16 2L16 4L12 4L12 2L13 2L13 1L11 1L11 2L10 2L10 0ZM15 0L15 1L17 1L17 0ZM22 1L22 2L24 2L24 1ZM14 2L14 3L15 3L15 2ZM10 3L10 4L11 4L11 3ZM18 3L18 4L20 4L20 3ZM21 3L21 5L23 5L23 4L24 4L24 3ZM16 4L16 5L17 5L17 7L16 7L16 6L15 6L15 7L14 7L14 6L13 6L13 7L14 7L14 8L15 8L15 7L16 7L16 9L17 9L17 10L18 10L18 11L17 11L17 12L18 12L18 13L21 13L21 15L22 15L22 14L23 14L23 13L22 13L22 12L21 12L21 11L24 11L24 10L25 10L25 9L24 9L24 10L23 10L23 9L22 9L22 8L20 8L20 5L19 5L19 7L18 7L18 5L17 5L17 4ZM8 5L8 7L9 7L9 5ZM21 6L21 7L22 7L22 6ZM17 8L17 9L18 9L18 10L20 10L20 11L18 11L18 12L20 12L20 11L21 11L21 10L22 10L22 9L18 9L18 8ZM29 8L29 9L30 9L30 8ZM31 8L31 10L33 10L33 9L32 9L32 8ZM3 9L3 11L4 11L4 12L3 12L3 13L4 13L4 14L5 14L5 13L6 13L6 14L7 14L7 15L6 15L6 16L8 16L8 17L6 17L6 18L7 18L7 19L5 19L5 17L4 17L4 19L5 19L5 20L4 20L4 21L5 21L5 24L7 24L7 23L6 23L6 22L7 22L7 21L9 21L9 20L10 20L10 21L11 21L11 23L10 23L10 22L8 22L8 23L10 23L10 24L8 24L8 25L9 25L9 27L10 27L10 24L11 24L11 26L13 26L13 27L12 27L12 29L17 29L17 28L18 28L18 29L19 29L19 28L20 28L20 29L22 29L22 30L23 30L23 31L24 31L24 27L22 27L22 28L21 28L21 27L20 27L20 26L19 26L19 23L20 23L20 22L19 22L19 23L18 23L18 21L19 21L19 19L21 19L21 18L23 18L23 19L24 19L24 20L23 20L23 21L24 21L24 22L22 22L22 24L20 24L20 25L21 25L21 26L24 26L24 25L22 25L22 24L23 24L23 23L24 23L24 24L28 24L28 23L30 23L30 22L31 22L31 20L29 20L29 21L27 21L27 19L26 19L26 18L25 18L25 17L24 17L24 18L23 18L23 17L22 17L22 16L20 16L20 14L19 14L19 15L18 15L18 14L17 14L17 15L14 15L14 16L13 16L13 17L12 17L12 15L13 15L13 14L12 14L12 13L11 13L11 12L10 12L10 13L8 13L8 12L7 12L7 11L6 11L6 10L7 10L7 9L6 9L6 10L5 10L5 9ZM8 9L8 11L9 11L9 9ZM4 10L4 11L5 11L5 12L6 12L6 13L7 13L7 12L6 12L6 11L5 11L5 10ZM14 11L14 12L15 12L15 11ZM30 11L30 12L31 12L31 11ZM10 13L10 14L9 14L9 16L10 16L10 17L9 17L9 18L10 18L10 17L11 17L11 16L10 16L10 15L11 15L11 13ZM29 15L29 17L27 17L27 18L28 18L28 19L29 19L29 17L30 17L30 19L31 19L31 16L30 16L30 15ZM14 16L14 17L18 17L18 18L15 18L15 19L14 19L14 20L15 20L15 21L12 21L12 19L13 19L13 18L11 18L11 21L12 21L12 22L13 22L13 23L12 23L12 25L13 25L13 24L14 24L14 25L15 25L15 27L14 27L14 28L15 28L15 27L16 27L16 28L17 28L17 27L16 27L16 26L17 26L17 25L18 25L18 24L17 24L17 23L16 23L16 22L17 22L17 21L18 21L18 20L17 20L17 19L19 19L19 18L20 18L20 16L19 16L19 17L18 17L18 16ZM24 18L24 19L25 19L25 18ZM7 19L7 20L5 20L5 21L7 21L7 20L9 20L9 19ZM15 19L15 20L16 20L16 21L15 21L15 22L16 22L16 21L17 21L17 20L16 20L16 19ZM20 20L20 21L22 21L22 20ZM25 21L25 22L27 22L27 23L28 23L28 22L27 22L27 21ZM29 21L29 22L30 22L30 21ZM14 23L14 24L15 24L15 23ZM16 24L16 25L17 25L17 24ZM25 25L25 28L28 28L28 25ZM26 26L26 27L27 27L27 26ZM18 27L18 28L19 28L19 27ZM9 28L9 30L10 30L10 29L11 29L11 28ZM22 28L22 29L23 29L23 28ZM25 29L25 30L27 30L27 29ZM27 32L27 33L28 33L28 32ZM0 0L0 7L7 7L7 0ZM1 1L1 6L6 6L6 1ZM2 2L2 5L5 5L5 2ZM26 0L26 7L33 7L33 0ZM27 1L27 6L32 6L32 1ZM28 2L28 5L31 5L31 2ZM0 26L0 33L7 33L7 26ZM1 27L1 32L6 32L6 27ZM2 28L2 31L5 31L5 28Z" fill="#000000"/></g></g></svg>
