<?xml version="1.0" encoding="UTF-8"?>
<svg xmlns="http://www.w3.org/2000/svg" version="1.1" width="80" height="80" viewBox="0 0 80 80"><rect x="0" y="0" width="80" height="80" fill="#ffffff"/><g transform="scale(2.162)"><g transform="translate(0,0)"><path fill-rule="evenodd" d="M9 0L9 1L8 1L8 2L9 2L9 3L8 3L8 4L10 4L10 7L11 7L11 4L12 4L12 5L13 5L13 6L12 6L12 9L13 9L13 8L14 8L14 9L15 9L15 10L18 10L18 12L19 12L19 10L20 10L20 11L21 11L21 12L20 12L20 14L21 14L21 16L23 16L23 14L24 14L24 15L25 15L25 14L26 14L26 13L28 13L28 14L27 14L27 15L26 15L26 16L25 16L25 17L26 17L26 18L27 18L27 20L25 20L25 18L24 18L24 17L23 17L23 18L22 18L22 19L21 19L21 20L20 20L20 19L19 19L19 20L20 20L20 23L18 23L18 22L19 22L19 21L17 21L17 19L16 19L16 21L12 21L12 19L13 19L13 18L10 18L10 20L9 20L9 19L7 19L7 18L8 18L8 17L7 17L7 16L8 16L8 15L7 15L7 14L8 14L8 12L5 12L5 11L7 11L7 10L6 10L6 9L11 9L11 8L6 8L6 9L5 9L5 8L0 8L0 9L3 9L3 10L2 10L2 11L1 11L1 10L0 10L0 12L1 12L1 13L3 13L3 12L5 12L5 13L7 13L7 14L6 14L6 15L5 15L5 14L4 14L4 17L3 17L3 18L1 18L1 17L0 17L0 19L1 19L1 20L2 20L2 22L4 22L4 24L3 24L3 23L2 23L2 24L1 24L1 23L0 23L0 29L1 29L1 25L2 25L2 28L3 28L3 29L5 29L5 28L3 28L3 25L4 25L4 24L5 24L5 23L8 23L8 24L9 24L9 26L10 26L10 25L11 25L11 24L10 24L10 23L11 23L11 21L12 21L12 22L13 22L13 23L12 23L12 25L13 25L13 24L14 24L14 25L15 25L15 26L17 26L17 27L16 27L16 28L17 28L17 27L18 27L18 28L19 28L19 27L18 27L18 26L20 26L20 27L21 27L21 29L20 29L20 30L21 30L21 31L20 31L20 34L21 34L21 35L19 35L19 36L17 36L17 35L18 35L18 34L15 34L15 35L14 35L14 36L16 36L16 37L20 37L20 36L21 36L21 37L27 37L27 35L28 35L28 36L29 36L29 37L31 37L31 35L32 35L32 34L33 34L33 35L34 35L34 34L35 34L35 35L36 35L36 36L32 36L32 37L37 37L37 33L36 33L36 31L37 31L37 30L35 30L35 32L33 32L33 30L34 30L34 29L35 29L35 28L33 28L33 26L34 26L34 27L36 27L36 28L37 28L37 26L36 26L36 25L37 25L37 22L36 22L36 21L37 21L37 18L36 18L36 17L37 17L37 14L36 14L36 13L35 13L35 12L34 12L34 11L35 11L35 9L36 9L36 8L35 8L35 9L34 9L34 8L33 8L33 9L34 9L34 11L32 11L32 12L31 12L31 10L30 10L30 8L29 8L29 9L28 9L28 7L29 7L29 3L25 3L25 2L24 2L24 3L23 3L23 2L21 2L21 1L22 1L22 0L20 0L20 2L21 2L21 3L20 3L20 5L21 5L21 6L20 6L20 7L19 7L19 6L18 6L18 7L19 7L19 10L18 10L18 8L17 8L17 9L16 9L16 7L17 7L17 5L16 5L16 4L17 4L17 2L16 2L16 4L12 4L12 2L13 2L13 1L11 1L11 2L10 2L10 0ZM15 0L15 1L17 1L17 0ZM23 0L23 1L24 1L24 0ZM26 0L26 2L28 2L28 1L29 1L29 0L28 0L28 1L27 1L27 0ZM14 2L14 3L15 3L15 2ZM18 2L18 3L19 3L19 2ZM10 3L10 4L11 4L11 3ZM21 3L21 4L22 4L22 6L21 6L21 7L20 7L20 8L21 8L21 9L22 9L22 8L21 8L21 7L22 7L22 6L23 6L23 7L24 7L24 8L23 8L23 9L24 9L24 10L23 10L23 11L22 11L22 12L21 12L21 13L22 13L22 14L23 14L23 13L22 13L22 12L24 12L24 11L25 11L25 12L26 12L26 11L27 11L27 10L28 10L28 12L29 12L29 13L30 13L30 14L29 14L29 16L27 16L27 18L29 18L29 19L28 19L28 20L27 20L27 21L25 21L25 20L23 20L23 21L24 21L24 22L22 22L22 23L23 23L23 24L21 24L21 23L20 23L20 24L18 24L18 23L16 23L16 25L17 25L17 26L18 26L18 25L20 25L20 26L21 26L21 25L24 25L24 26L22 26L22 28L23 28L23 29L21 29L21 30L23 30L23 32L26 32L26 31L27 31L27 32L28 32L28 30L27 30L27 29L28 29L28 28L31 28L31 27L28 27L28 28L27 28L27 27L26 27L26 25L24 25L24 24L26 24L26 23L27 23L27 24L28 24L28 25L27 25L27 26L28 26L28 25L29 25L29 24L28 24L28 23L29 23L29 22L30 22L30 24L36 24L36 23L34 23L34 21L32 21L32 22L33 22L33 23L31 23L31 21L30 21L30 18L31 18L31 19L32 19L32 20L36 20L36 19L35 19L35 18L34 18L34 17L30 17L30 14L31 14L31 16L32 16L32 14L33 14L33 16L35 16L35 17L36 17L36 14L35 14L35 15L34 15L34 13L30 13L30 10L28 10L28 9L24 9L24 8L26 8L26 6L27 6L27 7L28 7L28 6L27 6L27 5L28 5L28 4L26 4L26 5L25 5L25 4L24 4L24 5L23 5L23 4L22 4L22 3ZM18 4L18 5L19 5L19 4ZM8 5L8 7L9 7L9 5ZM24 5L24 7L25 7L25 5ZM13 6L13 7L14 7L14 8L15 8L15 7L16 7L16 6L15 6L15 7L14 7L14 6ZM31 8L31 9L32 9L32 8ZM4 9L4 10L3 10L3 11L4 11L4 10L5 10L5 9ZM8 10L8 11L9 11L9 10ZM10 10L10 12L9 12L9 13L10 13L10 14L11 14L11 13L12 13L12 14L13 14L13 15L12 15L12 17L13 17L13 16L14 16L14 17L15 17L15 18L17 18L17 17L16 17L16 15L18 15L18 16L19 16L19 17L18 17L18 18L21 18L21 17L20 17L20 15L19 15L19 14L16 14L16 13L17 13L17 11L16 11L16 13L12 13L12 11L13 11L13 10ZM25 10L25 11L26 11L26 10ZM36 10L36 11L37 11L37 10ZM14 11L14 12L15 12L15 11ZM24 13L24 14L25 14L25 13ZM1 14L1 15L2 15L2 14ZM6 15L6 16L7 16L7 15ZM14 15L14 16L15 16L15 15ZM6 17L6 18L4 18L4 19L2 19L2 20L4 20L4 19L6 19L6 20L5 20L5 21L6 21L6 22L7 22L7 21L9 21L9 20L7 20L7 19L6 19L6 18L7 18L7 17ZM29 17L29 18L30 18L30 17ZM23 18L23 19L24 19L24 18ZM33 18L33 19L34 19L34 18ZM14 19L14 20L15 20L15 19ZM6 20L6 21L7 21L7 20ZM28 20L28 22L27 22L27 23L28 23L28 22L29 22L29 20ZM16 21L16 22L17 22L17 21ZM8 22L8 23L10 23L10 22ZM14 23L14 24L15 24L15 23ZM6 24L6 25L7 25L7 24ZM20 24L20 25L21 25L21 24ZM30 25L30 26L31 26L31 25ZM32 25L32 26L33 26L33 25ZM34 25L34 26L35 26L35 25ZM4 26L4 27L5 27L5 26ZM6 26L6 27L7 27L7 26ZM11 26L11 27L10 27L10 28L11 28L11 29L12 29L12 30L13 30L13 31L12 31L12 33L13 33L13 32L14 32L14 33L15 33L15 32L16 32L16 33L18 33L18 32L17 32L17 30L19 30L19 29L17 29L17 30L16 30L16 29L12 29L12 27L13 27L13 26ZM14 27L14 28L15 28L15 27ZM23 27L23 28L24 28L24 29L23 29L23 30L24 30L24 29L25 29L25 30L26 30L26 29L27 29L27 28L25 28L25 27ZM6 28L6 29L8 29L8 31L9 31L9 32L8 32L8 37L10 37L10 36L11 36L11 37L12 37L12 35L13 35L13 34L10 34L10 35L9 35L9 32L11 32L11 30L9 30L9 28ZM29 29L29 32L32 32L32 29ZM30 30L30 31L31 31L31 30ZM14 31L14 32L15 32L15 31ZM21 32L21 34L22 34L22 36L23 36L23 35L24 35L24 36L26 36L26 35L24 35L24 34L22 34L22 32ZM26 33L26 34L27 34L27 33ZM31 33L31 34L28 34L28 35L31 35L31 34L32 34L32 33ZM33 33L33 34L34 34L34 33ZM35 33L35 34L36 34L36 33ZM0 0L0 7L7 7L7 0ZM1 1L1 6L6 6L6 1ZM2 2L2 5L5 5L5 2ZM30 0L30 7L37 7L37 0ZM31 1L31 6L36 6L36 1ZM32 2L32 5L35 5L35 2ZM0 30L0 37L7 37L7 30ZM1 31L1 36L6 36L6 31ZM2 32L2 35L5 35L5 32Z" fill="#000000"/></g></g></svg>
