<?xml version="1.0" encoding="UTF-8"?>
<svg xmlns="http://www.w3.org/2000/svg" version="1.1" width="80" height="80" viewBox="0 0 80 80"><rect x="0" y="0" width="80" height="80" fill="#ffffff"/><g transform="scale(2.162)"><g transform="translate(0,0)"><path fill-rule="evenodd" d="M10 0L10 1L9 1L9 2L8 2L8 3L9 3L9 5L10 5L10 7L11 7L11 8L12 8L12 9L11 9L11 10L10 10L10 9L9 9L9 6L8 6L8 8L4 8L4 9L3 9L3 8L0 8L0 9L1 9L1 11L0 11L0 13L1 13L1 14L0 14L0 16L1 16L1 14L2 14L2 11L3 11L3 10L6 10L6 11L4 11L4 12L3 12L3 15L2 15L2 17L0 17L0 21L1 21L1 22L0 22L0 23L1 23L1 24L0 24L0 25L4 25L4 26L5 26L5 25L7 25L7 24L8 24L8 25L9 25L9 26L8 26L8 27L7 27L7 26L6 26L6 27L7 27L7 28L5 28L5 27L4 27L4 28L5 28L5 29L8 29L8 33L9 33L9 34L8 34L8 37L9 37L9 35L10 35L10 31L9 31L9 30L10 30L10 29L11 29L11 30L12 30L12 28L14 28L14 30L13 30L13 31L14 31L14 30L16 30L16 29L17 29L17 31L15 31L15 33L16 33L16 32L18 32L18 31L19 31L19 32L20 32L20 33L19 33L19 34L18 34L18 33L17 33L17 34L18 34L18 35L15 35L15 34L14 34L14 33L13 33L13 32L12 32L12 31L11 31L11 32L12 32L12 33L11 33L11 35L12 35L12 36L10 36L10 37L12 37L12 36L14 36L14 37L16 37L16 36L17 36L17 37L19 37L19 34L20 34L20 35L21 35L21 36L22 36L22 35L23 35L23 33L26 33L26 32L27 32L27 31L28 31L28 33L27 33L27 34L28 34L28 36L27 36L27 35L26 35L26 34L24 34L24 36L23 36L23 37L26 37L26 36L27 36L27 37L31 37L31 36L29 36L29 33L32 33L32 34L31 34L31 35L32 35L32 37L33 37L33 35L35 35L35 37L37 37L37 36L36 36L36 35L37 35L37 34L36 34L36 32L37 32L37 29L35 29L35 30L34 30L34 31L36 31L36 32L35 32L35 34L33 34L33 28L32 28L32 27L31 27L31 25L32 25L32 24L31 24L31 23L34 23L34 21L33 21L33 22L31 22L31 20L33 20L33 19L34 19L34 18L35 18L35 21L36 21L36 22L35 22L35 25L34 25L34 26L33 26L33 27L34 27L34 26L35 26L35 28L36 28L36 27L37 27L37 24L36 24L36 23L37 23L37 20L36 20L36 19L37 19L37 16L36 16L36 15L37 15L37 9L36 9L36 14L35 14L35 13L34 13L34 14L33 14L33 16L34 16L34 14L35 14L35 16L36 16L36 18L35 18L35 17L34 17L34 18L31 18L31 17L32 17L32 14L31 14L31 11L33 11L33 12L34 12L34 11L33 11L33 10L35 10L35 8L34 8L34 9L33 9L33 10L32 10L32 9L31 9L31 8L28 8L28 7L29 7L29 5L28 5L28 4L29 4L29 2L28 2L28 0L27 0L27 1L24 1L24 0L22 0L22 1L23 1L23 2L24 2L24 3L25 3L25 2L26 2L26 4L25 4L25 6L24 6L24 4L23 4L23 3L22 3L22 5L21 5L21 6L20 6L20 5L19 5L19 4L21 4L21 2L20 2L20 1L19 1L19 0L18 0L18 1L17 1L17 2L18 2L18 3L16 3L16 2L15 2L15 3L16 3L16 5L14 5L14 3L12 3L12 2L11 2L11 3L12 3L12 5L10 5L10 3L9 3L9 2L10 2L10 1L11 1L11 0ZM14 0L14 1L13 1L13 2L14 2L14 1L15 1L15 0ZM17 4L17 7L16 7L16 6L15 6L15 7L14 7L14 5L13 5L13 7L12 7L12 6L11 6L11 7L12 7L12 8L13 8L13 9L14 9L14 10L13 10L13 11L14 11L14 10L15 10L15 9L16 9L16 8L17 8L17 9L18 9L18 11L20 11L20 12L16 12L16 11L15 11L15 12L16 12L16 14L14 14L14 12L12 12L12 11L11 11L11 12L12 12L12 14L11 14L11 13L10 13L10 14L9 14L9 16L8 16L8 14L7 14L7 13L5 13L5 14L7 14L7 15L4 15L4 16L3 16L3 19L4 19L4 20L2 20L2 19L1 19L1 20L2 20L2 21L3 21L3 22L1 22L1 23L6 23L6 24L7 24L7 23L8 23L8 24L9 24L9 23L8 23L8 22L9 22L9 21L8 21L8 22L7 22L7 21L6 21L6 20L10 20L10 21L11 21L11 20L12 20L12 22L11 22L11 23L10 23L10 24L11 24L11 25L12 25L12 24L13 24L13 25L14 25L14 26L13 26L13 27L14 27L14 26L15 26L15 25L16 25L16 24L17 24L17 25L18 25L18 26L19 26L19 27L18 27L18 28L17 28L17 29L19 29L19 27L22 27L22 28L21 28L21 31L26 31L26 30L27 30L27 27L28 27L28 28L29 28L29 26L30 26L30 25L29 25L29 26L28 26L28 21L30 21L30 20L29 20L29 17L27 17L27 16L26 16L26 17L27 17L27 19L26 19L26 18L25 18L25 19L24 19L24 17L25 17L25 16L23 16L23 17L21 17L21 18L22 18L22 19L23 19L23 20L21 20L21 21L23 21L23 23L26 23L26 22L27 22L27 24L26 24L26 25L27 25L27 26L24 26L24 24L23 24L23 27L22 27L22 26L21 26L21 23L22 23L22 22L18 22L18 24L17 24L17 21L19 21L19 20L20 20L20 18L19 18L19 17L20 17L20 16L19 16L19 15L20 15L20 14L19 14L19 13L20 13L20 12L21 12L21 11L22 11L22 14L21 14L21 15L24 15L24 13L23 13L23 11L24 11L24 12L25 12L25 10L24 10L24 6L23 6L23 5L22 5L22 6L21 6L21 7L20 7L20 6L19 6L19 5L18 5L18 4ZM26 5L26 6L25 6L25 7L26 7L26 6L27 6L27 7L28 7L28 6L27 6L27 5ZM18 6L18 7L17 7L17 8L18 8L18 7L19 7L19 9L20 9L20 10L23 10L23 9L22 9L22 8L23 8L23 6L22 6L22 7L21 7L21 9L20 9L20 7L19 7L19 6ZM15 7L15 8L16 8L16 7ZM26 8L26 10L27 10L27 11L28 11L28 12L26 12L26 13L25 13L25 15L26 15L26 14L27 14L27 15L29 15L29 16L31 16L31 14L28 14L28 13L29 13L29 11L28 11L28 8ZM6 9L6 10L7 10L7 11L6 11L6 12L7 12L7 11L8 11L8 13L9 13L9 11L8 11L8 10L7 10L7 9ZM30 10L30 11L31 11L31 10ZM10 14L10 16L9 16L9 17L8 17L8 18L6 18L6 17L7 17L7 16L6 16L6 17L5 17L5 16L4 16L4 17L5 17L5 20L6 20L6 19L10 19L10 17L11 17L11 19L12 19L12 20L14 20L14 22L13 22L13 23L14 23L14 22L16 22L16 20L19 20L19 19L17 19L17 18L18 18L18 17L17 17L17 16L18 16L18 14L17 14L17 16L16 16L16 15L15 15L15 16L16 16L16 17L15 17L15 18L14 18L14 17L13 17L13 16L12 16L12 15L11 15L11 14ZM13 14L13 15L14 15L14 14ZM11 16L11 17L12 17L12 16ZM13 18L13 19L14 19L14 18ZM30 18L30 19L31 19L31 18ZM15 19L15 20L16 20L16 19ZM25 19L25 21L24 21L24 22L26 22L26 19ZM27 19L27 21L28 21L28 19ZM5 21L5 22L6 22L6 23L7 23L7 22L6 22L6 21ZM30 22L30 23L29 23L29 24L30 24L30 23L31 23L31 22ZM11 23L11 24L12 24L12 23ZM15 23L15 24L16 24L16 23ZM35 25L35 26L36 26L36 25ZM0 26L0 27L1 27L1 28L0 28L0 29L1 29L1 28L2 28L2 29L3 29L3 28L2 28L2 27L3 27L3 26L2 26L2 27L1 27L1 26ZM10 26L10 28L9 28L9 27L8 27L8 28L9 28L9 29L10 29L10 28L12 28L12 27L11 27L11 26ZM15 27L15 28L16 28L16 27ZM25 27L25 28L24 28L24 30L25 30L25 29L26 29L26 27ZM29 29L29 32L32 32L32 29ZM19 30L19 31L20 31L20 30ZM30 30L30 31L31 31L31 30ZM22 32L22 33L21 33L21 35L22 35L22 33L23 33L23 32ZM13 34L13 35L14 35L14 34ZM0 0L0 7L7 7L7 0ZM1 1L1 6L6 6L6 1ZM2 2L2 5L5 5L5 2ZM30 0L30 7L37 7L37 0ZM31 1L31 6L36 6L36 1ZM32 2L32 5L35 5L35 2ZM0 30L0 37L7 37L7 30ZM1 31L1 36L6 36L6 31ZM2 32L2 35L5 35L5 32Z" fill="#000000"/></g></g></svg>
