<?xml version="1.0" encoding="UTF-8"?>
<svg xmlns="http://www.w3.org/2000/svg" version="1.1" width="80" height="80" viewBox="0 0 80 80"><rect x="0" y="0" width="80" height="80" fill="#ffffff"/><g transform="scale(2.424)"><g transform="translate(0,0)"><path fill-rule="evenodd" d="M10 0L10 2L11 2L11 0ZM12 0L12 1L13 1L13 2L12 2L12 4L13 4L13 3L14 3L14 4L15 4L15 3L16 3L16 4L18 4L18 5L20 5L20 3L24 3L24 4L23 4L23 5L21 5L21 6L20 6L20 7L19 7L19 6L18 6L18 7L19 7L19 10L17 10L17 9L18 9L18 8L17 8L17 9L16 9L16 10L15 10L15 9L12 9L12 7L13 7L13 5L11 5L11 6L10 6L10 4L11 4L11 3L8 3L8 4L9 4L9 5L8 5L8 7L9 7L9 8L6 8L6 9L7 9L7 10L6 10L6 11L7 11L7 12L6 12L6 13L5 13L5 8L0 8L0 9L1 9L1 10L3 10L3 9L4 9L4 11L3 11L3 12L2 12L2 11L0 11L0 12L1 12L1 13L0 13L0 14L1 14L1 16L0 16L0 19L1 19L1 16L2 16L2 18L3 18L3 21L4 21L4 20L5 20L5 19L7 19L7 20L6 20L6 21L9 21L9 23L8 23L8 22L6 22L6 23L5 23L5 22L2 22L2 24L3 24L3 23L4 23L4 25L5 25L5 24L6 24L6 25L8 25L8 27L10 27L10 28L11 28L11 26L10 26L10 25L12 25L12 26L13 26L13 27L12 27L12 29L13 29L13 28L14 28L14 29L16 29L16 30L15 30L15 31L14 31L14 32L15 32L15 33L16 33L16 31L19 31L19 30L20 30L20 31L21 31L21 32L22 32L22 33L23 33L23 32L24 32L24 33L25 33L25 32L24 32L24 31L27 31L27 30L29 30L29 32L31 32L31 33L32 33L32 32L31 32L31 31L30 31L30 30L33 30L33 27L32 27L32 26L33 26L33 24L32 24L32 26L31 26L31 27L30 27L30 25L29 25L29 24L31 24L31 23L32 23L32 22L33 22L33 21L32 21L32 20L31 20L31 19L32 19L32 18L33 18L33 17L32 17L32 16L31 16L31 15L32 15L32 14L33 14L33 13L31 13L31 15L30 15L30 13L29 13L29 12L28 12L28 11L29 11L29 10L28 10L28 11L27 11L27 12L28 12L28 13L29 13L29 14L28 14L28 16L27 16L27 13L25 13L25 14L26 14L26 16L27 16L27 17L25 17L25 16L24 16L24 17L23 17L23 15L22 15L22 13L23 13L23 14L24 14L24 13L23 13L23 12L25 12L25 11L26 11L26 10L27 10L27 9L28 9L28 8L27 8L27 9L26 9L26 8L25 8L25 6L24 6L24 8L23 8L23 5L24 5L24 4L25 4L25 3L24 3L24 2L25 2L25 1L24 1L24 0L22 0L22 1L21 1L21 0L18 0L18 1L16 1L16 0L15 0L15 1L14 1L14 0ZM8 1L8 2L9 2L9 1ZM19 1L19 2L17 2L17 3L18 3L18 4L19 4L19 3L20 3L20 1ZM22 1L22 2L24 2L24 1ZM14 2L14 3L15 3L15 2ZM15 5L15 6L14 6L14 8L15 8L15 6L16 6L16 7L17 7L17 5ZM9 6L9 7L10 7L10 6ZM11 6L11 7L12 7L12 6ZM21 6L21 7L22 7L22 6ZM10 8L10 9L8 9L8 12L7 12L7 13L6 13L6 14L5 14L5 13L3 13L3 15L6 15L6 16L7 16L7 17L4 17L4 16L3 16L3 17L4 17L4 19L5 19L5 18L7 18L7 17L8 17L8 18L10 18L10 20L11 20L11 21L10 21L10 22L13 22L13 23L12 23L12 25L15 25L15 26L16 26L16 27L17 27L17 28L18 28L18 29L17 29L17 30L18 30L18 29L20 29L20 28L21 28L21 29L22 29L22 30L21 30L21 31L24 31L24 27L23 27L23 26L24 26L24 25L22 25L22 24L23 24L23 23L24 23L24 24L28 24L28 23L30 23L30 22L31 22L31 20L29 20L29 21L27 21L27 19L26 19L26 18L25 18L25 17L24 17L24 18L19 18L19 19L18 19L18 18L17 18L17 20L16 20L16 19L14 19L14 20L13 20L13 21L12 21L12 19L13 19L13 18L12 18L12 17L17 17L17 16L18 16L18 17L19 17L19 16L20 16L20 17L22 17L22 16L21 16L21 15L20 15L20 14L19 14L19 12L18 12L18 11L17 11L17 10L16 10L16 11L17 11L17 12L16 12L16 13L17 13L17 16L16 16L16 15L15 15L15 13L14 13L14 12L15 12L15 11L14 11L14 12L13 12L13 13L12 13L12 11L13 11L13 10L12 10L12 9L11 9L11 8ZM20 8L20 9L22 9L22 8ZM29 8L29 9L30 9L30 8ZM31 8L31 10L33 10L33 9L32 9L32 8ZM10 9L10 11L11 11L11 9ZM24 9L24 10L22 10L22 12L20 12L20 13L22 13L22 12L23 12L23 11L24 11L24 10L25 10L25 9ZM19 10L19 11L20 11L20 10ZM30 11L30 12L31 12L31 11ZM9 12L9 13L7 13L7 14L6 14L6 15L9 15L9 14L10 14L10 17L12 17L12 15L13 15L13 14L10 14L10 13L11 13L11 12ZM17 12L17 13L18 13L18 12ZM14 15L14 16L15 16L15 15ZM18 15L18 16L19 16L19 15ZM29 15L29 17L27 17L27 18L28 18L28 19L29 19L29 17L30 17L30 19L31 19L31 16L30 16L30 15ZM8 16L8 17L9 17L9 16ZM24 18L24 19L23 19L23 20L22 20L22 19L20 19L20 21L18 21L18 20L17 20L17 21L18 21L18 22L15 22L15 23L14 23L14 24L15 24L15 25L16 25L16 26L18 26L18 27L19 27L19 26L21 26L21 28L22 28L22 29L23 29L23 27L22 27L22 26L21 26L21 25L18 25L18 24L19 24L19 23L18 23L18 22L20 22L20 23L21 23L21 24L22 24L22 23L23 23L23 22L24 22L24 21L23 21L23 20L24 20L24 19L25 19L25 18ZM8 19L8 20L9 20L9 19ZM0 20L0 25L1 25L1 20ZM14 20L14 21L15 21L15 20ZM21 20L21 21L22 21L22 20ZM25 21L25 22L27 22L27 23L28 23L28 22L27 22L27 21ZM29 21L29 22L30 22L30 21ZM6 23L6 24L7 24L7 23ZM17 23L17 24L16 24L16 25L17 25L17 24L18 24L18 23ZM8 24L8 25L10 25L10 24ZM25 25L25 28L28 28L28 25ZM26 26L26 27L27 27L27 26ZM14 27L14 28L15 28L15 27ZM8 28L8 33L9 33L9 32L10 32L10 33L12 33L12 31L13 31L13 30L11 30L11 32L10 32L10 30L9 30L9 28ZM29 28L29 30L30 30L30 29L32 29L32 28ZM25 29L25 30L27 30L27 29ZM17 32L17 33L18 33L18 32ZM19 32L19 33L20 33L20 32ZM27 32L27 33L28 33L28 32ZM0 0L0 7L7 7L7 0ZM1 1L1 6L6 6L6 1ZM2 2L2 5L5 5L5 2ZM26 0L26 7L33 7L33 0ZM27 1L27 6L32 6L32 1ZM28 2L28 5L31 5L31 2ZM0 26L0 33L7 33L7 26ZM1 27L1 32L6 32L6 27ZM2 28L2 31L5 31L5 28Z" fill="#000000"/></g></g></svg>
