<?xml version="1.0" encoding="UTF-8"?>
<svg xmlns="http://www.w3.org/2000/svg" version="1.1" width="80" height="80" viewBox="0 0 80 80"><rect x="0" y="0" width="80" height="80" fill="#ffffff"/><g transform="scale(2.162)"><g transform="translate(0,0)"><path fill-rule="evenodd" d="M10 0L10 1L8 1L8 3L9 3L9 4L8 4L8 8L6 8L6 9L5 9L5 10L4 10L4 8L3 8L3 9L2 9L2 8L0 8L0 9L1 9L1 10L3 10L3 11L1 11L1 13L3 13L3 17L4 17L4 18L6 18L6 19L2 19L2 16L1 16L1 17L0 17L0 18L1 18L1 19L0 19L0 20L1 20L1 21L0 21L0 22L1 22L1 21L3 21L3 24L2 24L2 23L0 23L0 24L1 24L1 26L0 26L0 27L1 27L1 28L0 28L0 29L3 29L3 28L4 28L4 29L8 29L8 31L10 31L10 32L9 32L9 33L8 33L8 34L9 34L9 35L8 35L8 37L12 37L12 36L14 36L14 37L16 37L16 36L17 36L17 37L19 37L19 36L22 36L22 35L20 35L20 34L23 34L23 32L24 32L24 33L27 33L27 34L29 34L29 33L32 33L32 35L34 35L34 34L33 34L33 28L32 28L32 27L34 27L34 26L32 26L32 24L33 24L33 23L37 23L37 20L36 20L36 19L37 19L37 16L36 16L36 15L37 15L37 9L36 9L36 8L34 8L34 9L33 9L33 8L30 8L30 9L29 9L29 1L28 1L28 0L27 0L27 1L26 1L26 2L27 2L27 3L26 3L26 5L25 5L25 6L24 6L24 8L23 8L23 9L22 9L22 7L23 7L23 6L22 6L22 5L21 5L21 6L20 6L20 4L21 4L21 3L19 3L19 2L17 2L17 1L18 1L18 0L17 0L17 1L16 1L16 2L14 2L14 3L12 3L12 7L11 7L11 4L10 4L10 3L9 3L9 2L11 2L11 0ZM14 0L14 1L15 1L15 0ZM19 0L19 1L20 1L20 2L21 2L21 1L20 1L20 0ZM22 0L22 2L23 2L23 3L22 3L22 4L23 4L23 5L24 5L24 4L23 4L23 3L25 3L25 1L24 1L24 0ZM16 2L16 3L14 3L14 4L13 4L13 7L12 7L12 8L13 8L13 9L14 9L14 10L15 10L15 9L16 9L16 8L15 8L15 7L16 7L16 6L15 6L15 5L17 5L17 7L18 7L18 10L19 10L19 9L21 9L21 8L19 8L19 7L20 7L20 6L19 6L19 5L17 5L17 4L18 4L18 3L17 3L17 2ZM16 3L16 4L17 4L17 3ZM9 5L9 8L8 8L8 9L6 9L6 10L5 10L5 11L3 11L3 12L7 12L7 11L8 11L8 13L6 13L6 14L5 14L5 13L4 13L4 16L7 16L7 17L6 17L6 18L7 18L7 17L8 17L8 16L7 16L7 15L8 15L8 13L9 13L9 15L10 15L10 13L11 13L11 8L10 8L10 5ZM14 6L14 7L13 7L13 8L14 8L14 9L15 9L15 8L14 8L14 7L15 7L15 6ZM18 6L18 7L19 7L19 6ZM21 6L21 7L22 7L22 6ZM25 6L25 8L26 8L26 6ZM27 6L27 7L28 7L28 6ZM27 8L27 9L26 9L26 10L24 10L24 9L23 9L23 11L22 11L22 10L21 10L21 11L17 11L17 10L16 10L16 11L14 11L14 12L12 12L12 16L11 16L11 18L10 18L10 17L9 17L9 18L10 18L10 19L9 19L9 20L8 20L8 19L6 19L6 20L5 20L5 21L6 21L6 22L4 22L4 23L5 23L5 24L3 24L3 25L2 25L2 26L1 26L1 27L3 27L3 26L4 26L4 27L5 27L5 28L7 28L7 27L6 27L6 26L7 26L7 25L9 25L9 27L10 27L10 28L9 28L9 30L10 30L10 31L12 31L12 32L13 32L13 33L14 33L14 34L15 34L15 35L14 35L14 36L15 36L15 35L16 35L16 34L17 34L17 36L18 36L18 34L17 34L17 30L18 30L18 29L19 29L19 31L18 31L18 33L19 33L19 34L20 34L20 33L21 33L21 31L22 31L22 32L23 32L23 31L25 31L25 32L26 32L26 29L27 29L27 27L28 27L28 28L29 28L29 27L30 27L30 25L28 25L28 23L29 23L29 22L28 22L28 21L29 21L29 20L28 20L28 21L26 21L26 22L27 22L27 23L26 23L26 25L25 25L25 26L24 26L24 23L25 23L25 22L24 22L24 21L25 21L25 20L27 20L27 19L29 19L29 18L30 18L30 19L31 19L31 22L30 22L30 23L31 23L31 24L32 24L32 22L33 22L33 21L34 21L34 22L36 22L36 20L34 20L34 19L35 19L35 18L34 18L34 16L35 16L35 17L36 17L36 16L35 16L35 15L36 15L36 12L35 12L35 11L36 11L36 9L35 9L35 11L34 11L34 10L33 10L33 9L32 9L32 10L30 10L30 11L29 11L29 10L28 10L28 8ZM8 9L8 11L9 11L9 12L10 12L10 11L9 11L9 9ZM6 10L6 11L7 11L7 10ZM26 10L26 11L25 11L25 12L23 12L23 13L22 13L22 11L21 11L21 12L19 12L19 13L20 13L20 14L23 14L23 15L18 15L18 14L17 14L17 13L16 13L16 12L17 12L17 11L16 11L16 12L14 12L14 13L13 13L13 15L15 15L15 16L16 16L16 15L15 15L15 14L17 14L17 16L19 16L19 18L20 18L20 19L19 19L19 21L18 21L18 19L17 19L17 17L14 17L14 16L12 16L12 18L11 18L11 19L10 19L10 20L9 20L9 22L8 22L8 23L7 23L7 22L6 22L6 23L7 23L7 24L6 24L6 25L4 25L4 26L6 26L6 25L7 25L7 24L9 24L9 25L10 25L10 26L12 26L12 28L10 28L10 30L11 30L11 29L12 29L12 28L13 28L13 29L15 29L15 30L16 30L16 28L19 28L19 29L21 29L21 28L22 28L22 29L23 29L23 30L25 30L25 28L26 28L26 27L27 27L27 25L26 25L26 27L25 27L25 28L24 28L24 29L23 29L23 28L22 28L22 27L24 27L24 26L22 26L22 25L23 25L23 23L21 23L21 22L23 22L23 21L24 21L24 20L23 20L23 21L20 21L20 20L22 20L22 18L20 18L20 16L21 16L21 17L22 17L22 16L27 16L27 17L28 17L28 16L29 16L29 17L30 17L30 18L31 18L31 19L32 19L32 21L33 21L33 19L34 19L34 18L33 18L33 17L32 17L32 18L31 18L31 16L32 16L32 15L33 15L33 16L34 16L34 14L32 14L32 13L31 13L31 11L30 11L30 12L29 12L29 15L25 15L25 14L26 14L26 11L27 11L27 12L28 12L28 11L27 11L27 10ZM32 10L32 12L34 12L34 11L33 11L33 10ZM23 13L23 14L24 14L24 13ZM0 14L0 15L1 15L1 14ZM6 14L6 15L7 15L7 14ZM30 14L30 15L29 15L29 16L31 16L31 14ZM23 17L23 18L24 18L24 19L25 19L25 18L26 18L26 19L27 19L27 18L26 18L26 17ZM13 18L13 20L12 20L12 19L11 19L11 21L12 21L12 22L10 22L10 23L9 23L9 24L11 24L11 25L12 25L12 24L13 24L13 27L15 27L15 28L16 28L16 27L15 27L15 25L16 25L16 26L17 26L17 27L19 27L19 28L21 28L21 27L22 27L22 26L21 26L21 27L20 27L20 26L17 26L17 25L16 25L16 24L18 24L18 25L19 25L19 24L18 24L18 23L19 23L19 22L17 22L17 19L15 19L15 20L14 20L14 18ZM1 19L1 20L2 20L2 19ZM3 20L3 21L4 21L4 20ZM6 20L6 21L8 21L8 20ZM15 20L15 21L14 21L14 22L16 22L16 23L14 23L14 24L16 24L16 23L17 23L17 22L16 22L16 20ZM20 24L20 25L21 25L21 24ZM35 24L35 25L36 25L36 27L35 27L35 28L34 28L34 29L35 29L35 28L36 28L36 27L37 27L37 24ZM31 26L31 27L32 27L32 26ZM29 29L29 32L32 32L32 29ZM36 29L36 30L34 30L34 32L35 32L35 31L36 31L36 32L37 32L37 29ZM13 30L13 32L14 32L14 33L16 33L16 31L15 31L15 32L14 32L14 30ZM20 30L20 31L19 31L19 33L20 33L20 31L21 31L21 30ZM30 30L30 31L31 31L31 30ZM27 31L27 33L28 33L28 31ZM10 32L10 34L11 34L11 32ZM35 33L35 35L37 35L37 34L36 34L36 33ZM24 34L24 35L23 35L23 37L26 37L26 35L25 35L25 34ZM28 35L28 36L27 36L27 37L31 37L31 36L30 36L30 35ZM32 36L32 37L33 37L33 36ZM35 36L35 37L37 37L37 36ZM0 0L0 7L7 7L7 0ZM1 1L1 6L6 6L6 1ZM2 2L2 5L5 5L5 2ZM30 0L30 7L37 7L37 0ZM31 1L31 6L36 6L36 1ZM32 2L32 5L35 5L35 2ZM0 30L0 37L7 37L7 30ZM1 31L1 36L6 36L6 31ZM2 32L2 35L5 35L5 32Z" fill="#000000"/></g></g></svg>
