<?xml version="1.0" encoding="UTF-8"?>
<svg xmlns="http://www.w3.org/2000/svg" version="1.1" width="80" height="80" viewBox="0 0 80 80"><rect x="0" y="0" width="80" height="80" fill="#ffffff"/><g transform="scale(2.424)"><g transform="translate(0,0)"><path fill-rule="evenodd" d="M10 0L10 1L8 1L8 2L9 2L9 3L8 3L8 4L10 4L10 3L11 3L11 5L10 5L10 7L11 7L11 8L6 8L6 9L9 9L9 10L5 10L5 8L0 8L0 10L2 10L2 9L3 9L3 11L0 11L0 13L1 13L1 14L0 14L0 17L1 17L1 18L0 18L0 19L1 19L1 20L0 20L0 25L1 25L1 21L2 21L2 20L3 20L3 19L4 19L4 18L5 18L5 21L8 21L8 22L9 22L9 24L6 24L6 23L7 23L7 22L4 22L4 21L3 21L3 22L4 22L4 24L6 24L6 25L8 25L8 27L10 27L10 28L8 28L8 33L11 33L11 32L13 32L13 33L14 33L14 32L15 32L15 31L16 31L16 32L17 32L17 33L19 33L19 32L17 32L17 29L18 29L18 30L21 30L21 31L20 31L20 33L21 33L21 32L22 32L22 33L23 33L23 32L24 32L24 33L25 33L25 32L24 32L24 31L27 31L27 30L29 30L29 32L31 32L31 33L32 33L32 32L31 32L31 31L32 31L32 30L31 30L31 29L33 29L33 28L31 28L31 27L32 27L32 26L33 26L33 24L32 24L32 26L31 26L31 27L30 27L30 25L29 25L29 24L31 24L31 23L32 23L32 22L33 22L33 21L32 21L32 20L31 20L31 19L32 19L32 18L33 18L33 17L32 17L32 16L31 16L31 15L32 15L32 14L33 14L33 13L31 13L31 15L30 15L30 13L29 13L29 12L28 12L28 11L29 11L29 10L28 10L28 11L27 11L27 12L28 12L28 13L29 13L29 14L28 14L28 16L27 16L27 13L25 13L25 14L26 14L26 16L27 16L27 17L25 17L25 16L24 16L24 17L23 17L23 14L24 14L24 13L23 13L23 12L25 12L25 11L26 11L26 10L27 10L27 9L28 9L28 8L27 8L27 9L26 9L26 8L25 8L25 6L24 6L24 8L23 8L23 5L24 5L24 4L25 4L25 3L24 3L24 2L25 2L25 1L24 1L24 0L22 0L22 1L21 1L21 0L19 0L19 1L21 1L21 3L20 3L20 2L18 2L18 3L17 3L17 4L15 4L15 3L16 3L16 2L17 2L17 1L15 1L15 0L14 0L14 2L15 2L15 3L14 3L14 5L13 5L13 4L12 4L12 3L11 3L11 1L13 1L13 0ZM22 1L22 2L24 2L24 1ZM18 3L18 4L20 4L20 3ZM21 3L21 5L23 5L23 4L24 4L24 3ZM8 5L8 7L9 7L9 5ZM11 5L11 7L12 7L12 8L11 8L11 9L10 9L10 11L11 11L11 12L10 12L10 13L9 13L9 12L8 12L8 13L5 13L5 15L6 15L6 16L4 16L4 17L3 17L3 18L4 18L4 17L5 17L5 18L7 18L7 17L8 17L8 16L9 16L9 18L10 18L10 19L9 19L9 20L8 20L8 21L9 21L9 20L10 20L10 19L12 19L12 18L13 18L13 20L11 20L11 21L10 21L10 24L9 24L9 26L10 26L10 25L11 25L11 27L12 27L12 26L13 26L13 28L10 28L10 29L11 29L11 31L12 31L12 30L13 30L13 32L14 32L14 31L15 31L15 30L13 30L13 29L14 29L14 28L15 28L15 27L14 27L14 26L17 26L17 27L16 27L16 28L18 28L18 29L19 29L19 28L20 28L20 29L22 29L22 30L23 30L23 31L24 31L24 27L22 27L22 28L21 28L21 27L20 27L20 26L19 26L19 23L20 23L20 22L19 22L19 23L18 23L18 21L19 21L19 19L21 19L21 18L23 18L23 19L24 19L24 20L23 20L23 21L24 21L24 22L22 22L22 24L20 24L20 25L21 25L21 26L24 26L24 25L22 25L22 24L23 24L23 23L24 23L24 24L28 24L28 23L30 23L30 22L31 22L31 20L29 20L29 21L27 21L27 19L26 19L26 18L25 18L25 17L24 17L24 18L23 18L23 17L22 17L22 16L20 16L20 14L19 14L19 15L18 15L18 14L17 14L17 15L16 15L16 16L18 16L18 17L15 17L15 16L14 16L14 15L15 15L15 14L13 14L13 13L14 13L14 11L15 11L15 10L18 10L18 11L17 11L17 12L15 12L15 13L17 13L17 12L18 12L18 13L21 13L21 15L22 15L22 14L23 14L23 13L22 13L22 12L21 12L21 11L24 11L24 10L25 10L25 9L24 9L24 10L23 10L23 9L22 9L22 8L20 8L20 5L19 5L19 7L18 7L18 5L16 5L16 6L15 6L15 5L14 5L14 6L13 6L13 5ZM12 6L12 7L13 7L13 6ZM14 6L14 7L15 7L15 8L12 8L12 9L11 9L11 10L12 10L12 9L13 9L13 11L12 11L12 12L13 12L13 11L14 11L14 9L18 9L18 10L20 10L20 11L18 11L18 12L20 12L20 11L21 11L21 10L22 10L22 9L18 9L18 8L16 8L16 7L17 7L17 6L16 6L16 7L15 7L15 6ZM21 6L21 7L22 7L22 6ZM29 8L29 9L30 9L30 8ZM31 8L31 10L33 10L33 9L32 9L32 8ZM4 10L4 11L3 11L3 12L2 12L2 13L4 13L4 11L5 11L5 12L7 12L7 11L5 11L5 10ZM30 11L30 12L31 12L31 11ZM10 13L10 14L11 14L11 13ZM1 14L1 16L2 16L2 15L3 15L3 14ZM6 14L6 15L7 15L7 14ZM8 14L8 15L9 15L9 14ZM10 15L10 16L12 16L12 17L14 17L14 19L15 19L15 20L14 20L14 21L13 21L13 22L14 22L14 25L18 25L18 24L16 24L16 22L17 22L17 21L18 21L18 20L17 20L17 19L19 19L19 18L20 18L20 16L19 16L19 17L18 17L18 18L15 18L15 17L14 17L14 16L13 16L13 15ZM29 15L29 17L27 17L27 18L28 18L28 19L29 19L29 17L30 17L30 19L31 19L31 16L30 16L30 15ZM6 16L6 17L7 17L7 16ZM10 17L10 18L11 18L11 17ZM24 18L24 19L25 19L25 18ZM6 19L6 20L7 20L7 19ZM15 20L15 21L14 21L14 22L15 22L15 21L17 21L17 20ZM20 20L20 21L22 21L22 20ZM25 21L25 22L27 22L27 23L28 23L28 22L27 22L27 21ZM29 21L29 22L30 22L30 21ZM12 24L12 25L13 25L13 24ZM25 25L25 28L28 28L28 25ZM26 26L26 27L27 27L27 26ZM18 27L18 28L19 28L19 27ZM22 28L22 29L23 29L23 28ZM29 28L29 30L30 30L30 31L31 31L31 30L30 30L30 29L31 29L31 28ZM25 29L25 30L27 30L27 29ZM9 31L9 32L10 32L10 31ZM27 32L27 33L28 33L28 32ZM0 0L0 7L7 7L7 0ZM1 1L1 6L6 6L6 1ZM2 2L2 5L5 5L5 2ZM26 0L26 7L33 7L33 0ZM27 1L27 6L32 6L32 1ZM28 2L28 5L31 5L31 2ZM0 26L0 33L7 33L7 26ZM1 27L1 32L6 32L6 27ZM2 28L2 31L5 31L5 28Z" fill="#000000"/></g></g></svg>
