<?xml version="1.0" encoding="UTF-8"?>
<svg xmlns="http://www.w3.org/2000/svg" version="1.1" width="80" height="80" viewBox="0 0 80 80"><rect x="0" y="0" width="80" height="80" fill="#ffffff"/><g transform="scale(2.162)"><g transform="translate(0,0)"><path fill-rule="evenodd" d="M9 0L9 1L8 1L8 2L9 2L9 3L8 3L8 4L10 4L10 7L11 7L11 4L12 4L12 5L13 5L13 6L12 6L12 9L13 9L13 8L14 8L14 9L15 9L15 10L17 10L17 11L16 11L16 13L12 13L12 11L13 11L13 10L11 10L11 11L10 11L10 9L11 9L11 8L6 8L6 9L5 9L5 8L0 8L0 9L3 9L3 12L2 12L2 13L1 13L1 12L0 12L0 13L1 13L1 14L2 14L2 17L1 17L1 16L0 16L0 19L1 19L1 20L0 20L0 21L1 21L1 23L0 23L0 29L1 29L1 26L2 26L2 28L3 28L3 29L4 29L4 28L3 28L3 27L7 27L7 28L6 28L6 29L7 29L7 28L8 28L8 26L9 26L9 29L8 29L8 31L9 31L9 29L10 29L10 30L11 30L11 29L12 29L12 30L13 30L13 31L12 31L12 33L13 33L13 32L14 32L14 33L15 33L15 32L16 32L16 33L17 33L17 31L18 31L18 32L19 32L19 31L18 31L18 30L19 30L19 29L20 29L20 30L21 30L21 31L20 31L20 32L23 32L23 33L20 33L20 35L19 35L19 34L18 34L18 35L19 35L19 36L17 36L17 34L15 34L15 35L14 35L14 36L16 36L16 37L20 37L20 36L21 36L21 37L27 37L27 35L28 35L28 36L29 36L29 37L31 37L31 35L32 35L32 34L33 34L33 35L34 35L34 34L35 34L35 35L36 35L36 36L32 36L32 37L37 37L37 33L36 33L36 31L37 31L37 30L35 30L35 32L33 32L33 30L34 30L34 29L35 29L35 28L33 28L33 26L34 26L34 27L36 27L36 28L37 28L37 26L36 26L36 25L37 25L37 22L36 22L36 21L37 21L37 18L36 18L36 17L37 17L37 14L36 14L36 13L35 13L35 12L34 12L34 11L35 11L35 9L36 9L36 8L35 8L35 9L34 9L34 8L33 8L33 9L34 9L34 11L32 11L32 12L31 12L31 10L30 10L30 8L29 8L29 9L28 9L28 7L29 7L29 3L25 3L25 2L24 2L24 3L23 3L23 2L21 2L21 3L20 3L20 2L19 2L19 1L22 1L22 0L15 0L15 1L17 1L17 2L16 2L16 4L12 4L12 2L13 2L13 1L11 1L11 2L10 2L10 0ZM23 0L23 1L24 1L24 0ZM26 0L26 2L28 2L28 1L29 1L29 0L28 0L28 1L27 1L27 0ZM14 2L14 3L15 3L15 2ZM17 2L17 3L18 3L18 4L16 4L16 5L18 5L18 4L19 4L19 7L18 7L18 6L17 6L17 7L16 7L16 6L15 6L15 7L14 7L14 6L13 6L13 7L14 7L14 8L15 8L15 7L16 7L16 9L17 9L17 10L19 10L19 11L21 11L21 10L20 10L20 9L22 9L22 8L20 8L20 3L18 3L18 2ZM10 3L10 4L11 4L11 3ZM21 3L21 4L22 4L22 6L21 6L21 7L22 7L22 6L23 6L23 7L24 7L24 8L23 8L23 9L24 9L24 10L23 10L23 11L22 11L22 12L21 12L21 13L22 13L22 14L23 14L23 16L21 16L21 19L22 19L22 18L23 18L23 19L24 19L24 18L25 18L25 20L23 20L23 21L24 21L24 22L22 22L22 23L23 23L23 24L21 24L21 22L20 22L20 21L21 21L21 20L20 20L20 15L21 15L21 14L20 14L20 12L18 12L18 11L17 11L17 13L16 13L16 14L17 14L17 15L16 15L16 17L17 17L17 18L15 18L15 17L14 17L14 16L15 16L15 15L14 15L14 16L13 16L13 17L12 17L12 15L13 15L13 14L12 14L12 13L10 13L10 12L9 12L9 11L8 11L8 14L7 14L7 13L6 13L6 12L7 12L7 11L6 11L6 12L4 12L4 13L2 13L2 14L3 14L3 15L5 15L5 13L6 13L6 14L7 14L7 15L6 15L6 16L7 16L7 17L6 17L6 18L5 18L5 16L3 16L3 17L2 17L2 18L1 18L1 19L2 19L2 18L3 18L3 20L1 20L1 21L3 21L3 20L4 20L4 19L6 19L6 20L5 20L5 21L6 21L6 22L7 22L7 23L6 23L6 24L9 24L9 23L8 23L8 22L9 22L9 21L10 21L10 19L11 19L11 18L13 18L13 19L12 19L12 21L11 21L11 22L10 22L10 23L11 23L11 25L10 25L10 26L13 26L13 27L12 27L12 29L16 29L16 30L17 30L17 29L19 29L19 28L20 28L20 29L21 29L21 30L23 30L23 32L26 32L26 31L27 31L27 32L28 32L28 30L27 30L27 29L28 29L28 28L31 28L31 27L28 27L28 28L27 28L27 27L26 27L26 25L24 25L24 24L26 24L26 23L27 23L27 24L28 24L28 25L27 25L27 26L28 26L28 25L29 25L29 24L28 24L28 23L29 23L29 22L30 22L30 24L36 24L36 23L34 23L34 21L32 21L32 22L33 22L33 23L31 23L31 21L30 21L30 18L31 18L31 19L32 19L32 20L36 20L36 19L35 19L35 18L34 18L34 17L30 17L30 14L31 14L31 16L32 16L32 14L33 14L33 16L35 16L35 17L36 17L36 14L35 14L35 15L34 15L34 13L30 13L30 10L28 10L28 9L24 9L24 8L26 8L26 6L27 6L27 7L28 7L28 6L27 6L27 5L28 5L28 4L26 4L26 5L25 5L25 4L24 4L24 5L23 5L23 4L22 4L22 3ZM8 5L8 7L9 7L9 5ZM24 5L24 7L25 7L25 5ZM17 8L17 9L19 9L19 8ZM31 8L31 9L32 9L32 8ZM4 9L4 11L5 11L5 9ZM6 9L6 10L7 10L7 9ZM0 10L0 11L1 11L1 10ZM25 10L25 11L24 11L24 12L22 12L22 13L23 13L23 14L24 14L24 15L25 15L25 14L26 14L26 13L28 13L28 14L27 14L27 15L26 15L26 16L25 16L25 17L26 17L26 18L27 18L27 20L25 20L25 21L27 21L27 20L28 20L28 22L27 22L27 23L28 23L28 22L29 22L29 20L28 20L28 19L29 19L29 18L30 18L30 17L29 17L29 18L27 18L27 16L29 16L29 14L30 14L30 13L29 13L29 12L28 12L28 10L27 10L27 11L26 11L26 10ZM36 10L36 11L37 11L37 10ZM14 11L14 12L15 12L15 11ZM25 11L25 12L26 12L26 11ZM9 13L9 14L10 14L10 13ZM17 13L17 14L19 14L19 13ZM24 13L24 14L25 14L25 13ZM8 15L8 16L9 16L9 15ZM3 17L3 18L4 18L4 17ZM7 17L7 18L6 18L6 19L7 19L7 18L8 18L8 19L9 19L9 18L8 18L8 17ZM10 17L10 18L11 18L11 17ZM18 17L18 18L19 18L19 17ZM23 17L23 18L24 18L24 17ZM33 18L33 19L34 19L34 18ZM14 19L14 20L15 20L15 19ZM16 19L16 21L12 21L12 22L13 22L13 23L12 23L12 25L13 25L13 24L14 24L14 25L15 25L15 26L17 26L17 27L16 27L16 28L17 28L17 27L18 27L18 28L19 28L19 26L20 26L20 28L21 28L21 29L23 29L23 30L24 30L24 29L25 29L25 30L26 30L26 29L27 29L27 28L25 28L25 27L23 27L23 28L22 28L22 26L24 26L24 25L21 25L21 24L20 24L20 23L19 23L19 22L16 22L16 21L17 21L17 19ZM6 20L6 21L7 21L7 20ZM8 20L8 21L9 21L9 20ZM19 20L19 21L20 21L20 20ZM3 22L3 25L4 25L4 26L5 26L5 25L4 25L4 24L5 24L5 23L4 23L4 22ZM1 23L1 25L2 25L2 23ZM14 23L14 24L15 24L15 23ZM16 23L16 25L17 25L17 26L18 26L18 25L19 25L19 24L18 24L18 23ZM6 25L6 26L7 26L7 25ZM30 25L30 26L31 26L31 25ZM32 25L32 26L33 26L33 25ZM34 25L34 26L35 26L35 25ZM14 27L14 28L15 28L15 27ZM10 28L10 29L11 29L11 28ZM23 28L23 29L24 29L24 28ZM29 29L29 32L32 32L32 29ZM30 30L30 31L31 31L31 30ZM10 31L10 32L11 32L11 31ZM14 31L14 32L15 32L15 31ZM8 32L8 37L9 37L9 34L11 34L11 35L10 35L10 37L12 37L12 35L13 35L13 34L11 34L11 33L9 33L9 32ZM26 33L26 34L27 34L27 33ZM31 33L31 34L28 34L28 35L31 35L31 34L32 34L32 33ZM33 33L33 34L34 34L34 33ZM35 33L35 34L36 34L36 33ZM22 34L22 35L24 35L24 36L26 36L26 35L24 35L24 34ZM0 0L0 7L7 7L7 0ZM1 1L1 6L6 6L6 1ZM2 2L2 5L5 5L5 2ZM30 0L30 7L37 7L37 0ZM31 1L31 6L36 6L36 1ZM32 2L32 5L35 5L35 2ZM0 30L0 37L7 37L7 30ZM1 31L1 36L6 36L6 31ZM2 32L2 35L5 35L5 32Z" fill="#000000"/></g></g></svg>
