<?xml version="1.0" encoding="UTF-8"?>
<svg xmlns="http://www.w3.org/2000/svg" version="1.1" width="80" height="80" viewBox="0 0 80 80"><rect x="0" y="0" width="80" height="80" fill="#ffffff"/><g transform="scale(2.424)"><g transform="translate(0,0)"><path fill-rule="evenodd" d="M9 0L9 1L8 1L8 3L9 3L9 4L8 4L8 8L6 8L6 9L8 9L8 10L4 10L4 8L3 8L3 10L4 10L4 11L2 11L2 10L1 10L1 9L2 9L2 8L0 8L0 12L1 12L1 11L2 11L2 13L3 13L3 14L2 14L2 18L3 18L3 20L2 20L2 19L1 19L1 18L0 18L0 21L2 21L2 22L0 22L0 23L1 23L1 24L0 24L0 25L1 25L1 24L2 24L2 25L3 25L3 24L2 24L2 22L3 22L3 23L4 23L4 24L5 24L5 25L7 25L7 24L8 24L8 23L9 23L9 22L8 22L8 20L9 20L9 21L10 21L10 20L9 20L9 19L11 19L11 22L10 22L10 24L9 24L9 25L8 25L8 27L9 27L9 25L10 25L10 27L13 27L13 29L12 29L12 31L11 31L11 28L10 28L10 29L8 29L8 30L10 30L10 31L8 31L8 33L9 33L9 32L10 32L10 31L11 31L11 33L13 33L13 31L14 31L14 27L13 27L13 25L14 25L14 26L15 26L15 24L16 24L16 23L15 23L15 24L14 24L14 22L13 22L13 19L11 19L11 18L12 18L12 17L11 17L11 16L14 16L14 17L13 17L13 18L14 18L14 19L15 19L15 20L14 20L14 21L15 21L15 22L18 22L18 24L17 24L17 25L16 25L16 26L17 26L17 28L16 28L16 27L15 27L15 28L16 28L16 29L15 29L15 30L17 30L17 29L18 29L18 26L20 26L20 27L19 27L19 28L20 28L20 29L21 29L21 30L20 30L20 33L22 33L22 31L21 31L21 30L22 30L22 29L23 29L23 28L24 28L24 30L23 30L23 32L24 32L24 33L26 33L26 32L27 32L27 33L30 33L30 32L29 32L29 31L30 31L30 30L31 30L31 31L33 31L33 29L29 29L29 26L30 26L30 25L29 25L29 24L30 24L30 22L31 22L31 21L32 21L32 23L31 23L31 24L33 24L33 21L32 21L32 20L31 20L31 21L30 21L30 18L31 18L31 19L33 19L33 18L31 18L31 17L29 17L29 16L30 16L30 14L31 14L31 16L32 16L32 17L33 17L33 16L32 16L32 14L33 14L33 9L32 9L32 8L30 8L30 9L29 9L29 8L26 8L26 9L25 9L25 8L24 8L24 7L25 7L25 5L24 5L24 3L23 3L23 5L22 5L22 4L21 4L21 3L20 3L20 2L19 2L19 1L20 1L20 0L19 0L19 1L17 1L17 0L15 0L15 2L16 2L16 5L15 5L15 3L12 3L12 2L14 2L14 1L13 1L13 0L11 0L11 3L12 3L12 4L11 4L11 5L10 5L10 3L9 3L9 2L10 2L10 0ZM21 0L21 2L24 2L24 0L23 0L23 1L22 1L22 0ZM16 1L16 2L17 2L17 1ZM17 3L17 4L18 4L18 3ZM13 4L13 9L14 9L14 8L15 8L15 10L14 10L14 12L13 12L13 10L12 10L12 9L11 9L11 8L12 8L12 5L11 5L11 8L10 8L10 5L9 5L9 8L8 8L8 9L10 9L10 10L8 10L8 13L10 13L10 14L9 14L9 15L8 15L8 16L9 16L9 17L10 17L10 16L11 16L11 13L13 13L13 14L12 14L12 15L14 15L14 14L15 14L15 15L16 15L16 16L15 16L15 17L14 17L14 18L15 18L15 19L16 19L16 20L17 20L17 21L18 21L18 22L20 22L20 23L19 23L19 24L18 24L18 25L19 25L19 24L21 24L21 23L22 23L22 25L21 25L21 27L20 27L20 28L21 28L21 27L22 27L22 28L23 28L23 27L24 27L24 26L22 26L22 25L23 25L23 23L26 23L26 24L29 24L29 22L30 22L30 21L29 21L29 20L27 20L27 19L26 19L26 20L24 20L24 18L23 18L23 17L24 17L24 16L23 16L23 17L21 17L21 19L22 19L22 21L23 21L23 22L20 22L20 21L21 21L21 20L20 20L20 21L19 21L19 20L17 20L17 18L19 18L19 19L20 19L20 16L18 16L18 17L16 17L16 16L17 16L17 14L19 14L19 15L20 15L20 14L19 14L19 13L20 13L20 11L21 11L21 10L20 10L20 9L21 9L21 8L20 8L20 6L21 6L21 7L22 7L22 11L24 11L24 12L22 12L22 13L21 13L21 14L22 14L22 15L23 15L23 14L24 14L24 15L25 15L25 17L26 17L26 18L28 18L28 19L29 19L29 17L26 17L26 15L28 15L28 16L29 16L29 14L28 14L28 13L29 13L29 12L30 12L30 13L32 13L32 12L31 12L31 11L32 11L32 9L30 9L30 11L29 11L29 9L27 9L27 10L26 10L26 11L24 11L24 8L23 8L23 7L24 7L24 5L23 5L23 7L22 7L22 6L21 6L21 4L19 4L19 5L16 5L16 6L15 6L15 5L14 5L14 4ZM19 5L19 6L18 6L18 7L17 7L17 6L16 6L16 7L15 7L15 6L14 6L14 7L15 7L15 8L19 8L19 6L20 6L20 5ZM17 9L17 10L16 10L16 11L15 11L15 12L16 12L16 11L18 11L18 9ZM19 10L19 11L20 11L20 10ZM27 10L27 11L26 11L26 12L25 12L25 13L24 13L24 14L27 14L27 13L28 13L28 12L27 12L27 11L28 11L28 10ZM4 11L4 12L3 12L3 13L4 13L4 15L3 15L3 18L4 18L4 19L5 19L5 20L4 20L4 21L3 21L3 22L4 22L4 23L5 23L5 22L4 22L4 21L6 21L6 22L7 22L7 21L6 21L6 20L7 20L7 19L5 19L5 18L8 18L8 17L6 17L6 16L7 16L7 15L6 15L6 14L7 14L7 13L6 13L6 14L5 14L5 12L7 12L7 11ZM9 11L9 12L10 12L10 13L11 13L11 11ZM17 12L17 13L18 13L18 12ZM0 13L0 17L1 17L1 13ZM15 13L15 14L16 14L16 13ZM22 13L22 14L23 14L23 13ZM9 15L9 16L10 16L10 15ZM4 16L4 18L5 18L5 16ZM23 20L23 21L24 21L24 22L27 22L27 23L28 23L28 22L27 22L27 21L24 21L24 20ZM11 22L11 23L12 23L12 24L13 24L13 22ZM6 23L6 24L7 24L7 23ZM11 25L11 26L12 26L12 25ZM25 25L25 28L28 28L28 25ZM32 25L32 26L31 26L31 28L32 28L32 26L33 26L33 25ZM26 26L26 27L27 27L27 26ZM25 29L25 30L24 30L24 31L25 31L25 32L26 32L26 31L27 31L27 30L26 30L26 29ZM17 31L17 32L14 32L14 33L17 33L17 32L18 32L18 33L19 33L19 31ZM31 32L31 33L32 33L32 32ZM0 0L0 7L7 7L7 0ZM1 1L1 6L6 6L6 1ZM2 2L2 5L5 5L5 2ZM26 0L26 7L33 7L33 0ZM27 1L27 6L32 6L32 1ZM28 2L28 5L31 5L31 2ZM0 26L0 33L7 33L7 26ZM1 27L1 32L6 32L6 27ZM2 28L2 31L5 31L5 28Z" fill="#000000"/></g></g></svg>
