<?xml version="1.0" encoding="UTF-8"?>
<svg xmlns="http://www.w3.org/2000/svg" version="1.1" width="80" height="80" viewBox="0 0 80 80"><rect x="0" y="0" width="80" height="80" fill="#ffffff"/><g transform="scale(2.162)"><g transform="translate(0,0)"><path fill-rule="evenodd" d="M8 0L8 1L10 1L10 0ZM15 0L15 1L14 1L14 2L11 2L11 4L10 4L10 3L9 3L9 2L8 2L8 5L9 5L9 6L8 6L8 7L9 7L9 8L8 8L8 9L9 9L9 10L4 10L4 12L3 12L3 11L0 11L0 13L1 13L1 14L2 14L2 13L3 13L3 15L4 15L4 16L5 16L5 17L7 17L7 18L3 18L3 19L0 19L0 21L1 21L1 20L2 20L2 22L3 22L3 20L4 20L4 23L5 23L5 24L4 24L4 26L3 26L3 25L1 25L1 27L0 27L0 28L1 28L1 27L2 27L2 26L3 26L3 27L4 27L4 29L5 29L5 28L6 28L6 29L8 29L8 30L9 30L9 32L10 32L10 33L8 33L8 37L9 37L9 34L10 34L10 35L11 35L11 36L10 36L10 37L12 37L12 36L15 36L15 34L14 34L14 35L11 35L11 32L12 32L12 31L11 31L11 29L8 29L8 28L9 28L9 27L10 27L10 28L12 28L12 29L13 29L13 28L12 28L12 26L13 26L13 27L14 27L14 30L13 30L13 33L16 33L16 32L17 32L17 33L18 33L18 36L16 36L16 37L19 37L19 33L20 33L20 35L21 35L21 34L23 34L23 36L20 36L20 37L27 37L27 36L28 36L28 35L26 35L26 33L27 33L27 34L29 34L29 37L31 37L31 36L30 36L30 35L32 35L32 36L33 36L33 37L37 37L37 36L35 36L35 35L34 35L34 34L33 34L33 32L34 32L34 30L35 30L35 31L36 31L36 32L35 32L35 33L36 33L36 34L37 34L37 27L36 27L36 26L37 26L37 24L35 24L35 22L36 22L36 19L37 19L37 17L36 17L36 16L37 16L37 15L36 15L36 14L37 14L37 11L36 11L36 9L37 9L37 8L36 8L36 9L35 9L35 8L32 8L32 9L33 9L33 10L30 10L30 12L29 12L29 11L28 11L28 12L27 12L27 10L24 10L24 9L22 9L22 8L23 8L23 5L22 5L22 8L21 8L21 9L20 9L20 8L19 8L19 6L20 6L20 7L21 7L21 6L20 6L20 5L19 5L19 4L20 4L20 3L21 3L21 2L22 2L22 0L20 0L20 1L21 1L21 2L19 2L19 0L18 0L18 1L17 1L17 0ZM23 0L23 2L25 2L25 3L22 3L22 4L24 4L24 5L25 5L25 6L24 6L24 8L25 8L25 6L26 6L26 7L27 7L27 6L26 6L26 5L29 5L29 2L27 2L27 3L26 3L26 2L25 2L25 1L24 1L24 0ZM26 0L26 1L27 1L27 0ZM28 0L28 1L29 1L29 0ZM16 1L16 3L12 3L12 5L10 5L10 6L9 6L9 7L10 7L10 8L9 8L9 9L10 9L10 10L9 10L9 11L8 11L8 12L7 12L7 11L6 11L6 12L7 12L7 13L6 13L6 14L7 14L7 15L6 15L6 16L7 16L7 15L8 15L8 17L10 17L10 16L12 16L12 17L11 17L11 18L12 18L12 17L14 17L14 18L13 18L13 20L14 20L14 21L15 21L15 19L18 19L18 20L19 20L19 23L17 23L17 24L16 24L16 22L18 22L18 21L17 21L17 20L16 20L16 22L14 22L14 23L10 23L10 22L12 22L12 21L10 21L10 22L9 22L9 23L8 23L8 21L9 21L9 20L12 20L12 19L10 19L10 18L7 18L7 19L5 19L5 20L8 20L8 21L5 21L5 22L7 22L7 23L6 23L6 24L7 24L7 23L8 23L8 25L5 25L5 26L8 26L8 27L6 27L6 28L8 28L8 27L9 27L9 26L10 26L10 27L11 27L11 25L12 25L12 24L13 24L13 26L14 26L14 27L15 27L15 28L16 28L16 29L15 29L15 30L16 30L16 29L17 29L17 28L19 28L19 29L18 29L18 30L17 30L17 31L19 31L19 32L20 32L20 33L21 33L21 32L22 32L22 31L21 31L21 30L19 30L19 29L22 29L22 28L23 28L23 27L24 27L24 23L23 23L23 22L20 22L20 21L24 21L24 22L25 22L25 23L26 23L26 22L27 22L27 23L28 23L28 25L29 25L29 26L27 26L27 25L25 25L25 26L27 26L27 27L25 27L25 28L24 28L24 29L25 29L25 30L23 30L23 31L25 31L25 32L24 32L24 33L26 33L26 32L27 32L27 33L28 33L28 32L27 32L27 31L28 31L28 29L27 29L27 27L28 27L28 28L33 28L33 29L34 29L34 28L36 28L36 27L35 27L35 26L36 26L36 25L35 25L35 26L34 26L34 27L31 27L31 26L30 26L30 25L29 25L29 23L30 23L30 22L31 22L31 20L33 20L33 21L32 21L32 22L33 22L33 21L34 21L34 22L35 22L35 19L34 19L34 18L35 18L35 17L34 17L34 16L36 16L36 15L35 15L35 14L36 14L36 12L35 12L35 14L34 14L34 16L33 16L33 15L32 15L32 14L31 14L31 16L28 16L28 17L29 17L29 18L30 18L30 19L31 19L31 20L29 20L29 19L27 19L27 18L25 18L25 19L24 19L24 18L23 18L23 20L22 20L22 18L21 18L21 19L20 19L20 18L19 18L19 17L21 17L21 16L20 16L20 15L23 15L23 16L22 16L22 17L23 17L23 16L26 16L26 17L27 17L27 16L26 16L26 15L30 15L30 14L26 14L26 15L25 15L25 14L24 14L24 13L22 13L22 10L21 10L21 12L20 12L20 9L19 9L19 8L18 8L18 9L17 9L17 10L16 10L16 12L12 12L12 14L11 14L11 11L14 11L14 10L15 10L15 9L16 9L16 8L17 8L17 7L18 7L18 6L19 6L19 5L17 5L17 4L19 4L19 3L18 3L18 2L17 2L17 1ZM16 3L16 4L17 4L17 3ZM13 4L13 5L12 5L12 7L11 7L11 6L10 6L10 7L11 7L11 8L12 8L12 7L13 7L13 9L15 9L15 5L14 5L14 4ZM13 5L13 7L14 7L14 5ZM16 6L16 7L17 7L17 6ZM28 6L28 7L29 7L29 6ZM0 8L0 9L2 9L2 10L3 10L3 9L4 9L4 8ZM6 8L6 9L7 9L7 8ZM26 8L26 9L27 9L27 8ZM28 8L28 10L29 10L29 9L30 9L30 8ZM10 10L10 11L11 11L11 10ZM17 10L17 11L18 11L18 12L19 12L19 13L17 13L17 12L16 12L16 13L17 13L17 15L18 15L18 16L17 16L17 17L19 17L19 15L20 15L20 14L19 14L19 13L20 13L20 12L19 12L19 11L18 11L18 10ZM33 10L33 11L31 11L31 13L32 13L32 12L34 12L34 10ZM23 11L23 12L25 12L25 11ZM4 12L4 14L5 14L5 12ZM8 13L8 15L9 15L9 13ZM13 13L13 14L12 14L12 16L14 16L14 15L15 15L15 16L16 16L16 15L15 15L15 14L14 14L14 13ZM10 14L10 15L11 15L11 14ZM13 14L13 15L14 15L14 14ZM18 14L18 15L19 15L19 14ZM0 15L0 18L1 18L1 17L2 17L2 16L1 16L1 15ZM31 16L31 17L30 17L30 18L31 18L31 19L32 19L32 18L31 18L31 17L32 17L32 16ZM33 17L33 18L34 18L34 17ZM8 19L8 20L9 20L9 19ZM19 19L19 20L20 20L20 19ZM26 19L26 21L28 21L28 22L29 22L29 21L28 21L28 20L27 20L27 19ZM33 19L33 20L34 20L34 19ZM24 20L24 21L25 21L25 20ZM1 23L1 24L2 24L2 23ZM9 23L9 25L8 25L8 26L9 26L9 25L11 25L11 24L10 24L10 23ZM20 23L20 25L19 25L19 27L21 27L21 28L22 28L22 27L23 27L23 25L22 25L22 27L21 27L21 26L20 26L20 25L21 25L21 23ZM31 23L31 24L33 24L33 23ZM14 24L14 26L15 26L15 27L16 27L16 28L17 28L17 27L18 27L18 25L16 25L16 24ZM15 25L15 26L16 26L16 25ZM29 26L29 27L30 27L30 26ZM2 28L2 29L3 29L3 28ZM25 28L25 29L26 29L26 28ZM29 29L29 32L32 32L32 29ZM35 29L35 30L36 30L36 29ZM30 30L30 31L31 31L31 30ZM15 31L15 32L16 32L16 31ZM16 34L16 35L17 35L17 34ZM24 34L24 35L25 35L25 34ZM0 0L0 7L7 7L7 0ZM1 1L1 6L6 6L6 1ZM2 2L2 5L5 5L5 2ZM30 0L30 7L37 7L37 0ZM31 1L31 6L36 6L36 1ZM32 2L32 5L35 5L35 2ZM0 30L0 37L7 37L7 30ZM1 31L1 36L6 36L6 31ZM2 32L2 35L5 35L5 32Z" fill="#000000"/></g></g></svg>
