<?xml version="1.0" encoding="UTF-8"?>
<svg xmlns="http://www.w3.org/2000/svg" version="1.1" width="80" height="80" viewBox="0 0 80 80"><rect x="0" y="0" width="80" height="80" fill="#ffffff"/><g transform="scale(2.162)"><g transform="translate(0,0)"><path fill-rule="evenodd" d="M8 0L8 2L9 2L9 3L10 3L10 2L9 2L9 1L11 1L11 2L12 2L12 0ZM13 0L13 1L15 1L15 2L16 2L16 0ZM17 0L17 1L18 1L18 2L17 2L17 3L15 3L15 5L13 5L13 3L14 3L14 2L13 2L13 3L11 3L11 5L9 5L9 4L8 4L8 9L7 9L7 8L5 8L5 9L4 9L4 10L2 10L2 12L1 12L1 10L0 10L0 12L1 12L1 13L2 13L2 14L1 14L1 15L2 15L2 14L3 14L3 15L5 15L5 14L3 14L3 11L4 11L4 12L5 12L5 13L7 13L7 14L6 14L6 15L7 15L7 16L6 16L6 17L5 17L5 16L3 16L3 17L2 17L2 16L1 16L1 17L0 17L0 19L1 19L1 17L2 17L2 18L3 18L3 19L4 19L4 18L6 18L6 19L7 19L7 20L6 20L6 21L4 21L4 20L3 20L3 22L4 22L4 24L3 24L3 25L2 25L2 26L0 26L0 27L2 27L2 28L0 28L0 29L3 29L3 28L4 28L4 29L8 29L8 30L9 30L9 31L8 31L8 32L9 32L9 34L8 34L8 37L9 37L9 34L10 34L10 33L12 33L12 35L11 35L11 36L13 36L13 37L15 37L15 35L16 35L16 36L17 36L17 35L18 35L18 37L20 37L20 36L19 36L19 35L20 35L20 32L19 32L19 31L22 31L22 35L23 35L23 36L24 36L24 37L25 37L25 34L26 34L26 33L25 33L25 31L26 31L26 32L27 32L27 33L28 33L28 34L27 34L27 35L26 35L26 36L28 36L28 37L29 37L29 36L30 36L30 37L34 37L34 35L35 35L35 34L34 34L34 31L35 31L35 32L37 32L37 29L36 29L36 28L35 28L35 29L36 29L36 31L35 31L35 30L34 30L34 27L33 27L33 28L31 28L31 27L32 27L32 25L31 25L31 24L32 24L32 23L33 23L33 26L36 26L36 27L37 27L37 24L36 24L36 25L34 25L34 23L33 23L33 22L32 22L32 20L33 20L33 21L34 21L34 19L33 19L33 18L36 18L36 19L37 19L37 16L35 16L35 17L34 17L34 16L33 16L33 18L32 18L32 17L31 17L31 16L30 16L30 14L32 14L32 11L34 11L34 10L35 10L35 13L34 13L34 12L33 12L33 14L36 14L36 15L37 15L37 8L35 8L35 9L34 9L34 10L32 10L32 11L30 11L30 14L29 14L29 13L28 13L28 12L27 12L27 11L29 11L29 9L30 9L30 10L31 10L31 9L33 9L33 8L27 8L27 6L26 6L26 8L27 8L27 10L26 10L26 12L27 12L27 14L26 14L26 13L25 13L25 12L24 12L24 13L23 13L23 15L22 15L22 14L21 14L21 11L22 11L22 10L23 10L23 11L24 11L24 10L25 10L25 6L24 6L24 7L23 7L23 6L22 6L22 8L23 8L23 9L22 9L22 10L21 10L21 5L23 5L23 4L24 4L24 3L25 3L25 4L26 4L26 5L27 5L27 1L26 1L26 0L25 0L25 1L24 1L24 2L23 2L23 3L22 3L22 1L23 1L23 0L21 0L21 1L20 1L20 0L19 0L19 1L18 1L18 0ZM19 1L19 2L18 2L18 3L17 3L17 5L18 5L18 6L17 6L17 7L16 7L16 5L15 5L15 7L14 7L14 6L13 6L13 7L12 7L12 5L11 5L11 7L10 7L10 6L9 6L9 7L10 7L10 11L9 11L9 9L8 9L8 13L9 13L9 12L10 12L10 13L11 13L11 14L8 14L8 15L11 15L11 16L13 16L13 15L14 15L14 17L13 17L13 18L15 18L15 19L16 19L16 17L15 17L15 16L18 16L18 17L17 17L17 18L18 18L18 19L17 19L17 20L15 20L15 22L13 22L13 20L14 20L14 19L13 19L13 20L11 20L11 22L12 22L12 23L10 23L10 24L8 24L8 22L9 22L9 21L10 21L10 19L12 19L12 17L11 17L11 18L10 18L10 19L8 19L8 20L7 20L7 21L6 21L6 22L7 22L7 23L5 23L5 24L4 24L4 25L3 25L3 27L5 27L5 28L8 28L8 29L10 29L10 28L11 28L11 30L10 30L10 31L11 31L11 32L13 32L13 31L14 31L14 33L13 33L13 34L15 34L15 33L16 33L16 35L17 35L17 34L18 34L18 33L19 33L19 32L18 32L18 31L19 31L19 30L20 30L20 29L21 29L21 28L22 28L22 31L23 31L23 33L24 33L24 34L25 34L25 33L24 33L24 31L25 31L25 30L24 30L24 31L23 31L23 27L20 27L20 28L19 28L19 26L20 26L20 25L19 25L19 26L18 26L18 23L19 23L19 22L20 22L20 21L21 21L21 22L22 22L22 21L23 21L23 20L22 20L22 19L23 19L23 17L22 17L22 15L21 15L21 17L22 17L22 18L21 18L21 19L20 19L20 21L19 21L19 20L18 20L18 19L19 19L19 18L20 18L20 17L19 17L19 16L20 16L20 15L19 15L19 14L20 14L20 12L18 12L18 11L19 11L19 10L20 10L20 9L19 9L19 7L20 7L20 5L21 5L21 2L20 2L20 1ZM25 1L25 2L26 2L26 1ZM19 2L19 3L18 3L18 4L19 4L19 5L20 5L20 2ZM28 2L28 4L29 4L29 2ZM28 5L28 7L29 7L29 5ZM18 6L18 7L19 7L19 6ZM13 7L13 8L11 8L11 9L12 9L12 11L10 11L10 12L13 12L13 14L15 14L15 15L16 15L16 14L15 14L15 12L17 12L17 14L18 14L18 12L17 12L17 11L18 11L18 10L17 10L17 9L18 9L18 8L15 8L15 9L16 9L16 11L15 11L15 10L13 10L13 9L14 9L14 7ZM0 8L0 9L3 9L3 8ZM6 9L6 10L5 10L5 11L6 11L6 12L7 12L7 11L6 11L6 10L7 10L7 9ZM13 11L13 12L14 12L14 11ZM11 14L11 15L12 15L12 14ZM28 14L28 15L27 15L27 16L26 16L26 15L25 15L25 16L24 16L24 15L23 15L23 16L24 16L24 17L25 17L25 18L26 18L26 17L28 17L28 19L24 19L24 21L25 21L25 22L24 22L24 23L23 23L23 24L24 24L24 23L25 23L25 26L24 26L24 28L25 28L25 29L26 29L26 30L27 30L27 31L28 31L28 28L30 28L30 26L28 26L28 27L27 27L27 26L26 26L26 25L27 25L27 24L26 24L26 23L25 23L25 22L27 22L27 21L29 21L29 23L32 23L32 22L30 22L30 21L29 21L29 20L30 20L30 19L31 19L31 20L32 20L32 18L30 18L30 16L29 16L29 17L28 17L28 15L29 15L29 14ZM8 16L8 17L6 17L6 18L8 18L8 17L10 17L10 16ZM3 17L3 18L4 18L4 17ZM18 17L18 18L19 18L19 17ZM0 20L0 24L1 24L1 23L2 23L2 21L1 21L1 20ZM8 20L8 21L7 21L7 22L8 22L8 21L9 21L9 20ZM17 20L17 21L18 21L18 22L17 22L17 23L18 23L18 22L19 22L19 21L18 21L18 20ZM21 20L21 21L22 21L22 20ZM36 20L36 21L35 21L35 22L36 22L36 23L37 23L37 20ZM15 22L15 23L16 23L16 22ZM13 23L13 24L11 24L11 25L12 25L12 27L11 27L11 28L13 28L13 30L15 30L15 31L16 31L16 32L17 32L17 33L18 33L18 32L17 32L17 31L16 31L16 30L15 30L15 28L16 28L16 29L17 29L17 30L18 30L18 28L17 28L17 27L18 27L18 26L17 26L17 24L15 24L15 25L16 25L16 27L15 27L15 26L13 26L13 25L14 25L14 23ZM20 23L20 24L21 24L21 26L22 26L22 23ZM5 24L5 25L4 25L4 26L6 26L6 27L7 27L7 26L6 26L6 25L8 25L8 24ZM29 24L29 25L30 25L30 24ZM9 26L9 28L10 28L10 26ZM25 26L25 27L26 27L26 26ZM13 27L13 28L14 28L14 27ZM29 29L29 32L32 32L32 29ZM11 30L11 31L12 31L12 30ZM30 30L30 31L31 31L31 30ZM30 33L30 36L31 36L31 35L32 35L32 34L31 34L31 33ZM33 34L33 35L34 35L34 34ZM36 34L36 35L37 35L37 34ZM13 35L13 36L14 36L14 35ZM21 36L21 37L22 37L22 36ZM36 36L36 37L37 37L37 36ZM0 0L0 7L7 7L7 0ZM1 1L1 6L6 6L6 1ZM2 2L2 5L5 5L5 2ZM30 0L30 7L37 7L37 0ZM31 1L31 6L36 6L36 1ZM32 2L32 5L35 5L35 2ZM0 30L0 37L7 37L7 30ZM1 31L1 36L6 36L6 31ZM2 32L2 35L5 35L5 32Z" fill="#000000"/></g></g></svg>
