<?xml version="1.0" encoding="UTF-8"?>
<svg xmlns="http://www.w3.org/2000/svg" version="1.1" width="80" height="80" viewBox="0 0 80 80"><rect x="0" y="0" width="80" height="80" fill="#ffffff"/><g transform="scale(2.424)"><g transform="translate(0,0)"><path fill-rule="evenodd" d="M9 0L9 1L8 1L8 3L9 3L9 4L8 4L8 8L6 8L6 9L4 9L4 8L3 8L3 9L4 9L4 10L2 10L2 11L1 11L1 10L0 10L0 11L1 11L1 12L0 12L0 13L1 13L1 14L0 14L0 16L4 16L4 18L2 18L2 17L1 17L1 18L2 18L2 19L3 19L3 20L1 20L1 19L0 19L0 20L1 20L1 22L0 22L0 23L1 23L1 24L0 24L0 25L1 25L1 24L3 24L3 25L7 25L7 24L8 24L8 27L9 27L9 29L8 29L8 30L9 30L9 31L8 31L8 33L11 33L11 32L12 32L12 31L14 31L14 32L13 32L13 33L17 33L17 32L18 32L18 33L19 33L19 31L17 31L17 32L15 32L15 30L17 30L17 29L18 29L18 26L20 26L20 27L19 27L19 28L20 28L20 29L21 29L21 30L20 30L20 33L22 33L22 31L21 31L21 30L22 30L22 29L23 29L23 28L24 28L24 30L23 30L23 32L24 32L24 33L26 33L26 32L27 32L27 33L30 33L30 32L29 32L29 31L30 31L30 30L31 30L31 31L33 31L33 29L29 29L29 26L30 26L30 25L29 25L29 24L30 24L30 22L31 22L31 21L32 21L32 23L31 23L31 24L33 24L33 21L32 21L32 20L31 20L31 21L30 21L30 18L31 18L31 19L33 19L33 18L31 18L31 17L29 17L29 16L30 16L30 14L31 14L31 16L32 16L32 17L33 17L33 16L32 16L32 14L33 14L33 9L32 9L32 8L30 8L30 9L29 9L29 8L26 8L26 9L25 9L25 8L24 8L24 7L25 7L25 5L24 5L24 3L23 3L23 5L22 5L22 4L21 4L21 3L20 3L20 2L19 2L19 1L20 1L20 0L19 0L19 1L17 1L17 3L12 3L12 2L14 2L14 0L11 0L11 3L12 3L12 4L11 4L11 5L10 5L10 3L9 3L9 2L10 2L10 0ZM15 0L15 2L16 2L16 0ZM21 0L21 2L24 2L24 0L23 0L23 1L22 1L22 0ZM17 3L17 4L18 4L18 3ZM14 4L14 5L16 5L16 6L15 6L15 7L16 7L16 6L17 6L17 7L18 7L18 6L19 6L19 8L15 8L15 9L13 9L13 8L14 8L14 6L13 6L13 8L12 8L12 5L11 5L11 8L10 8L10 5L9 5L9 8L8 8L8 10L7 10L7 9L6 9L6 10L4 10L4 11L3 11L3 13L2 13L2 15L5 15L5 18L7 18L7 19L6 19L6 20L7 20L7 21L6 21L6 22L8 22L8 21L10 21L10 23L8 23L8 24L10 24L10 23L12 23L12 24L13 24L13 23L12 23L12 21L11 21L11 19L12 19L12 16L11 16L11 15L10 15L10 14L11 14L11 13L10 13L10 12L9 12L9 13L8 13L8 12L7 12L7 11L11 11L11 12L12 12L12 11L14 11L14 10L15 10L15 11L16 11L16 12L13 12L13 14L12 14L12 15L13 15L13 14L14 14L14 13L16 13L16 14L15 14L15 15L14 15L14 17L15 17L15 18L14 18L14 19L13 19L13 22L14 22L14 25L15 25L15 26L14 26L14 28L13 28L13 27L11 27L11 28L10 28L10 29L11 29L11 30L10 30L10 31L9 31L9 32L11 32L11 31L12 31L12 29L16 29L16 28L17 28L17 26L16 26L16 25L17 25L17 24L18 24L18 25L19 25L19 24L21 24L21 23L22 23L22 25L21 25L21 27L20 27L20 28L21 28L21 27L22 27L22 28L23 28L23 27L24 27L24 26L22 26L22 25L23 25L23 23L26 23L26 24L29 24L29 22L30 22L30 21L29 21L29 20L27 20L27 19L26 19L26 20L24 20L24 18L23 18L23 17L24 17L24 16L23 16L23 17L21 17L21 19L22 19L22 21L23 21L23 22L20 22L20 21L21 21L21 20L20 20L20 21L19 21L19 20L17 20L17 18L19 18L19 19L20 19L20 16L18 16L18 17L16 17L16 16L17 16L17 15L16 15L16 14L19 14L19 15L20 15L20 14L19 14L19 13L20 13L20 11L21 11L21 10L20 10L20 9L21 9L21 8L20 8L20 6L21 6L21 7L22 7L22 11L24 11L24 12L22 12L22 13L21 13L21 14L22 14L22 15L23 15L23 14L24 14L24 15L25 15L25 17L26 17L26 18L28 18L28 19L29 19L29 17L26 17L26 15L28 15L28 16L29 16L29 14L28 14L28 13L29 13L29 12L30 12L30 13L32 13L32 12L31 12L31 11L32 11L32 9L30 9L30 11L29 11L29 9L27 9L27 10L26 10L26 11L24 11L24 8L23 8L23 7L24 7L24 5L23 5L23 7L22 7L22 6L21 6L21 4L19 4L19 5L16 5L16 4ZM19 5L19 6L20 6L20 5ZM0 8L0 9L2 9L2 8ZM11 8L11 9L12 9L12 10L13 10L13 9L12 9L12 8ZM9 9L9 10L10 10L10 9ZM17 9L17 10L16 10L16 11L18 11L18 9ZM6 10L6 11L4 11L4 12L5 12L5 13L3 13L3 14L6 14L6 15L7 15L7 14L6 14L6 13L7 13L7 12L6 12L6 11L7 11L7 10ZM19 10L19 11L20 11L20 10ZM27 10L27 11L26 11L26 12L25 12L25 13L24 13L24 14L27 14L27 13L28 13L28 12L27 12L27 11L28 11L28 10ZM17 12L17 13L18 13L18 12ZM9 13L9 14L8 14L8 15L9 15L9 14L10 14L10 13ZM22 13L22 14L23 14L23 13ZM6 16L6 17L8 17L8 19L7 19L7 20L8 20L8 19L9 19L9 20L10 20L10 19L9 19L9 17L8 17L8 16ZM14 19L14 21L15 21L15 22L18 22L18 24L19 24L19 23L20 23L20 22L18 22L18 21L17 21L17 20L16 20L16 19ZM3 20L3 21L2 21L2 23L3 23L3 24L5 24L5 23L3 23L3 21L5 21L5 20ZM23 20L23 21L24 21L24 22L27 22L27 23L28 23L28 22L27 22L27 21L24 21L24 20ZM6 23L6 24L7 24L7 23ZM15 23L15 24L16 24L16 23ZM10 25L10 26L12 26L12 25ZM25 25L25 28L28 28L28 25ZM32 25L32 26L31 26L31 28L32 28L32 26L33 26L33 25ZM26 26L26 27L27 27L27 26ZM15 27L15 28L16 28L16 27ZM25 29L25 30L24 30L24 31L25 31L25 32L26 32L26 31L27 31L27 30L26 30L26 29ZM31 32L31 33L32 33L32 32ZM0 0L0 7L7 7L7 0ZM1 1L1 6L6 6L6 1ZM2 2L2 5L5 5L5 2ZM26 0L26 7L33 7L33 0ZM27 1L27 6L32 6L32 1ZM28 2L28 5L31 5L31 2ZM0 26L0 33L7 33L7 26ZM1 27L1 32L6 32L6 27ZM2 28L2 31L5 31L5 28Z" fill="#000000"/></g></g></svg>
