<?xml version="1.0" encoding="UTF-8"?>
<svg xmlns="http://www.w3.org/2000/svg" version="1.1" width="80" height="80" viewBox="0 0 80 80"><rect x="0" y="0" width="80" height="80" fill="#ffffff"/><g transform="scale(2.162)"><g transform="translate(0,0)"><path fill-rule="evenodd" d="M8 0L8 4L9 4L9 5L8 5L8 7L9 7L9 6L10 6L10 9L9 9L9 10L10 10L10 11L7 11L7 10L3 10L3 9L2 9L2 8L0 8L0 9L1 9L1 10L2 10L2 11L0 11L0 12L1 12L1 13L2 13L2 15L1 15L1 14L0 14L0 17L1 17L1 19L0 19L0 20L1 20L1 22L0 22L0 26L2 26L2 27L3 27L3 25L5 25L5 24L6 24L6 25L7 25L7 26L4 26L4 27L7 27L7 26L8 26L8 28L4 28L4 29L8 29L8 30L10 30L10 29L12 29L12 30L11 30L11 31L10 31L10 32L9 32L9 31L8 31L8 33L9 33L9 34L10 34L10 35L11 35L11 34L10 34L10 33L11 33L11 32L12 32L12 33L13 33L13 34L15 34L15 35L14 35L14 36L13 36L13 35L12 35L12 36L9 36L9 35L8 35L8 37L12 37L12 36L13 36L13 37L20 37L20 35L19 35L19 34L20 34L20 33L22 33L22 35L21 35L21 36L22 36L22 37L25 37L25 35L26 35L26 36L27 36L27 37L28 37L28 36L27 36L27 35L31 35L31 36L29 36L29 37L33 37L33 35L32 35L32 34L31 34L31 33L33 33L33 34L34 34L34 37L37 37L37 36L36 36L36 35L35 35L35 34L34 34L34 33L36 33L36 34L37 34L37 33L36 33L36 32L37 32L37 31L36 31L36 32L35 32L35 30L34 30L34 29L35 29L35 28L36 28L36 27L34 27L34 29L33 29L33 28L31 28L31 27L28 27L28 26L30 26L30 25L31 25L31 24L32 24L32 22L33 22L33 21L32 21L32 20L33 20L33 19L32 19L32 18L36 18L36 17L37 17L37 16L36 16L36 15L33 15L33 14L36 14L36 13L37 13L37 11L36 11L36 9L37 9L37 8L33 8L33 9L32 9L32 8L31 8L31 10L30 10L30 11L29 11L29 9L25 9L25 6L26 6L26 8L29 8L29 4L28 4L28 3L29 3L29 2L28 2L28 3L25 3L25 4L26 4L26 5L24 5L24 4L23 4L23 5L24 5L24 9L23 9L23 8L22 8L22 7L23 7L23 6L22 6L22 7L21 7L21 6L20 6L20 4L21 4L21 3L22 3L22 1L21 1L21 0L20 0L20 1L18 1L18 2L17 2L17 4L19 4L19 6L18 6L18 5L16 5L16 7L15 7L15 6L14 6L14 7L13 7L13 6L12 6L12 7L11 7L11 3L10 3L10 2L9 2L9 0ZM13 0L13 1L11 1L11 2L12 2L12 5L13 5L13 2L14 2L14 3L15 3L15 2L16 2L16 1L17 1L17 0L16 0L16 1L15 1L15 0ZM23 0L23 1L24 1L24 0ZM25 0L25 2L26 2L26 0ZM27 0L27 1L29 1L29 0ZM20 1L20 2L18 2L18 3L19 3L19 4L20 4L20 3L21 3L21 1ZM23 2L23 3L24 3L24 2ZM27 5L27 7L28 7L28 5ZM17 6L17 7L18 7L18 8L15 8L15 7L14 7L14 9L15 9L15 10L13 10L13 9L12 9L12 8L13 8L13 7L12 7L12 8L11 8L11 9L10 9L10 10L11 10L11 12L12 12L12 13L11 13L11 14L12 14L12 13L13 13L13 14L16 14L16 15L18 15L18 14L17 14L17 13L20 13L20 14L19 14L19 16L15 16L15 15L14 15L14 17L15 17L15 18L13 18L13 17L12 17L12 16L13 16L13 15L12 15L12 16L11 16L11 15L10 15L10 14L9 14L9 12L8 12L8 15L10 15L10 16L9 16L9 17L8 17L8 16L7 16L7 15L6 15L6 14L7 14L7 13L6 13L6 14L5 14L5 12L7 12L7 11L5 11L5 12L4 12L4 11L3 11L3 12L2 12L2 13L3 13L3 14L4 14L4 15L2 15L2 16L1 16L1 17L2 17L2 16L4 16L4 17L6 17L6 18L7 18L7 17L8 17L8 19L6 19L6 20L5 20L5 19L4 19L4 18L2 18L2 19L1 19L1 20L2 20L2 22L1 22L1 23L2 23L2 24L4 24L4 23L5 23L5 21L6 21L6 22L7 22L7 23L6 23L6 24L7 24L7 23L8 23L8 24L9 24L9 23L8 23L8 20L9 20L9 21L10 21L10 22L12 22L12 21L13 21L13 22L16 22L16 23L17 23L17 21L13 21L13 20L14 20L14 19L15 19L15 20L17 20L17 19L16 19L16 17L17 17L17 18L18 18L18 17L19 17L19 19L18 19L18 21L19 21L19 20L20 20L20 22L18 22L18 24L15 24L15 23L14 23L14 25L15 25L15 26L13 26L13 25L12 25L12 24L13 24L13 23L12 23L12 24L11 24L11 23L10 23L10 24L11 24L11 25L8 25L8 26L11 26L11 27L9 27L9 29L10 29L10 28L12 28L12 29L13 29L13 30L16 30L16 32L17 32L17 30L18 30L18 31L19 31L19 32L18 32L18 33L16 33L16 36L17 36L17 35L18 35L18 34L19 34L19 32L20 32L20 30L21 30L21 29L22 29L22 33L23 33L23 29L24 29L24 30L25 30L25 34L24 34L24 35L23 35L23 36L24 36L24 35L25 35L25 34L26 34L26 33L27 33L27 34L28 34L28 29L27 29L27 27L26 27L26 26L27 26L27 25L29 25L29 24L30 24L30 22L32 22L32 21L30 21L30 20L29 20L29 23L27 23L27 22L25 22L25 21L27 21L27 16L26 16L26 15L27 15L27 14L26 14L26 13L28 13L28 12L26 12L26 11L27 11L27 10L26 10L26 11L24 11L24 12L25 12L25 13L24 13L24 15L25 15L25 16L23 16L23 13L21 13L21 10L22 10L22 11L23 11L23 10L22 10L22 9L20 9L20 10L19 10L19 11L18 11L18 12L17 12L17 11L16 11L16 9L17 9L17 10L18 10L18 9L19 9L19 7L20 7L20 6L19 6L19 7L18 7L18 6ZM4 8L4 9L7 9L7 8ZM24 9L24 10L25 10L25 9ZM33 9L33 10L32 10L32 13L29 13L29 14L28 14L28 19L30 19L30 18L32 18L32 17L34 17L34 16L33 16L33 15L29 15L29 14L32 14L32 13L34 13L34 12L33 12L33 10L34 10L34 11L35 11L35 13L36 13L36 11L35 11L35 10L34 10L34 9ZM12 11L12 12L13 12L13 13L17 13L17 12L15 12L15 11L14 11L14 12L13 12L13 11ZM19 11L19 12L20 12L20 11ZM21 14L21 17L20 17L20 16L19 16L19 17L20 17L20 19L21 19L21 20L22 20L22 22L21 22L21 23L20 23L20 24L19 24L19 25L18 25L18 26L17 26L17 25L16 25L16 27L17 27L17 28L19 28L19 30L20 30L20 29L21 29L21 28L22 28L22 29L23 29L23 27L25 27L25 26L26 26L26 25L25 25L25 22L24 22L24 21L23 21L23 20L22 20L22 19L21 19L21 18L22 18L22 14ZM5 15L5 16L6 16L6 17L7 17L7 16L6 16L6 15ZM10 16L10 18L9 18L9 19L11 19L11 16ZM29 16L29 17L31 17L31 16ZM35 16L35 17L36 17L36 16ZM23 17L23 19L24 19L24 17ZM25 17L25 18L26 18L26 17ZM3 19L3 20L4 20L4 21L3 21L3 23L4 23L4 21L5 21L5 20L4 20L4 19ZM12 19L12 20L11 20L11 21L12 21L12 20L13 20L13 19ZM31 19L31 20L32 20L32 19ZM34 19L34 21L35 21L35 22L36 22L36 21L37 21L37 20L36 20L36 19ZM6 20L6 21L7 21L7 20ZM22 23L22 25L21 25L21 24L20 24L20 25L19 25L19 28L20 28L20 25L21 25L21 26L22 26L22 25L24 25L24 26L25 26L25 25L24 25L24 24L23 24L23 23ZM26 23L26 24L27 24L27 23ZM34 23L34 25L32 25L32 27L33 27L33 26L36 26L36 25L37 25L37 24L36 24L36 23ZM12 27L12 28L13 28L13 29L16 29L16 28L15 28L15 27L14 27L14 28L13 28L13 27ZM0 28L0 29L2 29L2 28ZM24 28L24 29L25 29L25 28ZM26 29L26 30L27 30L27 29ZM29 29L29 32L32 32L32 29ZM30 30L30 31L31 31L31 30ZM12 31L12 32L13 32L13 31ZM14 31L14 33L15 33L15 31ZM26 31L26 32L27 32L27 31ZM33 31L33 33L34 33L34 31ZM0 0L0 7L7 7L7 0ZM1 1L1 6L6 6L6 1ZM2 2L2 5L5 5L5 2ZM30 0L30 7L37 7L37 0ZM31 1L31 6L36 6L36 1ZM32 2L32 5L35 5L35 2ZM0 30L0 37L7 37L7 30ZM1 31L1 36L6 36L6 31ZM2 32L2 35L5 35L5 32Z" fill="#000000"/></g></g></svg>
