<?xml version="1.0" encoding="UTF-8"?>
<svg xmlns="http://www.w3.org/2000/svg" version="1.1" width="80" height="80" viewBox="0 0 80 80"><rect x="0" y="0" width="80" height="80" fill="#ffffff"/><g transform="scale(2.424)"><g transform="translate(0,0)"><path fill-rule="evenodd" d="M8 0L8 4L9 4L9 5L8 5L8 7L9 7L9 6L10 6L10 9L11 9L11 10L9 10L9 9L7 9L7 8L4 8L4 9L3 9L3 11L2 11L2 13L3 13L3 14L2 14L2 15L3 15L3 17L4 17L4 15L3 15L3 14L5 14L5 18L2 18L2 17L0 17L0 18L2 18L2 19L0 19L0 22L2 22L2 24L0 24L0 25L2 25L2 24L3 24L3 25L8 25L8 26L9 26L9 27L8 27L8 29L9 29L9 31L8 31L8 33L9 33L9 32L12 32L12 33L14 33L14 32L13 32L13 30L14 30L14 31L16 31L16 30L17 30L17 33L20 33L20 32L21 32L21 33L25 33L25 30L24 30L24 31L23 31L23 32L22 32L22 30L21 30L21 31L20 31L20 32L19 32L19 29L18 29L18 27L19 27L19 26L17 26L17 27L16 27L16 25L18 25L18 24L20 24L20 25L21 25L21 26L20 26L20 27L21 27L21 28L20 28L20 29L23 29L23 28L24 28L24 29L26 29L26 33L28 33L28 32L29 32L29 30L30 30L30 31L32 31L32 30L33 30L33 29L31 29L31 30L30 30L30 29L29 29L29 22L30 22L30 23L32 23L32 22L30 22L30 21L29 21L29 20L30 20L30 19L32 19L32 18L30 18L30 17L29 17L29 16L30 16L30 15L32 15L32 14L29 14L29 15L28 15L28 13L30 13L30 11L32 11L32 10L31 10L31 9L33 9L33 8L29 8L29 9L30 9L30 11L29 11L29 10L28 10L28 8L27 8L27 10L26 10L26 9L25 9L25 8L24 8L24 7L25 7L25 6L24 6L24 7L23 7L23 5L24 5L24 3L25 3L25 1L24 1L24 0L21 0L21 1L19 1L19 3L18 3L18 2L16 2L16 3L18 3L18 4L16 4L16 5L18 5L18 7L17 7L17 6L16 6L16 8L15 8L15 9L14 9L14 8L13 8L13 6L12 6L12 8L13 8L13 10L12 10L12 9L11 9L11 5L13 5L13 2L11 2L11 1L14 1L14 5L15 5L15 0ZM16 0L16 1L17 1L17 0ZM9 1L9 2L10 2L10 3L11 3L11 4L10 4L10 5L11 5L11 4L12 4L12 3L11 3L11 2L10 2L10 1ZM21 1L21 2L20 2L20 3L19 3L19 5L20 5L20 6L19 6L19 8L18 8L18 9L17 9L17 10L16 10L16 11L18 11L18 13L19 13L19 14L18 14L18 15L19 15L19 16L18 16L18 17L16 17L16 15L17 15L17 14L16 14L16 12L14 12L14 10L13 10L13 12L14 12L14 14L13 14L13 13L11 13L11 11L10 11L10 12L9 12L9 11L8 11L8 12L9 12L9 14L8 14L8 13L5 13L5 14L7 14L7 15L6 15L6 16L7 16L7 15L10 15L10 13L11 13L11 14L13 14L13 17L12 17L12 16L8 16L8 19L9 19L9 20L8 20L8 22L13 22L13 20L14 20L14 23L13 23L13 24L11 24L11 23L10 23L10 24L9 24L9 26L13 26L13 29L11 29L11 27L9 27L9 28L10 28L10 29L11 29L11 30L13 30L13 29L15 29L15 30L16 30L16 28L15 28L15 27L14 27L14 26L15 26L15 25L16 25L16 24L15 24L15 22L16 22L16 21L17 21L17 22L18 22L18 23L20 23L20 22L22 22L22 21L20 21L20 20L18 20L18 21L17 21L17 19L21 19L21 18L20 18L20 14L21 14L21 15L22 15L22 16L23 16L23 17L22 17L22 20L23 20L23 21L24 21L24 22L25 22L25 20L24 20L24 19L25 19L25 17L26 17L26 20L27 20L27 21L26 21L26 22L27 22L27 24L28 24L28 22L29 22L29 21L28 21L28 20L27 20L27 19L30 19L30 18L29 18L29 17L28 17L28 18L27 18L27 17L26 17L26 16L25 16L25 17L24 17L24 16L23 16L23 13L24 13L24 14L25 14L25 15L27 15L27 13L26 13L26 12L28 12L28 10L27 10L27 11L26 11L26 10L25 10L25 9L24 9L24 11L22 11L22 10L23 10L23 9L19 9L19 8L20 8L20 6L21 6L21 7L22 7L22 8L23 8L23 7L22 7L22 5L23 5L23 4L22 4L22 3L24 3L24 1ZM21 2L21 3L20 3L20 4L21 4L21 5L22 5L22 4L21 4L21 3L22 3L22 2ZM14 6L14 7L15 7L15 6ZM0 8L0 9L1 9L1 10L0 10L0 11L1 11L1 10L2 10L2 8ZM6 9L6 10L5 10L5 11L3 11L3 12L7 12L7 11L6 11L6 10L7 10L7 9ZM18 9L18 11L19 11L19 13L21 13L21 14L22 14L22 13L23 13L23 12L22 12L22 11L21 11L21 10L20 10L20 11L19 11L19 9ZM20 11L20 12L21 12L21 11ZM25 11L25 12L26 12L26 11ZM31 12L31 13L33 13L33 12ZM0 13L0 14L1 14L1 13ZM14 14L14 17L13 17L13 19L14 19L14 20L15 20L15 21L16 21L16 17L15 17L15 15L16 15L16 14ZM0 15L0 16L1 16L1 15ZM32 16L32 17L33 17L33 16ZM6 17L6 18L7 18L7 17ZM9 17L9 18L11 18L11 19L12 19L12 18L11 18L11 17ZM14 17L14 19L15 19L15 17ZM18 17L18 18L19 18L19 17ZM23 17L23 19L24 19L24 17ZM4 19L4 21L2 21L2 20L1 20L1 21L2 21L2 22L3 22L3 24L4 24L4 22L5 22L5 20L7 20L7 19ZM32 20L32 21L33 21L33 20ZM6 21L6 22L7 22L7 21ZM18 21L18 22L19 22L19 21ZM27 21L27 22L28 22L28 21ZM5 23L5 24L8 24L8 23ZM23 23L23 24L24 24L24 23ZM25 23L25 24L26 24L26 23ZM13 24L13 26L14 26L14 24ZM31 24L31 25L30 25L30 27L32 27L32 24ZM22 25L22 27L24 27L24 25ZM25 25L25 28L28 28L28 25ZM26 26L26 27L27 27L27 26ZM17 29L17 30L18 30L18 29ZM27 29L27 31L28 31L28 29ZM15 32L15 33L16 33L16 32ZM32 32L32 33L33 33L33 32ZM0 0L0 7L7 7L7 0ZM1 1L1 6L6 6L6 1ZM2 2L2 5L5 5L5 2ZM26 0L26 7L33 7L33 0ZM27 1L27 6L32 6L32 1ZM28 2L28 5L31 5L31 2ZM0 26L0 33L7 33L7 26ZM1 27L1 32L6 32L6 27ZM2 28L2 31L5 31L5 28Z" fill="#000000"/></g></g></svg>
