<?xml version="1.0" encoding="UTF-8"?>
<svg xmlns="http://www.w3.org/2000/svg" version="1.1" width="80" height="80" viewBox="0 0 80 80"><rect x="0" y="0" width="80" height="80" fill="#ffffff"/><g transform="scale(2.424)"><g transform="translate(0,0)"><path fill-rule="evenodd" d="M10 0L10 1L8 1L8 2L9 2L9 3L8 3L8 4L10 4L10 3L11 3L11 5L10 5L10 7L11 7L11 8L6 8L6 9L9 9L9 14L8 14L8 10L6 10L6 11L7 11L7 12L5 12L5 8L0 8L0 9L2 9L2 10L1 10L1 12L0 12L0 19L1 19L1 20L0 20L0 25L1 25L1 21L2 21L2 20L3 20L3 22L4 22L4 21L5 21L5 20L6 20L6 21L7 21L7 22L6 22L6 23L3 23L3 24L5 24L5 25L8 25L8 27L10 27L10 28L13 28L13 27L14 27L14 29L13 29L13 30L14 30L14 29L15 29L15 31L14 31L14 32L13 32L13 31L12 31L12 32L13 32L13 33L14 33L14 32L15 32L15 31L16 31L16 32L17 32L17 33L19 33L19 32L17 32L17 29L18 29L18 30L21 30L21 31L20 31L20 33L21 33L21 32L22 32L22 33L26 33L26 32L28 32L28 31L27 31L27 30L29 30L29 32L31 32L31 33L32 33L32 32L31 32L31 31L32 31L32 30L31 30L31 31L30 31L30 29L29 29L29 28L31 28L31 29L33 29L33 28L31 28L31 27L32 27L32 26L33 26L33 24L32 24L32 26L31 26L31 25L30 25L30 26L29 26L29 24L31 24L31 23L32 23L32 22L33 22L33 21L32 21L32 20L31 20L31 19L32 19L32 18L33 18L33 17L32 17L32 16L31 16L31 15L32 15L32 14L33 14L33 13L31 13L31 15L30 15L30 16L31 16L31 19L30 19L30 17L29 17L29 16L28 16L28 15L29 15L29 14L27 14L27 13L26 13L26 11L27 11L27 9L28 9L28 8L27 8L27 9L26 9L26 8L25 8L25 6L24 6L24 8L23 8L23 5L24 5L24 4L25 4L25 3L24 3L24 2L25 2L25 1L24 1L24 0L22 0L22 1L21 1L21 0L19 0L19 1L21 1L21 3L20 3L20 2L18 2L18 3L17 3L17 4L16 4L16 5L14 5L14 4L15 4L15 2L17 2L17 0L16 0L16 1L15 1L15 0L14 0L14 1L13 1L13 0ZM11 1L11 3L12 3L12 4L14 4L14 2L13 2L13 1ZM22 1L22 2L24 2L24 1ZM18 3L18 4L20 4L20 3ZM21 3L21 5L23 5L23 4L24 4L24 3ZM8 5L8 7L9 7L9 5ZM11 5L11 7L12 7L12 8L11 8L11 9L10 9L10 11L12 11L12 12L13 12L13 13L11 13L11 12L10 12L10 13L11 13L11 14L10 14L10 15L9 15L9 16L10 16L10 17L12 17L12 18L11 18L11 19L10 19L10 20L9 20L9 17L8 17L8 16L7 16L7 15L8 15L8 14L7 14L7 13L6 13L6 14L7 14L7 15L6 15L6 16L4 16L4 15L5 15L5 14L4 14L4 13L5 13L5 12L4 12L4 11L2 11L2 12L1 12L1 13L2 13L2 14L3 14L3 16L2 16L2 17L1 17L1 18L2 18L2 17L3 17L3 20L5 20L5 19L4 19L4 17L6 17L6 18L7 18L7 19L6 19L6 20L8 20L8 21L10 21L10 24L9 24L9 23L8 23L8 25L9 25L9 26L10 26L10 27L12 27L12 26L13 26L13 25L12 25L12 24L14 24L14 23L15 23L15 22L14 22L14 20L15 20L15 21L17 21L17 22L16 22L16 24L18 24L18 25L14 25L14 27L15 27L15 26L17 26L17 27L16 27L16 28L18 28L18 29L19 29L19 28L20 28L20 29L22 29L22 30L24 30L24 31L23 31L23 32L26 32L26 30L27 30L27 29L26 29L26 30L25 30L25 29L24 29L24 27L22 27L22 28L21 28L21 27L20 27L20 26L19 26L19 23L20 23L20 22L19 22L19 23L18 23L18 21L19 21L19 19L21 19L21 18L23 18L23 19L24 19L24 20L23 20L23 21L24 21L24 22L22 22L22 24L20 24L20 25L21 25L21 26L24 26L24 25L22 25L22 24L23 24L23 23L24 23L24 24L26 24L26 23L25 23L25 22L26 22L26 21L27 21L27 24L29 24L29 21L30 21L30 23L31 23L31 20L30 20L30 19L28 19L28 18L29 18L29 17L28 17L28 16L26 16L26 17L24 17L24 16L25 16L25 15L27 15L27 14L25 14L25 12L23 12L23 13L22 13L22 12L21 12L21 11L24 11L24 10L25 10L25 11L26 11L26 9L24 9L24 10L23 10L23 9L22 9L22 8L20 8L20 5L19 5L19 7L18 7L18 5L16 5L16 6L15 6L15 7L14 7L14 6L13 6L13 5ZM12 6L12 7L13 7L13 6ZM16 6L16 7L15 7L15 8L12 8L12 9L11 9L11 10L12 10L12 11L14 11L14 9L15 9L15 11L16 11L16 12L17 12L17 13L15 13L15 12L14 12L14 13L15 13L15 16L14 16L14 17L18 17L18 18L15 18L15 20L17 20L17 21L18 21L18 20L17 20L17 19L19 19L19 18L20 18L20 16L22 16L22 17L23 17L23 18L24 18L24 19L25 19L25 20L26 20L26 18L27 18L27 17L26 17L26 18L24 18L24 17L23 17L23 14L24 14L24 13L23 13L23 14L22 14L22 15L21 15L21 13L18 13L18 12L20 12L20 11L21 11L21 10L22 10L22 9L18 9L18 8L17 8L17 6ZM21 6L21 7L22 7L22 6ZM29 8L29 9L30 9L30 10L29 10L29 11L30 11L30 12L28 12L28 13L30 13L30 12L31 12L31 11L32 11L32 10L33 10L33 9L32 9L32 8L31 8L31 9L30 9L30 8ZM3 9L3 10L4 10L4 9ZM12 9L12 10L13 10L13 9ZM17 9L17 10L18 10L18 11L17 11L17 12L18 12L18 11L20 11L20 10L18 10L18 9ZM30 10L30 11L31 11L31 10ZM13 14L13 15L14 15L14 14ZM16 14L16 15L17 15L17 16L18 16L18 17L19 17L19 16L20 16L20 14L19 14L19 15L18 15L18 14ZM10 15L10 16L12 16L12 15ZM6 16L6 17L7 17L7 18L8 18L8 17L7 17L7 16ZM13 18L13 19L12 19L12 20L13 20L13 19L14 19L14 18ZM27 19L27 21L29 21L29 20L28 20L28 19ZM20 20L20 21L22 21L22 20ZM12 22L12 23L13 23L13 22ZM6 23L6 24L7 24L7 23ZM10 24L10 25L11 25L11 24ZM25 25L25 28L28 28L28 25ZM26 26L26 27L27 27L27 26ZM30 26L30 27L31 27L31 26ZM18 27L18 28L19 28L19 27ZM8 28L8 33L10 33L10 32L9 32L9 28ZM22 28L22 29L23 29L23 28ZM10 29L10 31L11 31L11 29ZM0 0L0 7L7 7L7 0ZM1 1L1 6L6 6L6 1ZM2 2L2 5L5 5L5 2ZM26 0L26 7L33 7L33 0ZM27 1L27 6L32 6L32 1ZM28 2L28 5L31 5L31 2ZM0 26L0 33L7 33L7 26ZM1 27L1 32L6 32L6 27ZM2 28L2 31L5 31L5 28Z" fill="#000000"/></g></g></svg>
