<?xml version="1.0" encoding="UTF-8"?>
<svg xmlns="http://www.w3.org/2000/svg" version="1.1" width="80" height="80" viewBox="0 0 80 80"><rect x="0" y="0" width="80" height="80" fill="#ffffff"/><g transform="scale(2.162)"><g transform="translate(0,0)"><path fill-rule="evenodd" d="M8 0L8 4L9 4L9 5L8 5L8 7L9 7L9 6L10 6L10 9L9 9L9 12L8 12L8 14L9 14L9 15L8 15L8 16L6 16L6 15L7 15L7 14L4 14L4 15L5 15L5 18L4 18L4 17L3 17L3 19L2 19L2 16L1 16L1 14L2 14L2 13L7 13L7 12L6 12L6 11L7 11L7 10L8 10L8 9L7 9L7 8L4 8L4 10L3 10L3 12L2 12L2 13L1 13L1 11L2 11L2 10L1 10L1 9L2 9L2 8L0 8L0 10L1 10L1 11L0 11L0 13L1 13L1 14L0 14L0 17L1 17L1 19L2 19L2 20L1 20L1 21L2 21L2 22L0 22L0 23L1 23L1 24L0 24L0 26L1 26L1 24L2 24L2 25L3 25L3 27L2 27L2 28L0 28L0 29L2 29L2 28L3 28L3 27L4 27L4 24L5 24L5 25L7 25L7 26L5 26L5 28L4 28L4 29L5 29L5 28L6 28L6 29L7 29L7 28L8 28L8 30L11 30L11 31L10 31L10 32L9 32L9 31L8 31L8 33L9 33L9 35L8 35L8 37L10 37L10 36L9 36L9 35L11 35L11 32L12 32L12 33L13 33L13 34L15 34L15 35L14 35L14 36L13 36L13 35L12 35L12 36L11 36L11 37L12 37L12 36L13 36L13 37L19 37L19 36L20 36L20 37L21 37L21 36L22 36L22 37L25 37L25 35L26 35L26 36L27 36L27 37L28 37L28 36L27 36L27 35L31 35L31 36L29 36L29 37L33 37L33 35L32 35L32 34L31 34L31 33L33 33L33 34L34 34L34 37L37 37L37 36L36 36L36 35L35 35L35 34L34 34L34 33L36 33L36 34L37 34L37 33L36 33L36 32L37 32L37 31L36 31L36 32L35 32L35 30L34 30L34 29L35 29L35 28L36 28L36 27L34 27L34 29L33 29L33 28L31 28L31 27L28 27L28 26L30 26L30 25L31 25L31 24L32 24L32 22L33 22L33 21L32 21L32 20L33 20L33 19L32 19L32 18L36 18L36 17L37 17L37 16L36 16L36 15L33 15L33 14L36 14L36 13L37 13L37 11L36 11L36 9L37 9L37 8L33 8L33 9L32 9L32 8L31 8L31 10L30 10L30 11L29 11L29 9L25 9L25 6L26 6L26 8L29 8L29 4L28 4L28 3L29 3L29 2L28 2L28 3L25 3L25 4L26 4L26 5L24 5L24 4L23 4L23 5L24 5L24 9L23 9L23 8L22 8L22 7L23 7L23 6L22 6L22 7L21 7L21 6L20 6L20 4L21 4L21 3L22 3L22 1L21 1L21 3L20 3L20 4L19 4L19 3L18 3L18 2L17 2L17 3L18 3L18 5L19 5L19 6L18 6L18 7L17 7L17 5L16 5L16 7L15 7L15 6L14 6L14 7L13 7L13 6L12 6L12 7L11 7L11 3L10 3L10 2L9 2L9 0ZM13 0L13 1L11 1L11 2L12 2L12 5L13 5L13 2L14 2L14 3L15 3L15 2L16 2L16 1L17 1L17 0L16 0L16 1L15 1L15 0ZM19 0L19 2L20 2L20 0ZM23 0L23 1L24 1L24 0ZM25 0L25 2L26 2L26 0ZM27 0L27 1L29 1L29 0ZM23 2L23 3L24 3L24 2ZM27 5L27 7L28 7L28 5ZM19 6L19 7L18 7L18 8L15 8L15 7L14 7L14 9L15 9L15 10L13 10L13 9L12 9L12 8L13 8L13 7L12 7L12 8L11 8L11 9L10 9L10 10L11 10L11 11L10 11L10 12L9 12L9 13L10 13L10 15L9 15L9 16L8 16L8 17L6 17L6 18L5 18L5 21L3 21L3 20L2 20L2 21L3 21L3 22L2 22L2 23L3 23L3 24L4 24L4 22L5 22L5 21L6 21L6 22L7 22L7 21L8 21L8 23L6 23L6 24L7 24L7 25L8 25L8 26L7 26L7 27L6 27L6 28L7 28L7 27L9 27L9 28L12 28L12 29L11 29L11 30L12 30L12 29L13 29L13 30L16 30L16 32L17 32L17 33L16 33L16 36L17 36L17 34L18 34L18 35L21 35L21 34L22 34L22 36L24 36L24 35L25 35L25 34L26 34L26 33L27 33L27 34L28 34L28 29L27 29L27 27L26 27L26 26L27 26L27 25L29 25L29 24L30 24L30 22L32 22L32 21L30 21L30 20L29 20L29 23L27 23L27 22L25 22L25 21L27 21L27 16L26 16L26 15L27 15L27 14L26 14L26 13L28 13L28 12L26 12L26 11L27 11L27 10L26 10L26 11L24 11L24 12L25 12L25 13L24 13L24 15L25 15L25 16L23 16L23 13L21 13L21 12L20 12L20 10L22 10L22 11L23 11L23 10L22 10L22 9L21 9L21 7L20 7L20 6ZM6 9L6 10L4 10L4 12L5 12L5 11L6 11L6 10L7 10L7 9ZM16 9L16 11L17 11L17 12L15 12L15 11L14 11L14 12L13 12L13 11L12 11L12 12L10 12L10 13L12 13L12 14L11 14L11 15L10 15L10 16L12 16L12 17L13 17L13 18L15 18L15 17L14 17L14 15L15 15L15 16L17 16L17 17L16 17L16 19L17 19L17 20L15 20L15 19L14 19L14 20L13 20L13 19L12 19L12 20L11 20L11 19L10 19L10 18L11 18L11 17L10 17L10 18L9 18L9 20L11 20L11 21L9 21L9 23L11 23L11 24L12 24L12 25L13 25L13 26L15 26L15 25L14 25L14 23L15 23L15 24L17 24L17 25L16 25L16 27L17 27L17 28L18 28L18 27L19 27L19 26L20 26L20 25L22 25L22 26L21 26L21 27L20 27L20 28L19 28L19 29L21 29L21 31L20 31L20 32L19 32L19 33L18 33L18 34L20 34L20 33L22 33L22 34L23 34L23 35L24 35L24 34L25 34L25 30L24 30L24 29L25 29L25 28L24 28L24 29L23 29L23 27L25 27L25 26L26 26L26 25L25 25L25 22L24 22L24 21L23 21L23 20L22 20L22 19L21 19L21 18L22 18L22 14L21 14L21 17L20 17L20 16L19 16L19 15L18 15L18 14L17 14L17 15L16 15L16 14L13 14L13 13L17 13L17 12L19 12L19 14L20 14L20 12L19 12L19 11L17 11L17 9ZM18 9L18 10L19 10L19 9ZM24 9L24 10L25 10L25 9ZM33 9L33 10L32 10L32 13L29 13L29 14L28 14L28 19L30 19L30 18L32 18L32 17L34 17L34 16L33 16L33 15L29 15L29 14L32 14L32 13L34 13L34 12L33 12L33 10L34 10L34 11L35 11L35 13L36 13L36 11L35 11L35 10L34 10L34 9ZM12 12L12 13L13 13L13 12ZM12 15L12 16L13 16L13 15ZM18 16L18 17L19 17L19 18L17 18L17 19L18 19L18 21L13 21L13 20L12 20L12 21L11 21L11 22L12 22L12 21L13 21L13 22L16 22L16 23L18 23L18 21L19 21L19 20L20 20L20 22L19 22L19 23L20 23L20 24L21 24L21 22L22 22L22 20L21 20L21 19L20 19L20 17L19 17L19 16ZM29 16L29 17L31 17L31 16ZM35 16L35 17L36 17L36 16ZM23 17L23 19L24 19L24 17ZM25 17L25 18L26 18L26 17ZM6 18L6 19L7 19L7 20L6 20L6 21L7 21L7 20L8 20L8 18ZM31 19L31 20L32 20L32 19ZM34 19L34 21L35 21L35 22L36 22L36 21L37 21L37 20L36 20L36 19ZM12 23L12 24L13 24L13 23ZM22 23L22 25L24 25L24 26L25 26L25 25L24 25L24 24L23 24L23 23ZM26 23L26 24L27 24L27 23ZM34 23L34 25L32 25L32 27L33 27L33 26L36 26L36 25L37 25L37 24L36 24L36 23ZM8 24L8 25L9 25L9 26L10 26L10 27L11 27L11 25L10 25L10 24ZM17 25L17 26L19 26L19 25ZM12 27L12 28L13 28L13 29L16 29L16 28L15 28L15 27L14 27L14 28L13 28L13 27ZM21 28L21 29L22 29L22 33L23 33L23 29L22 29L22 28ZM26 29L26 30L27 30L27 29ZM29 29L29 32L32 32L32 29ZM30 30L30 31L31 31L31 30ZM12 31L12 32L13 32L13 31ZM14 31L14 33L15 33L15 31ZM17 31L17 32L18 32L18 31ZM26 31L26 32L27 32L27 31ZM33 31L33 33L34 33L34 31ZM0 0L0 7L7 7L7 0ZM1 1L1 6L6 6L6 1ZM2 2L2 5L5 5L5 2ZM30 0L30 7L37 7L37 0ZM31 1L31 6L36 6L36 1ZM32 2L32 5L35 5L35 2ZM0 30L0 37L7 37L7 30ZM1 31L1 36L6 36L6 31ZM2 32L2 35L5 35L5 32Z" fill="#000000"/></g></g></svg>
