<?xml version="1.0" encoding="UTF-8"?>
<svg xmlns="http://www.w3.org/2000/svg" version="1.1" width="80" height="80" viewBox="0 0 80 80"><rect x="0" y="0" width="80" height="80" fill="#ffffff"/><g transform="scale(2.424)"><g transform="translate(0,0)"><path fill-rule="evenodd" d="M8 0L8 1L9 1L9 0ZM12 0L12 1L14 1L14 2L13 2L13 3L15 3L15 1L16 1L16 0ZM17 0L17 1L18 1L18 0ZM10 1L10 2L9 2L9 3L10 3L10 4L12 4L12 5L11 5L11 6L10 6L10 5L9 5L9 6L8 6L8 8L9 8L9 9L8 9L8 10L6 10L6 9L7 9L7 8L6 8L6 9L5 9L5 8L3 8L3 10L2 10L2 8L0 8L0 9L1 9L1 10L0 10L0 11L1 11L1 12L2 12L2 14L3 14L3 17L2 17L2 16L0 16L0 19L1 19L1 21L0 21L0 25L2 25L2 24L3 24L3 25L7 25L7 24L5 24L5 23L7 23L7 22L6 22L6 21L8 21L8 22L9 22L9 21L10 21L10 22L11 22L11 25L10 25L10 23L8 23L8 26L9 26L9 25L10 25L10 28L8 28L8 30L9 30L9 31L8 31L8 33L10 33L10 32L12 32L12 28L13 28L13 30L14 30L14 31L13 31L13 32L14 32L14 33L15 33L15 32L16 32L16 33L21 33L21 32L20 32L20 31L22 31L22 32L24 32L24 33L26 33L26 32L27 32L27 33L29 33L29 32L33 32L33 30L32 30L32 31L29 31L29 30L31 30L31 29L32 29L32 28L33 28L33 27L32 27L32 28L31 28L31 27L30 27L30 24L31 24L31 26L32 26L32 24L31 24L31 23L33 23L33 22L32 22L32 21L31 21L31 22L30 22L30 21L28 21L28 20L33 20L33 15L32 15L32 16L31 16L31 15L30 15L30 12L31 12L31 13L33 13L33 12L31 12L31 11L30 11L30 10L29 10L29 9L27 9L27 8L26 8L26 9L25 9L25 6L24 6L24 5L23 5L23 6L22 6L22 8L23 8L23 9L22 9L22 10L23 10L23 11L24 11L24 12L23 12L23 14L24 14L24 12L25 12L25 13L27 13L27 14L25 14L25 15L27 15L27 16L26 16L26 17L25 17L25 16L22 16L22 17L21 17L21 16L19 16L19 17L17 17L17 16L15 16L15 15L16 15L16 14L18 14L18 15L21 15L21 14L22 14L22 13L21 13L21 12L20 12L20 11L17 11L17 10L16 10L16 9L18 9L18 10L20 10L20 7L21 7L21 5L20 5L20 4L18 4L18 3L19 3L19 2L21 2L21 4L23 4L23 3L24 3L24 4L25 4L25 3L24 3L24 2L25 2L25 1L24 1L24 2L23 2L23 3L22 3L22 2L21 2L21 1L19 1L19 2L18 2L18 3L17 3L17 4L15 4L15 5L16 5L16 7L15 7L15 6L14 6L14 7L13 7L13 6L12 6L12 5L13 5L13 4L12 4L12 3L10 3L10 2L11 2L11 1ZM17 4L17 5L18 5L18 4ZM19 5L19 7L18 7L18 6L17 6L17 7L16 7L16 8L15 8L15 7L14 7L14 8L12 8L12 6L11 6L11 7L10 7L10 6L9 6L9 7L10 7L10 9L9 9L9 10L8 10L8 11L6 11L6 10L5 10L5 9L4 9L4 10L3 10L3 11L2 11L2 10L1 10L1 11L2 11L2 12L3 12L3 13L4 13L4 15L5 15L5 16L4 16L4 17L5 17L5 18L2 18L2 17L1 17L1 18L2 18L2 21L3 21L3 22L4 22L4 23L3 23L3 24L4 24L4 23L5 23L5 21L4 21L4 20L5 20L5 18L7 18L7 19L6 19L6 20L8 20L8 18L7 18L7 17L8 17L8 16L9 16L9 18L10 18L10 19L9 19L9 20L10 20L10 19L11 19L11 15L12 15L12 16L13 16L13 17L12 17L12 18L13 18L13 19L12 19L12 20L11 20L11 22L12 22L12 25L11 25L11 27L12 27L12 26L13 26L13 24L14 24L14 26L15 26L15 24L16 24L16 27L15 27L15 28L14 28L14 27L13 27L13 28L14 28L14 30L16 30L16 31L17 31L17 32L19 32L19 30L18 30L18 31L17 31L17 29L19 29L19 28L20 28L20 27L19 27L19 26L21 26L21 25L22 25L22 27L21 27L21 30L22 30L22 31L23 31L23 30L22 30L22 27L23 27L23 28L24 28L24 27L23 27L23 26L24 26L24 24L27 24L27 23L26 23L26 22L27 22L27 20L28 20L28 19L27 19L27 18L26 18L26 19L27 19L27 20L26 20L26 22L25 22L25 19L24 19L24 20L22 20L22 19L23 19L23 18L25 18L25 17L23 17L23 18L22 18L22 19L18 19L18 18L16 18L16 19L14 19L14 18L15 18L15 16L14 16L14 15L15 15L15 14L16 14L16 13L19 13L19 14L21 14L21 13L19 13L19 12L16 12L16 11L13 11L13 9L14 9L14 8L15 8L15 9L16 9L16 8L18 8L18 9L19 9L19 7L20 7L20 5ZM23 6L23 8L24 8L24 6ZM32 8L32 9L31 9L31 10L32 10L32 11L33 11L33 10L32 10L32 9L33 9L33 8ZM10 9L10 10L9 10L9 11L8 11L8 12L6 12L6 11L5 11L5 10L4 10L4 11L3 11L3 12L4 12L4 13L5 13L5 15L7 15L7 16L5 16L5 17L7 17L7 16L8 16L8 13L9 13L9 14L10 14L10 15L11 15L11 13L12 13L12 12L13 12L13 14L14 14L14 12L13 12L13 11L12 11L12 10L11 10L11 9ZM24 9L24 10L25 10L25 9ZM26 9L26 10L27 10L27 11L25 11L25 12L27 12L27 13L28 13L28 14L27 14L27 15L28 15L28 16L30 16L30 17L29 17L29 19L32 19L32 18L31 18L31 16L30 16L30 15L29 15L29 12L28 12L28 10L27 10L27 9ZM10 10L10 11L9 11L9 12L11 12L11 10ZM4 11L4 12L5 12L5 11ZM15 12L15 13L16 13L16 12ZM6 13L6 14L7 14L7 13ZM20 17L20 18L21 18L21 17ZM3 19L3 20L4 20L4 19ZM13 19L13 20L12 20L12 21L13 21L13 23L14 23L14 22L15 22L15 23L16 23L16 24L18 24L18 23L19 23L19 24L20 24L20 25L21 25L21 23L22 23L22 24L23 24L23 23L24 23L24 21L23 21L23 23L22 23L22 22L21 22L21 23L19 23L19 22L20 22L20 21L18 21L18 20L17 20L17 19L16 19L16 21L18 21L18 22L17 22L17 23L16 23L16 22L15 22L15 20L14 20L14 19ZM1 22L1 24L2 24L2 22ZM28 22L28 24L30 24L30 23L29 23L29 22ZM25 25L25 28L28 28L28 25ZM26 26L26 27L27 27L27 26ZM16 27L16 28L15 28L15 29L17 29L17 27ZM18 27L18 28L19 28L19 27ZM10 28L10 29L9 29L9 30L11 30L11 28ZM30 28L30 29L31 29L31 28ZM25 29L25 31L24 31L24 32L25 32L25 31L28 31L28 32L29 32L29 31L28 31L28 30L29 30L29 29ZM14 31L14 32L15 32L15 31ZM0 0L0 7L7 7L7 0ZM1 1L1 6L6 6L6 1ZM2 2L2 5L5 5L5 2ZM26 0L26 7L33 7L33 0ZM27 1L27 6L32 6L32 1ZM28 2L28 5L31 5L31 2ZM0 26L0 33L7 33L7 26ZM1 27L1 32L6 32L6 27ZM2 28L2 31L5 31L5 28Z" fill="#000000"/></g></g></svg>
