<?xml version="1.0" encoding="UTF-8"?>
<svg xmlns="http://www.w3.org/2000/svg" version="1.1" width="80" height="80" viewBox="0 0 80 80"><rect x="0" y="0" width="80" height="80" fill="#ffffff"/><g transform="scale(2.162)"><g transform="translate(0,0)"><path fill-rule="evenodd" d="M8 0L8 2L9 2L9 3L10 3L10 2L9 2L9 1L11 1L11 2L12 2L12 0ZM13 0L13 1L15 1L15 2L16 2L16 0ZM17 0L17 1L18 1L18 2L17 2L17 3L15 3L15 5L13 5L13 3L14 3L14 2L13 2L13 3L11 3L11 5L9 5L9 4L8 4L8 9L7 9L7 8L5 8L5 9L4 9L4 10L3 10L3 13L2 13L2 9L3 9L3 8L0 8L0 9L1 9L1 10L0 10L0 11L1 11L1 12L0 12L0 13L1 13L1 14L0 14L0 17L1 17L1 14L2 14L2 15L3 15L3 16L2 16L2 18L1 18L1 19L0 19L0 21L1 21L1 22L0 22L0 25L1 25L1 26L0 26L0 27L2 27L2 26L3 26L3 27L4 27L4 29L5 29L5 27L7 27L7 28L6 28L6 29L7 29L7 28L8 28L8 27L10 27L10 28L9 28L9 29L8 29L8 30L9 30L9 31L8 31L8 32L9 32L9 31L12 31L12 30L11 30L11 29L10 29L10 28L13 28L13 30L15 30L15 31L16 31L16 32L17 32L17 33L18 33L18 34L17 34L17 35L16 35L16 33L15 33L15 34L13 34L13 33L14 33L14 31L13 31L13 32L10 32L10 34L8 34L8 37L9 37L9 35L10 35L10 36L13 36L13 37L15 37L15 35L16 35L16 36L17 36L17 35L18 35L18 37L20 37L20 36L19 36L19 35L20 35L20 34L21 34L21 35L22 35L22 36L21 36L21 37L22 37L22 36L24 36L24 37L25 37L25 34L26 34L26 33L25 33L25 31L26 31L26 32L27 32L27 33L28 33L28 34L27 34L27 35L26 35L26 36L28 36L28 37L29 37L29 36L30 36L30 37L32 37L32 36L30 36L30 33L32 33L32 35L33 35L33 37L34 37L34 35L35 35L35 33L34 33L34 31L35 31L35 32L37 32L37 29L36 29L36 28L35 28L35 29L36 29L36 31L35 31L35 30L34 30L34 31L33 31L33 29L34 29L34 27L31 27L31 26L32 26L32 25L31 25L31 23L29 23L29 21L30 21L30 22L32 22L32 21L31 21L31 20L32 20L32 19L33 19L33 22L36 22L36 23L37 23L37 20L36 20L36 21L34 21L34 19L35 19L35 18L36 18L36 19L37 19L37 16L35 16L35 17L34 17L34 15L32 15L32 14L31 14L31 12L29 12L29 13L28 13L28 12L27 12L27 11L32 11L32 12L33 12L33 14L35 14L35 15L37 15L37 13L36 13L36 12L37 12L37 8L35 8L35 9L33 9L33 8L27 8L27 6L26 6L26 8L27 8L27 10L26 10L26 12L27 12L27 14L26 14L26 13L25 13L25 12L24 12L24 13L23 13L23 15L22 15L22 14L21 14L21 13L20 13L20 11L22 11L22 10L23 10L23 11L24 11L24 10L25 10L25 6L24 6L24 7L23 7L23 6L22 6L22 8L23 8L23 9L22 9L22 10L21 10L21 8L20 8L20 7L21 7L21 5L23 5L23 4L24 4L24 3L25 3L25 4L26 4L26 5L27 5L27 1L26 1L26 0L25 0L25 1L24 1L24 2L23 2L23 3L22 3L22 1L23 1L23 0L21 0L21 5L20 5L20 3L19 3L19 1L20 1L20 0L19 0L19 1L18 1L18 0ZM25 1L25 2L26 2L26 1ZM28 2L28 4L29 4L29 2ZM17 4L17 5L18 5L18 6L17 6L17 7L16 7L16 5L15 5L15 7L14 7L14 6L13 6L13 7L12 7L12 5L11 5L11 7L10 7L10 6L9 6L9 7L10 7L10 9L9 9L9 10L8 10L8 11L9 11L9 13L8 13L8 12L7 12L7 11L6 11L6 10L7 10L7 9L6 9L6 10L4 10L4 11L5 11L5 12L7 12L7 13L3 13L3 15L5 15L5 16L7 16L7 17L4 17L4 20L5 20L5 18L7 18L7 17L8 17L8 18L9 18L9 19L8 19L8 21L6 21L6 22L7 22L7 23L5 23L5 22L4 22L4 21L3 21L3 22L2 22L2 25L4 25L4 27L5 27L5 25L4 25L4 23L5 23L5 24L7 24L7 25L6 25L6 26L10 26L10 27L12 27L12 25L11 25L11 24L13 24L13 23L14 23L14 25L13 25L13 26L15 26L15 27L16 27L16 25L15 25L15 24L18 24L18 25L17 25L17 28L18 28L18 29L16 29L16 28L15 28L15 30L16 30L16 31L17 31L17 32L18 32L18 33L20 33L20 32L21 32L21 34L22 34L22 35L23 35L23 34L22 34L22 31L23 31L23 33L24 33L24 34L25 34L25 33L24 33L24 31L25 31L25 30L24 30L24 31L23 31L23 27L21 27L21 28L20 28L20 29L19 29L19 28L18 28L18 27L19 27L19 26L20 26L20 25L19 25L19 22L20 22L20 24L21 24L21 26L22 26L22 23L21 23L21 22L22 22L22 21L23 21L23 20L22 20L22 19L23 19L23 17L22 17L22 15L20 15L20 16L19 16L19 15L18 15L18 13L19 13L19 14L20 14L20 13L19 13L19 12L18 12L18 11L19 11L19 10L20 10L20 9L19 9L19 8L18 8L18 6L19 6L19 7L20 7L20 5L18 5L18 4ZM28 5L28 7L29 7L29 5ZM13 7L13 8L11 8L11 9L12 9L12 11L10 11L10 10L9 10L9 11L10 11L10 12L13 12L13 14L15 14L15 15L16 15L16 14L15 14L15 12L17 12L17 13L18 13L18 12L17 12L17 8L15 8L15 9L16 9L16 11L15 11L15 10L13 10L13 9L14 9L14 7ZM18 9L18 10L19 10L19 9ZM31 9L31 10L33 10L33 12L34 12L34 13L35 13L35 12L36 12L36 11L35 11L35 10L36 10L36 9L35 9L35 10L33 10L33 9ZM13 11L13 12L14 12L14 11ZM9 13L9 14L8 14L8 15L7 15L7 14L5 14L5 15L7 15L7 16L9 16L9 17L10 17L10 20L13 20L13 22L15 22L15 23L16 23L16 22L15 22L15 20L17 20L17 21L18 21L18 20L19 20L19 21L20 21L20 22L21 22L21 21L22 21L22 20L21 20L21 21L20 21L20 20L19 20L19 19L20 19L20 18L22 18L22 17L21 17L21 16L20 16L20 17L18 17L18 16L15 16L15 17L16 17L16 19L15 19L15 18L13 18L13 17L14 17L14 15L13 15L13 16L10 16L10 14L11 14L11 15L12 15L12 14L11 14L11 13ZM28 14L28 15L27 15L27 16L26 16L26 15L25 15L25 16L24 16L24 15L23 15L23 16L24 16L24 17L25 17L25 18L26 18L26 17L28 17L28 19L24 19L24 21L25 21L25 22L24 22L24 23L23 23L23 24L24 24L24 23L25 23L25 26L24 26L24 28L25 28L25 29L26 29L26 30L27 30L27 31L28 31L28 28L30 28L30 26L28 26L28 27L27 27L27 26L26 26L26 25L27 25L27 24L26 24L26 23L25 23L25 22L27 22L27 21L29 21L29 20L31 20L31 19L29 19L29 17L28 17L28 15L29 15L29 16L31 16L31 18L33 18L33 16L32 16L32 15L29 15L29 14ZM11 17L11 19L12 19L12 17ZM17 17L17 18L18 18L18 19L17 19L17 20L18 20L18 19L19 19L19 18L18 18L18 17ZM1 19L1 21L2 21L2 19ZM6 19L6 20L7 20L7 19ZM13 19L13 20L14 20L14 19ZM8 21L8 23L9 23L9 24L10 24L10 23L12 23L12 22L11 22L11 21L10 21L10 22L9 22L9 21ZM3 22L3 23L4 23L4 22ZM33 23L33 25L34 25L34 23ZM29 24L29 25L30 25L30 24ZM36 24L36 25L35 25L35 26L36 26L36 27L37 27L37 24ZM25 26L25 27L26 27L26 26ZM13 27L13 28L14 28L14 27ZM0 28L0 29L3 29L3 28ZM21 28L21 29L20 29L20 30L19 30L19 29L18 29L18 30L17 30L17 31L18 31L18 32L20 32L20 31L22 31L22 28ZM29 29L29 32L32 32L32 29ZM30 30L30 31L31 31L31 30ZM11 33L11 35L12 35L12 33ZM36 34L36 35L37 35L37 34ZM13 35L13 36L14 36L14 35ZM36 36L36 37L37 37L37 36ZM0 0L0 7L7 7L7 0ZM1 1L1 6L6 6L6 1ZM2 2L2 5L5 5L5 2ZM30 0L30 7L37 7L37 0ZM31 1L31 6L36 6L36 1ZM32 2L32 5L35 5L35 2ZM0 30L0 37L7 37L7 30ZM1 31L1 36L6 36L6 31ZM2 32L2 35L5 35L5 32Z" fill="#000000"/></g></g></svg>
