<?xml version="1.0" encoding="UTF-8"?>
<svg xmlns="http://www.w3.org/2000/svg" version="1.1" width="80" height="80" viewBox="0 0 80 80"><rect x="0" y="0" width="80" height="80" fill="#ffffff"/><g transform="scale(2.424)"><g transform="translate(0,0)"><path fill-rule="evenodd" d="M8 0L8 4L9 4L9 5L8 5L8 7L9 7L9 6L10 6L10 9L11 9L11 8L12 8L12 7L13 7L13 6L14 6L14 8L13 8L13 10L9 10L9 12L8 12L8 13L9 13L9 12L10 12L10 11L11 11L11 12L12 12L12 11L13 11L13 10L14 10L14 11L16 11L16 14L14 14L14 12L13 12L13 14L14 14L14 17L13 17L13 18L12 18L12 14L11 14L11 13L10 13L10 14L11 14L11 16L10 16L10 17L11 17L11 18L10 18L10 19L13 19L13 18L14 18L14 17L15 17L15 21L14 21L14 20L12 20L12 21L10 21L10 22L9 22L9 23L7 23L7 22L6 22L6 23L5 23L5 21L7 21L7 20L8 20L8 21L9 21L9 20L8 20L8 19L9 19L9 16L8 16L8 15L7 15L7 14L6 14L6 15L7 15L7 16L5 16L5 15L4 15L4 16L5 16L5 18L4 18L4 17L3 17L3 16L2 16L2 11L3 11L3 12L4 12L4 13L3 13L3 14L5 14L5 13L7 13L7 12L6 12L6 11L7 11L7 10L8 10L8 9L7 9L7 8L4 8L4 9L3 9L3 10L2 10L2 8L0 8L0 9L1 9L1 10L0 10L0 11L1 11L1 14L0 14L0 17L1 17L1 19L0 19L0 22L1 22L1 21L4 21L4 24L0 24L0 25L5 25L5 24L6 24L6 25L7 25L7 24L8 24L8 26L9 26L9 25L11 25L11 24L12 24L12 25L13 25L13 26L14 26L14 28L13 28L13 30L11 30L11 29L10 29L10 28L9 28L9 27L8 27L8 29L9 29L9 31L8 31L8 33L11 33L11 32L13 32L13 30L14 30L14 28L16 28L16 30L15 30L15 31L14 31L14 33L16 33L16 32L15 32L15 31L16 31L16 30L17 30L17 33L20 33L20 32L21 32L21 33L25 33L25 30L24 30L24 31L23 31L23 32L22 32L22 30L21 30L21 31L20 31L20 32L19 32L19 29L18 29L18 27L19 27L19 26L17 26L17 27L16 27L16 25L18 25L18 24L20 24L20 25L21 25L21 26L20 26L20 27L21 27L21 28L20 28L20 29L23 29L23 28L24 28L24 29L26 29L26 33L28 33L28 32L29 32L29 30L30 30L30 31L32 31L32 30L33 30L33 29L31 29L31 30L30 30L30 29L29 29L29 22L30 22L30 23L32 23L32 22L30 22L30 21L29 21L29 20L30 20L30 19L32 19L32 18L30 18L30 17L29 17L29 16L30 16L30 15L32 15L32 14L29 14L29 15L28 15L28 13L30 13L30 11L32 11L32 10L31 10L31 9L33 9L33 8L29 8L29 9L30 9L30 11L29 11L29 10L28 10L28 8L27 8L27 10L26 10L26 9L25 9L25 8L24 8L24 7L25 7L25 6L24 6L24 7L23 7L23 5L24 5L24 3L25 3L25 1L24 1L24 0L21 0L21 1L19 1L19 3L18 3L18 2L17 2L17 0L15 0L15 1L13 1L13 0ZM9 1L9 2L10 2L10 3L11 3L11 4L10 4L10 5L11 5L11 7L12 7L12 6L13 6L13 5L14 5L14 6L15 6L15 7L16 7L16 8L14 8L14 10L16 10L16 9L17 9L17 11L18 11L18 13L19 13L19 14L18 14L18 15L19 15L19 16L18 16L18 17L16 17L16 16L17 16L17 14L16 14L16 16L15 16L15 17L16 17L16 21L15 21L15 22L16 22L16 21L17 21L17 22L18 22L18 23L20 23L20 22L22 22L22 21L20 21L20 20L18 20L18 21L17 21L17 19L21 19L21 18L20 18L20 14L21 14L21 15L22 15L22 16L23 16L23 17L22 17L22 20L23 20L23 21L24 21L24 22L25 22L25 20L24 20L24 19L25 19L25 17L26 17L26 20L27 20L27 21L26 21L26 22L27 22L27 24L28 24L28 22L29 22L29 21L28 21L28 20L27 20L27 19L30 19L30 18L29 18L29 17L28 17L28 18L27 18L27 17L26 17L26 16L25 16L25 17L24 17L24 16L23 16L23 13L24 13L24 14L25 14L25 15L27 15L27 13L26 13L26 12L28 12L28 10L27 10L27 11L26 11L26 10L25 10L25 9L24 9L24 11L22 11L22 10L23 10L23 9L19 9L19 8L20 8L20 6L21 6L21 7L22 7L22 8L23 8L23 7L22 7L22 5L23 5L23 4L22 4L22 3L24 3L24 1L21 1L21 2L20 2L20 3L19 3L19 5L20 5L20 6L19 6L19 8L18 8L18 9L17 9L17 7L18 7L18 5L17 5L17 7L16 7L16 4L18 4L18 3L15 3L15 2L16 2L16 1L15 1L15 2L13 2L13 1L11 1L11 2L10 2L10 1ZM11 2L11 3L12 3L12 4L11 4L11 5L13 5L13 2ZM21 2L21 3L20 3L20 4L21 4L21 5L22 5L22 4L21 4L21 3L22 3L22 2ZM14 3L14 5L15 5L15 3ZM4 9L4 10L3 10L3 11L4 11L4 10L7 10L7 9ZM18 9L18 11L19 11L19 13L21 13L21 14L22 14L22 13L23 13L23 12L22 12L22 11L21 11L21 10L20 10L20 11L19 11L19 9ZM20 11L20 12L21 12L21 11ZM25 11L25 12L26 12L26 11ZM31 12L31 13L33 13L33 12ZM7 16L7 17L6 17L6 18L8 18L8 16ZM32 16L32 17L33 17L33 16ZM18 17L18 18L19 18L19 17ZM23 17L23 19L24 19L24 17ZM2 18L2 19L1 19L1 20L2 20L2 19L3 19L3 18ZM4 19L4 20L5 20L5 19ZM6 19L6 20L7 20L7 19ZM32 20L32 21L33 21L33 20ZM12 21L12 23L13 23L13 24L14 24L14 25L16 25L16 24L14 24L14 21ZM18 21L18 22L19 22L19 21ZM27 21L27 22L28 22L28 21ZM10 22L10 23L9 23L9 24L11 24L11 22ZM6 23L6 24L7 24L7 23ZM23 23L23 24L24 24L24 23ZM25 23L25 24L26 24L26 23ZM31 24L31 25L30 25L30 27L32 27L32 24ZM22 25L22 27L24 27L24 25ZM25 25L25 28L28 28L28 25ZM11 26L11 27L12 27L12 26ZM26 26L26 27L27 27L27 26ZM17 29L17 30L18 30L18 29ZM27 29L27 31L28 31L28 29ZM32 32L32 33L33 33L33 32ZM0 0L0 7L7 7L7 0ZM1 1L1 6L6 6L6 1ZM2 2L2 5L5 5L5 2ZM26 0L26 7L33 7L33 0ZM27 1L27 6L32 6L32 1ZM28 2L28 5L31 5L31 2ZM0 26L0 33L7 33L7 26ZM1 27L1 32L6 32L6 27ZM2 28L2 31L5 31L5 28Z" fill="#000000"/></g></g></svg>
