<?xml version="1.0" encoding="UTF-8"?>
<svg xmlns="http://www.w3.org/2000/svg" version="1.1" width="80" height="80" viewBox="0 0 80 80"><rect x="0" y="0" width="80" height="80" fill="#ffffff"/><g transform="scale(2.424)"><g transform="translate(0,0)"><path fill-rule="evenodd" d="M10 0L10 1L8 1L8 2L9 2L9 3L8 3L8 4L10 4L10 3L11 3L11 5L10 5L10 7L11 7L11 5L13 5L13 6L12 6L12 9L13 9L13 11L14 11L14 9L15 9L15 8L13 8L13 6L14 6L14 7L15 7L15 6L16 6L16 7L17 7L17 6L16 6L16 5L18 5L18 7L19 7L19 5L20 5L20 8L22 8L22 9L18 9L18 8L16 8L16 10L15 10L15 11L16 11L16 12L17 12L17 13L15 13L15 12L12 12L12 11L10 11L10 9L11 9L11 8L6 8L6 9L8 9L8 10L5 10L5 11L4 11L4 10L3 10L3 9L5 9L5 8L0 8L0 10L1 10L1 12L0 12L0 13L1 13L1 14L0 14L0 16L1 16L1 18L0 18L0 25L1 25L1 21L2 21L2 20L3 20L3 22L2 22L2 24L3 24L3 25L5 25L5 24L6 24L6 25L7 25L7 24L6 24L6 23L7 23L7 22L6 22L6 23L5 23L5 24L3 24L3 22L5 22L5 20L3 20L3 19L7 19L7 20L6 20L6 21L7 21L7 20L8 20L8 19L11 19L11 18L13 18L13 17L14 17L14 19L16 19L16 20L17 20L17 21L15 21L15 20L14 20L14 21L13 21L13 22L12 22L12 23L13 23L13 22L14 22L14 25L18 25L18 24L16 24L16 22L17 22L17 21L18 21L18 23L19 23L19 26L20 26L20 27L21 27L21 28L22 28L22 29L20 29L20 28L19 28L19 27L18 27L18 28L16 28L16 27L17 27L17 26L14 26L14 29L13 29L13 28L12 28L12 27L11 27L11 28L10 28L10 27L9 27L9 26L11 26L11 22L9 22L9 21L8 21L8 22L9 22L9 23L8 23L8 27L9 27L9 28L8 28L8 33L11 33L11 30L10 30L10 29L13 29L13 30L12 30L12 31L13 31L13 30L14 30L14 32L13 32L13 33L14 33L14 32L15 32L15 31L16 31L16 32L17 32L17 33L19 33L19 32L17 32L17 29L18 29L18 30L21 30L21 31L20 31L20 33L21 33L21 32L22 32L22 33L26 33L26 32L28 32L28 31L27 31L27 30L29 30L29 32L31 32L31 33L32 33L32 32L31 32L31 31L32 31L32 30L31 30L31 31L30 31L30 29L29 29L29 28L31 28L31 29L33 29L33 28L31 28L31 27L32 27L32 26L33 26L33 24L32 24L32 26L31 26L31 25L30 25L30 26L29 26L29 24L31 24L31 23L32 23L32 22L33 22L33 21L32 21L32 20L31 20L31 19L32 19L32 18L33 18L33 17L32 17L32 16L31 16L31 15L32 15L32 14L33 14L33 13L31 13L31 15L30 15L30 16L31 16L31 19L30 19L30 17L29 17L29 16L28 16L28 15L29 15L29 14L27 14L27 13L26 13L26 11L27 11L27 9L28 9L28 8L27 8L27 9L26 9L26 8L25 8L25 6L24 6L24 8L23 8L23 5L24 5L24 4L25 4L25 3L24 3L24 2L25 2L25 1L24 1L24 0L22 0L22 1L21 1L21 0L19 0L19 1L21 1L21 3L20 3L20 2L18 2L18 3L17 3L17 4L16 4L16 3L15 3L15 2L17 2L17 1L15 1L15 0L14 0L14 1L13 1L13 0ZM11 1L11 3L12 3L12 4L14 4L14 5L16 5L16 4L14 4L14 2L15 2L15 1L14 1L14 2L13 2L13 1ZM22 1L22 2L24 2L24 1ZM18 3L18 4L20 4L20 3ZM21 3L21 5L23 5L23 4L24 4L24 3ZM8 5L8 7L9 7L9 5ZM21 6L21 7L22 7L22 6ZM29 8L29 9L30 9L30 10L29 10L29 11L30 11L30 12L28 12L28 13L30 13L30 12L31 12L31 11L32 11L32 10L33 10L33 9L32 9L32 8L31 8L31 9L30 9L30 8ZM1 9L1 10L2 10L2 13L3 13L3 14L7 14L7 15L4 15L4 16L5 16L5 17L4 17L4 18L7 18L7 17L6 17L6 16L8 16L8 17L13 17L13 16L14 16L14 17L15 17L15 16L16 16L16 17L17 17L17 18L16 18L16 19L17 19L17 20L18 20L18 21L19 21L19 19L21 19L21 18L23 18L23 19L24 19L24 20L23 20L23 21L24 21L24 22L22 22L22 24L20 24L20 25L21 25L21 26L24 26L24 25L22 25L22 24L23 24L23 23L24 23L24 24L26 24L26 23L25 23L25 22L26 22L26 21L27 21L27 24L29 24L29 21L30 21L30 23L31 23L31 20L30 20L30 19L28 19L28 18L29 18L29 17L28 17L28 16L26 16L26 17L24 17L24 16L25 16L25 15L27 15L27 14L25 14L25 12L23 12L23 13L22 13L22 12L21 12L21 11L24 11L24 10L25 10L25 11L26 11L26 9L24 9L24 10L23 10L23 9L22 9L22 10L21 10L21 11L20 11L20 10L18 10L18 9L17 9L17 10L16 10L16 11L17 11L17 12L18 12L18 13L21 13L21 15L22 15L22 14L23 14L23 17L22 17L22 16L20 16L20 14L19 14L19 15L18 15L18 14L16 14L16 15L15 15L15 16L14 16L14 15L13 15L13 14L15 14L15 13L11 13L11 12L10 12L10 13L11 13L11 16L10 16L10 14L9 14L9 13L6 13L6 12L9 12L9 10L8 10L8 11L6 11L6 12L4 12L4 11L3 11L3 10L2 10L2 9ZM17 10L17 11L18 11L18 12L20 12L20 11L18 11L18 10ZM30 10L30 11L31 11L31 10ZM3 12L3 13L4 13L4 12ZM23 13L23 14L24 14L24 13ZM2 15L2 18L1 18L1 20L2 20L2 18L3 18L3 15ZM12 15L12 16L13 16L13 15ZM17 16L17 17L18 17L18 18L17 18L17 19L19 19L19 18L20 18L20 16L19 16L19 17L18 17L18 16ZM23 17L23 18L24 18L24 19L25 19L25 20L26 20L26 18L27 18L27 17L26 17L26 18L24 18L24 17ZM12 19L12 20L13 20L13 19ZM27 19L27 21L29 21L29 20L28 20L28 19ZM20 20L20 21L22 21L22 20ZM14 21L14 22L15 22L15 21ZM19 22L19 23L20 23L20 22ZM9 24L9 25L10 25L10 24ZM25 25L25 28L28 28L28 25ZM26 26L26 27L27 27L27 26ZM30 26L30 27L31 27L31 26ZM22 27L22 28L23 28L23 29L22 29L22 30L24 30L24 31L23 31L23 32L26 32L26 30L27 30L27 29L26 29L26 30L25 30L25 29L24 29L24 27ZM9 28L9 29L10 29L10 28ZM18 28L18 29L19 29L19 28ZM14 29L14 30L15 30L15 29ZM0 0L0 7L7 7L7 0ZM1 1L1 6L6 6L6 1ZM2 2L2 5L5 5L5 2ZM26 0L26 7L33 7L33 0ZM27 1L27 6L32 6L32 1ZM28 2L28 5L31 5L31 2ZM0 26L0 33L7 33L7 26ZM1 27L1 32L6 32L6 27ZM2 28L2 31L5 31L5 28Z" fill="#000000"/></g></g></svg>
