<?xml version="1.0" encoding="UTF-8"?>
<svg xmlns="http://www.w3.org/2000/svg" version="1.1" width="80" height="80" viewBox="0 0 80 80"><rect x="0" y="0" width="80" height="80" fill="#ffffff"/><g transform="scale(2.162)"><g transform="translate(0,0)"><path fill-rule="evenodd" d="M9 0L9 1L8 1L8 2L9 2L9 3L8 3L8 4L10 4L10 7L11 7L11 4L12 4L12 5L13 5L13 6L12 6L12 9L13 9L13 8L14 8L14 9L15 9L15 10L18 10L18 11L19 11L19 10L20 10L20 12L22 12L22 13L20 13L20 14L21 14L21 16L20 16L20 15L19 15L19 18L21 18L21 16L23 16L23 14L24 14L24 15L25 15L25 14L26 14L26 13L28 13L28 14L27 14L27 15L26 15L26 16L25 16L25 17L26 17L26 18L27 18L27 20L25 20L25 18L24 18L24 17L23 17L23 18L22 18L22 19L18 19L18 20L19 20L19 21L20 21L20 22L21 22L21 24L20 24L20 23L19 23L19 22L18 22L18 21L17 21L17 19L16 19L16 21L12 21L12 19L13 19L13 18L11 18L11 17L9 17L9 18L8 18L8 19L11 19L11 21L10 21L10 20L8 20L8 23L7 23L7 22L6 22L6 21L7 21L7 20L6 20L6 19L7 19L7 18L6 18L6 17L7 17L7 16L8 16L8 14L9 14L9 16L10 16L10 13L9 13L9 12L11 12L11 13L12 13L12 14L13 14L13 15L12 15L12 17L13 17L13 16L14 16L14 17L15 17L15 18L17 18L17 17L16 17L16 15L17 15L17 14L19 14L19 13L17 13L17 11L16 11L16 13L12 13L12 11L13 11L13 10L10 10L10 9L11 9L11 8L6 8L6 9L5 9L5 8L0 8L0 9L1 9L1 11L0 11L0 12L1 12L1 14L2 14L2 12L3 12L3 15L1 15L1 16L0 16L0 17L1 17L1 18L0 18L0 21L2 21L2 22L1 22L1 25L0 25L0 29L1 29L1 26L2 26L2 29L5 29L5 28L3 28L3 27L5 27L5 25L7 25L7 24L10 24L10 25L9 25L9 26L6 26L6 27L7 27L7 28L6 28L6 29L7 29L7 28L8 28L8 31L9 31L9 32L8 32L8 37L10 37L10 36L11 36L11 37L12 37L12 35L13 35L13 34L11 34L11 35L10 35L10 31L9 31L9 30L10 30L10 29L9 29L9 28L11 28L11 29L12 29L12 30L13 30L13 31L12 31L12 33L13 33L13 32L14 32L14 33L15 33L15 32L16 32L16 33L18 33L18 34L15 34L15 35L14 35L14 36L16 36L16 37L20 37L20 36L21 36L21 37L27 37L27 35L28 35L28 36L29 36L29 37L31 37L31 36L33 36L33 37L37 37L37 33L36 33L36 31L37 31L37 30L35 30L35 32L33 32L33 31L34 31L34 30L33 30L33 29L35 29L35 28L28 28L28 27L31 27L31 26L32 26L32 27L33 27L33 26L32 26L32 25L34 25L34 27L36 27L36 28L37 28L37 26L36 26L36 25L37 25L37 22L36 22L36 21L37 21L37 18L36 18L36 17L37 17L37 14L36 14L36 13L37 13L37 12L36 12L36 11L37 11L37 10L36 10L36 8L35 8L35 9L34 9L34 8L33 8L33 12L32 12L32 10L31 10L31 12L28 12L28 10L29 10L29 11L30 11L30 10L29 10L29 9L30 9L30 8L29 8L29 9L28 9L28 7L29 7L29 3L25 3L25 2L24 2L24 3L23 3L23 2L19 2L19 4L17 4L17 2L16 2L16 4L12 4L12 2L13 2L13 1L11 1L11 2L10 2L10 0ZM15 0L15 1L17 1L17 0ZM20 0L20 1L22 1L22 0ZM23 0L23 1L24 1L24 0ZM26 0L26 2L28 2L28 1L29 1L29 0L28 0L28 1L27 1L27 0ZM14 2L14 3L15 3L15 2ZM10 3L10 4L11 4L11 3ZM20 3L20 4L19 4L19 5L17 5L17 4L16 4L16 5L17 5L17 7L16 7L16 6L15 6L15 7L14 7L14 6L13 6L13 7L14 7L14 8L15 8L15 7L16 7L16 9L17 9L17 8L18 8L18 10L19 10L19 9L20 9L20 10L21 10L21 9L22 9L22 8L21 8L21 9L20 9L20 4L22 4L22 6L21 6L21 7L22 7L22 6L23 6L23 7L24 7L24 8L23 8L23 9L24 9L24 10L23 10L23 11L22 11L22 12L24 12L24 11L25 11L25 12L26 12L26 11L27 11L27 10L28 10L28 9L24 9L24 8L26 8L26 6L27 6L27 7L28 7L28 6L27 6L27 5L28 5L28 4L26 4L26 5L25 5L25 4L24 4L24 5L23 5L23 4L22 4L22 3ZM8 5L8 7L9 7L9 5ZM24 5L24 7L25 7L25 5ZM18 6L18 7L19 7L19 6ZM31 8L31 9L32 9L32 8ZM6 9L6 10L7 10L7 9ZM8 9L8 10L9 10L9 11L10 11L10 10L9 10L9 9ZM3 10L3 12L4 12L4 10ZM25 10L25 11L26 11L26 10ZM35 10L35 11L34 11L34 12L35 12L35 13L36 13L36 12L35 12L35 11L36 11L36 10ZM1 11L1 12L2 12L2 11ZM6 11L6 12L7 12L7 11ZM14 11L14 12L15 12L15 11ZM31 12L31 13L29 13L29 15L31 15L31 16L33 16L33 15L34 15L34 16L35 16L35 17L36 17L36 15L34 15L34 13L32 13L32 12ZM6 13L6 14L4 14L4 16L1 16L1 17L2 17L2 18L1 18L1 20L4 20L4 21L3 21L3 23L2 23L2 24L3 24L3 26L4 26L4 25L5 25L5 24L7 24L7 23L4 23L4 22L5 22L5 21L6 21L6 20L4 20L4 18L5 18L5 19L6 19L6 18L5 18L5 17L4 17L4 16L7 16L7 15L6 15L6 14L7 14L7 13ZM16 13L16 14L17 14L17 13ZM22 13L22 14L23 14L23 13ZM24 13L24 14L25 14L25 13ZM31 13L31 15L33 15L33 14L32 14L32 13ZM14 15L14 16L15 16L15 15ZM27 16L27 18L30 18L30 19L28 19L28 20L27 20L27 21L25 21L25 20L23 20L23 21L24 21L24 22L22 22L22 23L23 23L23 24L21 24L21 25L24 25L24 26L22 26L22 28L23 28L23 29L21 29L21 30L20 30L20 26L19 26L19 23L18 23L18 22L17 22L17 21L16 21L16 22L17 22L17 23L16 23L16 25L17 25L17 24L18 24L18 26L15 26L15 25L14 25L14 24L15 24L15 23L14 23L14 24L13 24L13 25L12 25L12 23L13 23L13 22L12 22L12 21L11 21L11 22L10 22L10 21L9 21L9 23L11 23L11 25L10 25L10 26L9 26L9 27L8 27L8 28L9 28L9 27L10 27L10 26L13 26L13 27L12 27L12 29L16 29L16 30L19 30L19 32L18 32L18 31L17 31L17 32L18 32L18 33L19 33L19 34L18 34L18 35L17 35L17 36L19 36L19 35L20 35L20 31L22 31L22 32L26 32L26 31L27 31L27 32L28 32L28 30L27 30L27 29L28 29L28 28L27 28L27 27L26 27L26 25L24 25L24 24L26 24L26 23L27 23L27 24L28 24L28 25L27 25L27 26L28 26L28 25L29 25L29 24L28 24L28 23L29 23L29 22L30 22L30 24L31 24L31 21L32 21L32 24L36 24L36 23L34 23L34 22L35 22L35 21L34 21L34 22L33 22L33 21L32 21L32 19L33 19L33 20L36 20L36 19L34 19L34 17L32 17L32 19L31 19L31 17L29 17L29 16ZM23 18L23 19L24 19L24 18ZM14 19L14 20L15 20L15 19ZM20 20L20 21L21 21L21 20ZM28 20L28 22L27 22L27 23L28 23L28 22L29 22L29 20ZM30 20L30 21L31 21L31 20ZM3 23L3 24L4 24L4 23ZM30 25L30 26L31 26L31 25ZM18 26L18 27L19 27L19 26ZM14 27L14 28L15 28L15 27ZM16 27L16 28L17 28L17 27ZM23 27L23 28L24 28L24 29L23 29L23 30L22 30L22 31L23 31L23 30L24 30L24 29L25 29L25 30L26 30L26 29L27 29L27 28L25 28L25 27ZM29 29L29 32L32 32L32 29ZM30 30L30 31L31 31L31 30ZM14 31L14 32L15 32L15 31ZM22 33L22 34L21 34L21 35L22 35L22 36L23 36L23 35L24 35L24 36L26 36L26 35L24 35L24 34L23 34L23 33ZM26 33L26 34L27 34L27 33ZM33 33L33 34L32 34L32 35L33 35L33 36L36 36L36 35L35 35L35 34L36 34L36 33ZM28 34L28 35L31 35L31 34ZM9 35L9 36L10 36L10 35ZM0 0L0 7L7 7L7 0ZM1 1L1 6L6 6L6 1ZM2 2L2 5L5 5L5 2ZM30 0L30 7L37 7L37 0ZM31 1L31 6L36 6L36 1ZM32 2L32 5L35 5L35 2ZM0 30L0 37L7 37L7 30ZM1 31L1 36L6 36L6 31ZM2 32L2 35L5 35L5 32Z" fill="#000000"/></g></g></svg>
