<?xml version="1.0" encoding="UTF-8"?>
<svg xmlns="http://www.w3.org/2000/svg" version="1.1" width="80" height="80" viewBox="0 0 80 80"><rect x="0" y="0" width="80" height="80" fill="#ffffff"/><g transform="scale(2.162)"><g transform="translate(0,0)"><path fill-rule="evenodd" d="M8 0L8 4L9 4L9 5L8 5L8 7L9 7L9 6L10 6L10 9L8 9L8 11L7 11L7 10L6 10L6 9L7 9L7 8L4 8L4 9L2 9L2 8L0 8L0 11L1 11L1 12L0 12L0 13L1 13L1 14L0 14L0 16L1 16L1 19L2 19L2 21L0 21L0 22L2 22L2 23L1 23L1 25L0 25L0 26L2 26L2 27L4 27L4 28L6 28L6 29L8 29L8 30L9 30L9 31L8 31L8 33L10 33L10 36L11 36L11 37L12 37L12 36L13 36L13 37L19 37L19 36L20 36L20 37L21 37L21 36L22 36L22 37L25 37L25 35L26 35L26 36L27 36L27 37L28 37L28 36L27 36L27 35L31 35L31 36L29 36L29 37L33 37L33 35L32 35L32 34L31 34L31 33L33 33L33 34L34 34L34 37L37 37L37 36L36 36L36 35L35 35L35 34L34 34L34 33L36 33L36 34L37 34L37 33L36 33L36 32L37 32L37 31L36 31L36 32L35 32L35 30L34 30L34 29L35 29L35 28L36 28L36 27L34 27L34 29L33 29L33 28L31 28L31 27L28 27L28 26L30 26L30 25L31 25L31 24L32 24L32 22L33 22L33 21L32 21L32 20L33 20L33 19L32 19L32 18L36 18L36 17L37 17L37 16L36 16L36 15L33 15L33 14L36 14L36 13L37 13L37 11L36 11L36 9L37 9L37 8L33 8L33 9L32 9L32 8L31 8L31 10L30 10L30 11L29 11L29 9L25 9L25 6L26 6L26 8L29 8L29 4L28 4L28 3L29 3L29 2L28 2L28 3L25 3L25 4L26 4L26 5L24 5L24 4L23 4L23 5L24 5L24 9L23 9L23 8L22 8L22 7L23 7L23 6L22 6L22 7L21 7L21 5L20 5L20 3L22 3L22 1L21 1L21 2L20 2L20 1L18 1L18 0L16 0L16 1L15 1L15 0L13 0L13 1L11 1L11 2L12 2L12 5L13 5L13 2L14 2L14 3L15 3L15 2L16 2L16 1L17 1L17 5L16 5L16 7L15 7L15 6L14 6L14 7L13 7L13 6L12 6L12 7L11 7L11 3L10 3L10 2L9 2L9 0ZM23 0L23 1L24 1L24 0ZM25 0L25 2L26 2L26 0ZM27 0L27 1L29 1L29 0ZM18 2L18 3L20 3L20 2ZM23 2L23 3L24 3L24 2ZM18 4L18 5L17 5L17 7L18 7L18 5L19 5L19 4ZM27 5L27 7L28 7L28 5ZM19 6L19 8L18 8L18 10L17 10L17 11L16 11L16 9L17 9L17 8L15 8L15 7L14 7L14 9L15 9L15 10L13 10L13 9L12 9L12 8L13 8L13 7L12 7L12 8L11 8L11 9L10 9L10 14L8 14L8 13L9 13L9 11L8 11L8 13L6 13L6 12L7 12L7 11L6 11L6 12L4 12L4 11L3 11L3 10L2 10L2 9L1 9L1 11L2 11L2 12L1 12L1 13L2 13L2 12L3 12L3 14L2 14L2 15L1 15L1 16L2 16L2 17L3 17L3 16L7 16L7 17L4 17L4 19L5 19L5 20L3 20L3 21L2 21L2 22L3 22L3 21L4 21L4 23L3 23L3 24L2 24L2 25L3 25L3 26L4 26L4 27L5 27L5 25L6 25L6 26L7 26L7 27L6 27L6 28L7 28L7 27L9 27L9 28L8 28L8 29L9 29L9 30L10 30L10 31L11 31L11 30L12 30L12 29L13 29L13 30L16 30L16 32L17 32L17 31L18 31L18 33L16 33L16 36L17 36L17 35L18 35L18 33L19 33L19 32L20 32L20 34L19 34L19 35L20 35L20 34L21 34L21 35L22 35L22 34L23 34L23 33L22 33L22 32L20 32L20 31L23 31L23 29L24 29L24 30L25 30L25 34L24 34L24 35L23 35L23 36L24 36L24 35L25 35L25 34L26 34L26 33L27 33L27 34L28 34L28 29L27 29L27 27L26 27L26 26L27 26L27 25L29 25L29 24L30 24L30 22L32 22L32 21L30 21L30 20L29 20L29 23L27 23L27 22L25 22L25 21L27 21L27 16L26 16L26 15L27 15L27 14L26 14L26 13L28 13L28 12L26 12L26 11L27 11L27 10L26 10L26 11L24 11L24 12L25 12L25 13L24 13L24 15L25 15L25 16L23 16L23 13L20 13L20 12L21 12L21 11L20 11L20 10L22 10L22 11L23 11L23 10L22 10L22 9L21 9L21 7L20 7L20 6ZM4 9L4 10L5 10L5 9ZM24 9L24 10L25 10L25 9ZM33 9L33 10L32 10L32 13L29 13L29 14L28 14L28 19L30 19L30 18L32 18L32 17L34 17L34 16L33 16L33 15L29 15L29 14L32 14L32 13L34 13L34 12L33 12L33 10L34 10L34 11L35 11L35 13L36 13L36 11L35 11L35 10L34 10L34 9ZM12 11L12 12L11 12L11 13L12 13L12 14L10 14L10 15L9 15L9 16L8 16L8 17L9 17L9 18L6 18L6 19L7 19L7 20L6 20L6 21L7 21L7 22L5 22L5 24L3 24L3 25L5 25L5 24L6 24L6 25L7 25L7 26L10 26L10 27L11 27L11 26L10 26L10 25L11 25L11 24L12 24L12 25L13 25L13 26L15 26L15 25L14 25L14 23L15 23L15 24L17 24L17 25L16 25L16 27L17 27L17 28L18 28L18 27L19 27L19 26L17 26L17 25L20 25L20 27L21 27L21 28L22 28L22 29L21 29L21 30L22 30L22 29L23 29L23 27L25 27L25 26L26 26L26 25L25 25L25 22L24 22L24 21L23 21L23 20L22 20L22 19L21 19L21 18L22 18L22 14L21 14L21 15L20 15L20 16L19 16L19 18L17 18L17 17L16 17L16 19L17 19L17 20L15 20L15 19L14 19L14 20L13 20L13 19L12 19L12 20L11 20L11 21L10 21L10 20L8 20L8 19L9 19L9 18L10 18L10 19L11 19L11 18L10 18L10 16L12 16L12 17L13 17L13 18L15 18L15 17L14 17L14 15L15 15L15 16L18 16L18 15L16 15L16 14L13 14L13 13L17 13L17 12L18 12L18 11L17 11L17 12L15 12L15 11L14 11L14 12L13 12L13 11ZM19 11L19 12L20 12L20 11ZM12 12L12 13L13 13L13 12ZM4 13L4 14L3 14L3 15L2 15L2 16L3 16L3 15L4 15L4 14L5 14L5 13ZM6 14L6 15L7 15L7 14ZM12 15L12 16L13 16L13 15ZM29 16L29 17L31 17L31 16ZM35 16L35 17L36 17L36 16ZM20 17L20 18L19 18L19 19L18 19L18 20L17 20L17 21L13 21L13 20L12 20L12 21L11 21L11 22L10 22L10 21L8 21L8 22L7 22L7 23L6 23L6 24L7 24L7 25L8 25L8 24L7 24L7 23L10 23L10 24L11 24L11 22L12 22L12 21L13 21L13 22L16 22L16 23L17 23L17 22L18 22L18 21L20 21L20 22L19 22L19 24L20 24L20 25L21 25L21 26L22 26L22 25L24 25L24 26L25 26L25 25L24 25L24 24L23 24L23 23L22 23L22 25L21 25L21 22L22 22L22 20L21 20L21 21L20 21L20 18L21 18L21 17ZM23 17L23 19L24 19L24 17ZM25 17L25 18L26 18L26 17ZM31 19L31 20L32 20L32 19ZM34 19L34 21L35 21L35 22L36 22L36 21L37 21L37 20L36 20L36 19ZM12 23L12 24L13 24L13 23ZM26 23L26 24L27 24L27 23ZM34 23L34 25L32 25L32 27L33 27L33 26L36 26L36 25L37 25L37 24L36 24L36 23ZM12 27L12 28L11 28L11 29L12 29L12 28L13 28L13 29L16 29L16 28L15 28L15 27L14 27L14 28L13 28L13 27ZM0 28L0 29L3 29L3 28ZM9 28L9 29L10 29L10 28ZM24 28L24 29L25 29L25 28ZM19 29L19 30L20 30L20 29ZM26 29L26 30L27 30L27 29ZM29 29L29 32L32 32L32 29ZM30 30L30 31L31 31L31 30ZM12 31L12 32L10 32L10 33L11 33L11 36L12 36L12 35L13 35L13 36L14 36L14 35L15 35L15 34L13 34L13 33L12 33L12 32L13 32L13 31ZM14 31L14 33L15 33L15 31ZM26 31L26 32L27 32L27 31ZM33 31L33 33L34 33L34 31ZM8 35L8 37L9 37L9 35ZM0 0L0 7L7 7L7 0ZM1 1L1 6L6 6L6 1ZM2 2L2 5L5 5L5 2ZM30 0L30 7L37 7L37 0ZM31 1L31 6L36 6L36 1ZM32 2L32 5L35 5L35 2ZM0 30L0 37L7 37L7 30ZM1 31L1 36L6 36L6 31ZM2 32L2 35L5 35L5 32Z" fill="#000000"/></g></g></svg>
