<?xml version="1.0" encoding="UTF-8"?>
<svg xmlns="http://www.w3.org/2000/svg" version="1.1" width="80" height="80" viewBox="0 0 80 80"><rect x="0" y="0" width="80" height="80" fill="#ffffff"/><g transform="scale(2.424)"><g transform="translate(0,0)"><path fill-rule="evenodd" d="M9 0L9 1L8 1L8 3L9 3L9 4L8 4L8 8L6 8L6 9L7 9L7 10L4 10L4 11L3 11L3 9L4 9L4 8L3 8L3 9L2 9L2 8L0 8L0 9L1 9L1 10L0 10L0 13L1 13L1 12L2 12L2 11L3 11L3 13L2 13L2 16L3 16L3 18L1 18L1 19L0 19L0 21L1 21L1 22L0 22L0 23L1 23L1 24L0 24L0 25L1 25L1 24L2 24L2 25L3 25L3 24L4 24L4 23L3 23L3 21L2 21L2 20L3 20L3 19L4 19L4 20L6 20L6 21L7 21L7 22L5 22L5 21L4 21L4 22L5 22L5 23L7 23L7 22L8 22L8 20L9 20L9 21L10 21L10 23L9 23L9 24L11 24L11 22L13 22L13 23L12 23L12 25L10 25L10 26L11 26L11 27L10 27L10 28L11 28L11 29L12 29L12 31L11 31L11 30L10 30L10 29L8 29L8 30L10 30L10 31L11 31L11 32L10 32L10 33L13 33L13 31L14 31L14 30L17 30L17 29L18 29L18 26L20 26L20 27L19 27L19 28L20 28L20 29L21 29L21 30L20 30L20 33L22 33L22 31L21 31L21 30L22 30L22 29L23 29L23 28L24 28L24 30L23 30L23 32L24 32L24 33L26 33L26 32L27 32L27 33L30 33L30 32L29 32L29 31L30 31L30 30L31 30L31 31L33 31L33 29L29 29L29 26L30 26L30 25L29 25L29 24L30 24L30 22L31 22L31 21L32 21L32 23L31 23L31 24L33 24L33 21L32 21L32 20L31 20L31 21L30 21L30 18L31 18L31 19L33 19L33 18L31 18L31 17L29 17L29 16L30 16L30 14L31 14L31 16L32 16L32 17L33 17L33 16L32 16L32 14L33 14L33 9L32 9L32 8L30 8L30 9L29 9L29 8L26 8L26 9L25 9L25 8L24 8L24 7L25 7L25 5L24 5L24 3L23 3L23 5L22 5L22 4L21 4L21 3L20 3L20 2L19 2L19 1L20 1L20 0L19 0L19 1L17 1L17 0L15 0L15 2L16 2L16 3L12 3L12 2L13 2L13 0L11 0L11 3L12 3L12 4L11 4L11 5L10 5L10 3L9 3L9 2L10 2L10 0ZM21 0L21 2L24 2L24 0L23 0L23 1L22 1L22 0ZM16 1L16 2L17 2L17 1ZM16 3L16 4L14 4L14 5L13 5L13 7L12 7L12 5L11 5L11 7L12 7L12 9L13 9L13 11L12 11L12 10L11 10L11 8L10 8L10 5L9 5L9 8L8 8L8 9L10 9L10 10L7 10L7 11L5 11L5 12L4 12L4 13L3 13L3 16L4 16L4 15L5 15L5 17L4 17L4 18L5 18L5 19L6 19L6 20L8 20L8 18L7 18L7 17L8 17L8 16L7 16L7 15L5 15L5 13L6 13L6 14L8 14L8 15L9 15L9 16L10 16L10 15L11 15L11 17L9 17L9 18L11 18L11 21L12 21L12 16L13 16L13 17L14 17L14 18L13 18L13 22L14 22L14 24L15 24L15 26L14 26L14 25L13 25L13 26L12 26L12 27L11 27L11 28L12 28L12 27L14 27L14 29L16 29L16 28L17 28L17 26L16 26L16 25L17 25L17 24L18 24L18 25L19 25L19 24L21 24L21 23L22 23L22 25L21 25L21 27L20 27L20 28L21 28L21 27L22 27L22 28L23 28L23 27L24 27L24 26L22 26L22 25L23 25L23 23L26 23L26 24L29 24L29 22L30 22L30 21L29 21L29 20L27 20L27 19L26 19L26 20L24 20L24 18L23 18L23 17L24 17L24 16L23 16L23 17L21 17L21 19L22 19L22 21L23 21L23 22L20 22L20 21L21 21L21 20L20 20L20 21L19 21L19 20L17 20L17 19L16 19L16 18L15 18L15 17L17 17L17 18L19 18L19 19L20 19L20 16L18 16L18 17L17 17L17 14L19 14L19 15L20 15L20 14L19 14L19 13L20 13L20 11L21 11L21 10L20 10L20 9L21 9L21 8L20 8L20 6L21 6L21 7L22 7L22 11L24 11L24 12L22 12L22 13L21 13L21 14L22 14L22 15L23 15L23 14L24 14L24 15L25 15L25 17L26 17L26 18L28 18L28 19L29 19L29 17L26 17L26 15L28 15L28 16L29 16L29 14L28 14L28 13L29 13L29 12L30 12L30 13L32 13L32 12L31 12L31 11L32 11L32 9L30 9L30 11L29 11L29 9L27 9L27 10L26 10L26 11L24 11L24 8L23 8L23 7L24 7L24 5L23 5L23 7L22 7L22 6L21 6L21 4L19 4L19 5L16 5L16 4L18 4L18 3ZM14 5L14 7L15 7L15 6L16 6L16 8L13 8L13 9L16 9L16 10L17 10L17 11L16 11L16 12L15 12L15 10L14 10L14 11L13 11L13 12L15 12L15 14L16 14L16 13L18 13L18 12L17 12L17 11L18 11L18 9L16 9L16 8L19 8L19 6L20 6L20 5L19 5L19 6L18 6L18 7L17 7L17 6L16 6L16 5ZM1 10L1 11L2 11L2 10ZM19 10L19 11L20 11L20 10ZM27 10L27 11L26 11L26 12L25 12L25 13L24 13L24 14L27 14L27 13L28 13L28 12L27 12L27 11L28 11L28 10ZM9 11L9 12L6 12L6 13L9 13L9 12L10 12L10 13L11 13L11 15L12 15L12 14L13 14L13 13L11 13L11 12L12 12L12 11ZM22 13L22 14L23 14L23 13ZM0 14L0 15L1 15L1 14ZM9 14L9 15L10 15L10 14ZM13 15L13 16L14 16L14 17L15 17L15 15ZM0 16L0 17L1 17L1 16ZM6 16L6 17L5 17L5 18L6 18L6 19L7 19L7 18L6 18L6 17L7 17L7 16ZM14 18L14 19L15 19L15 18ZM14 20L14 21L15 21L15 22L18 22L18 24L19 24L19 23L20 23L20 22L18 22L18 21L17 21L17 20ZM23 20L23 21L24 21L24 22L27 22L27 23L28 23L28 22L27 22L27 21L24 21L24 20ZM15 23L15 24L16 24L16 23ZM5 24L5 25L8 25L8 27L9 27L9 25L8 25L8 24ZM25 25L25 28L28 28L28 25ZM32 25L32 26L31 26L31 28L32 28L32 26L33 26L33 25ZM26 26L26 27L27 27L27 26ZM15 27L15 28L16 28L16 27ZM25 29L25 30L24 30L24 31L25 31L25 32L26 32L26 31L27 31L27 30L26 30L26 29ZM8 31L8 33L9 33L9 31ZM17 31L17 32L14 32L14 33L17 33L17 32L18 32L18 33L19 33L19 31ZM31 32L31 33L32 33L32 32ZM0 0L0 7L7 7L7 0ZM1 1L1 6L6 6L6 1ZM2 2L2 5L5 5L5 2ZM26 0L26 7L33 7L33 0ZM27 1L27 6L32 6L32 1ZM28 2L28 5L31 5L31 2ZM0 26L0 33L7 33L7 26ZM1 27L1 32L6 32L6 27ZM2 28L2 31L5 31L5 28Z" fill="#000000"/></g></g></svg>
