<?xml version="1.0" encoding="UTF-8"?>
<svg xmlns="http://www.w3.org/2000/svg" version="1.1" width="80" height="80" viewBox="0 0 80 80"><rect x="0" y="0" width="80" height="80" fill="#ffffff"/><g transform="scale(2.424)"><g transform="translate(0,0)"><path fill-rule="evenodd" d="M10 0L10 1L8 1L8 2L9 2L9 3L8 3L8 4L10 4L10 3L11 3L11 5L10 5L10 7L11 7L11 8L6 8L6 9L5 9L5 8L0 8L0 10L2 10L2 11L0 11L0 16L1 16L1 17L2 17L2 18L3 18L3 22L4 22L4 23L5 23L5 25L7 25L7 24L6 24L6 23L7 23L7 22L8 22L8 24L9 24L9 22L8 22L8 20L9 20L9 21L10 21L10 22L11 22L11 20L13 20L13 19L14 19L14 18L15 18L15 19L16 19L16 20L17 20L17 21L15 21L15 20L14 20L14 22L12 22L12 24L13 24L13 25L11 25L11 24L10 24L10 28L11 28L11 29L15 29L15 31L14 31L14 30L12 30L12 32L13 32L13 33L14 33L14 32L15 32L15 31L16 31L16 32L17 32L17 33L19 33L19 32L17 32L17 29L18 29L18 30L21 30L21 31L20 31L20 33L21 33L21 32L22 32L22 33L26 33L26 32L28 32L28 31L27 31L27 30L29 30L29 32L31 32L31 33L32 33L32 32L31 32L31 31L32 31L32 30L31 30L31 31L30 31L30 29L29 29L29 28L31 28L31 29L33 29L33 28L31 28L31 27L32 27L32 26L33 26L33 24L32 24L32 26L31 26L31 25L30 25L30 26L29 26L29 24L31 24L31 23L32 23L32 22L33 22L33 21L32 21L32 20L31 20L31 19L32 19L32 18L33 18L33 17L32 17L32 16L31 16L31 15L32 15L32 14L33 14L33 13L31 13L31 15L30 15L30 16L31 16L31 19L30 19L30 17L29 17L29 16L28 16L28 15L29 15L29 14L27 14L27 13L26 13L26 11L27 11L27 9L28 9L28 8L27 8L27 9L26 9L26 8L25 8L25 6L24 6L24 8L23 8L23 5L24 5L24 4L25 4L25 3L24 3L24 2L25 2L25 1L24 1L24 0L22 0L22 1L21 1L21 0L19 0L19 1L21 1L21 3L20 3L20 2L18 2L18 3L17 3L17 1L15 1L15 0L14 0L14 5L15 5L15 6L14 6L14 11L16 11L16 12L17 12L17 13L15 13L15 12L11 12L11 11L10 11L10 9L11 9L11 10L12 10L12 9L13 9L13 8L12 8L12 7L13 7L13 6L12 6L12 7L11 7L11 5L13 5L13 4L12 4L12 3L11 3L11 1L13 1L13 0ZM22 1L22 2L24 2L24 1ZM16 3L16 4L17 4L17 3ZM18 3L18 4L20 4L20 3ZM21 3L21 5L23 5L23 4L24 4L24 3ZM8 5L8 7L9 7L9 5ZM17 5L17 8L16 8L16 9L17 9L17 10L16 10L16 11L17 11L17 12L18 12L18 13L21 13L21 15L22 15L22 14L23 14L23 17L22 17L22 16L20 16L20 14L19 14L19 15L18 15L18 14L17 14L17 16L16 16L16 17L17 17L17 18L16 18L16 19L17 19L17 20L18 20L18 21L17 21L17 22L16 22L16 24L18 24L18 25L14 25L14 27L13 27L13 26L11 26L11 28L15 28L15 26L17 26L17 27L16 27L16 28L18 28L18 29L19 29L19 28L20 28L20 29L22 29L22 30L24 30L24 31L23 31L23 32L26 32L26 30L27 30L27 29L26 29L26 30L25 30L25 29L24 29L24 27L22 27L22 28L21 28L21 27L20 27L20 26L19 26L19 23L20 23L20 22L19 22L19 23L18 23L18 21L19 21L19 19L21 19L21 18L23 18L23 19L24 19L24 20L23 20L23 21L24 21L24 22L22 22L22 24L20 24L20 25L21 25L21 26L24 26L24 25L22 25L22 24L23 24L23 23L24 23L24 24L26 24L26 23L25 23L25 22L26 22L26 21L27 21L27 24L29 24L29 21L30 21L30 23L31 23L31 20L30 20L30 19L28 19L28 18L29 18L29 17L28 17L28 16L26 16L26 17L24 17L24 16L25 16L25 15L27 15L27 14L25 14L25 12L23 12L23 13L22 13L22 12L21 12L21 11L24 11L24 10L25 10L25 11L26 11L26 9L24 9L24 10L23 10L23 9L22 9L22 8L20 8L20 5L19 5L19 7L18 7L18 5ZM15 6L15 7L16 7L16 6ZM21 6L21 7L22 7L22 6ZM11 8L11 9L12 9L12 8ZM17 8L17 9L18 9L18 10L17 10L17 11L18 11L18 12L20 12L20 11L21 11L21 10L22 10L22 9L18 9L18 8ZM29 8L29 9L30 9L30 10L29 10L29 11L30 11L30 12L28 12L28 13L30 13L30 12L31 12L31 11L32 11L32 10L33 10L33 9L32 9L32 8L31 8L31 9L30 9L30 8ZM2 9L2 10L3 10L3 11L4 11L4 12L5 12L5 13L6 13L6 14L7 14L7 15L6 15L6 16L7 16L7 15L8 15L8 16L9 16L9 17L6 17L6 18L8 18L8 19L9 19L9 20L11 20L11 19L12 19L12 18L13 18L13 17L12 17L12 16L14 16L14 15L15 15L15 13L14 13L14 15L12 15L12 14L13 14L13 13L11 13L11 12L10 12L10 13L9 13L9 10L8 10L8 9L6 9L6 10L5 10L5 9L4 9L4 10L3 10L3 9ZM4 10L4 11L5 11L5 12L6 12L6 13L7 13L7 14L8 14L8 15L9 15L9 16L12 16L12 15L9 15L9 14L8 14L8 11L7 11L7 10L6 10L6 11L5 11L5 10ZM18 10L18 11L20 11L20 10ZM30 10L30 11L31 11L31 10ZM6 11L6 12L7 12L7 11ZM1 13L1 16L2 16L2 15L3 15L3 17L5 17L5 16L4 16L4 15L5 15L5 14L2 14L2 13ZM10 13L10 14L11 14L11 13ZM23 13L23 14L24 14L24 13ZM17 16L17 17L18 17L18 18L17 18L17 19L19 19L19 18L20 18L20 16L19 16L19 17L18 17L18 16ZM23 17L23 18L24 18L24 19L25 19L25 20L26 20L26 18L27 18L27 17L26 17L26 18L24 18L24 17ZM4 18L4 19L5 19L5 20L4 20L4 22L5 22L5 23L6 23L6 22L7 22L7 21L6 21L6 20L7 20L7 19L5 19L5 18ZM9 18L9 19L10 19L10 18ZM1 19L1 20L0 20L0 25L1 25L1 22L2 22L2 19ZM27 19L27 21L29 21L29 20L28 20L28 19ZM20 20L20 21L22 21L22 20ZM14 22L14 23L13 23L13 24L15 24L15 22ZM2 23L2 25L4 25L4 24L3 24L3 23ZM8 25L8 27L9 27L9 25ZM25 25L25 28L28 28L28 25ZM26 26L26 27L27 27L27 26ZM30 26L30 27L31 27L31 26ZM18 27L18 28L19 28L19 27ZM8 28L8 33L10 33L10 32L9 32L9 31L11 31L11 30L9 30L9 28ZM22 28L22 29L23 29L23 28ZM13 31L13 32L14 32L14 31ZM0 0L0 7L7 7L7 0ZM1 1L1 6L6 6L6 1ZM2 2L2 5L5 5L5 2ZM26 0L26 7L33 7L33 0ZM27 1L27 6L32 6L32 1ZM28 2L28 5L31 5L31 2ZM0 26L0 33L7 33L7 26ZM1 27L1 32L6 32L6 27ZM2 28L2 31L5 31L5 28Z" fill="#000000"/></g></g></svg>
