<?xml version="1.0" encoding="UTF-8"?>
<svg xmlns="http://www.w3.org/2000/svg" version="1.1" width="80" height="80" viewBox="0 0 80 80"><rect x="0" y="0" width="80" height="80" fill="#ffffff"/><g transform="scale(2.424)"><g transform="translate(0,0)"><path fill-rule="evenodd" d="M12 0L12 1L14 1L14 3L16 3L16 5L18 5L18 7L19 7L19 5L20 5L20 8L21 8L21 4L23 4L23 5L22 5L22 10L24 10L24 11L22 11L22 12L23 12L23 14L22 14L22 13L21 13L21 12L20 12L20 11L21 11L21 10L20 10L20 9L18 9L18 8L17 8L17 6L16 6L16 8L15 8L15 6L14 6L14 8L13 8L13 6L12 6L12 8L13 8L13 11L12 11L12 12L11 12L11 11L10 11L10 10L11 10L11 8L10 8L10 7L11 7L11 5L13 5L13 4L12 4L12 3L11 3L11 1L10 1L10 2L9 2L9 3L8 3L8 5L9 5L9 6L8 6L8 7L9 7L9 9L8 9L8 8L5 8L5 9L2 9L2 8L0 8L0 9L2 9L2 10L1 10L1 11L2 11L2 10L3 10L3 11L4 11L4 12L5 12L5 11L4 11L4 10L6 10L6 11L7 11L7 12L6 12L6 13L7 13L7 14L6 14L6 15L5 15L5 16L6 16L6 17L7 17L7 18L6 18L6 19L7 19L7 18L9 18L9 19L8 19L8 20L9 20L9 21L8 21L8 22L6 22L6 23L4 23L4 24L3 24L3 21L2 21L2 24L1 24L1 21L0 21L0 25L2 25L2 24L3 24L3 25L4 25L4 24L6 24L6 25L8 25L8 28L9 28L9 27L10 27L10 26L9 26L9 24L10 24L10 25L11 25L11 26L12 26L12 25L11 25L11 24L13 24L13 22L12 22L12 21L13 21L13 19L12 19L12 16L13 16L13 18L14 18L14 19L15 19L15 20L14 20L14 21L15 21L15 20L17 20L17 21L18 21L18 23L19 23L19 24L20 24L20 25L19 25L19 26L20 26L20 28L19 28L19 27L18 27L18 28L17 28L17 26L16 26L16 24L15 24L15 23L16 23L16 22L15 22L15 23L14 23L14 24L15 24L15 27L16 27L16 28L14 28L14 29L16 29L16 30L15 30L15 31L14 31L14 30L11 30L11 28L10 28L10 29L9 29L9 31L8 31L8 33L9 33L9 31L10 31L10 33L12 33L12 32L13 32L13 33L15 33L15 32L17 32L17 33L19 33L19 32L17 32L17 31L18 31L18 30L19 30L19 31L20 31L20 33L21 33L21 31L22 31L22 33L26 33L26 32L27 32L27 31L26 31L26 29L28 29L28 31L29 31L29 32L31 32L31 33L32 33L32 32L31 32L31 31L29 31L29 30L30 30L30 29L29 29L29 28L31 28L31 29L33 29L33 27L32 27L32 26L33 26L33 25L32 25L32 24L31 24L31 23L32 23L32 20L31 20L31 19L30 19L30 20L31 20L31 23L30 23L30 21L29 21L29 20L27 20L27 22L25 22L25 23L26 23L26 24L24 24L24 23L23 23L23 24L24 24L24 26L22 26L22 25L21 25L21 23L22 23L22 22L20 22L20 20L21 20L21 19L22 19L22 21L23 21L23 22L24 22L24 21L23 21L23 20L24 20L24 19L25 19L25 20L26 20L26 19L27 19L27 18L28 18L28 17L29 17L29 18L30 18L30 17L29 17L29 14L28 14L28 13L27 13L27 12L28 12L28 11L27 11L27 10L29 10L29 11L30 11L30 12L31 12L31 15L30 15L30 16L31 16L31 18L32 18L32 19L33 19L33 17L32 17L32 16L33 16L33 15L32 15L32 14L33 14L33 12L31 12L31 11L32 11L32 9L30 9L30 8L28 8L28 9L27 9L27 10L26 10L26 11L25 11L25 10L24 10L24 9L25 9L25 6L24 6L24 8L23 8L23 5L24 5L24 4L25 4L25 3L24 3L24 2L25 2L25 1L24 1L24 2L21 2L21 4L18 4L18 3L20 3L20 2L18 2L18 3L17 3L17 2L15 2L15 1L16 1L16 0ZM17 0L17 1L18 1L18 0ZM9 3L9 5L11 5L11 4L10 4L10 3ZM23 3L23 4L24 4L24 3ZM14 4L14 5L15 5L15 4ZM9 6L9 7L10 7L10 6ZM6 9L6 10L8 10L8 11L9 11L9 12L10 12L10 11L9 11L9 10L10 10L10 9L9 9L9 10L8 10L8 9ZM15 9L15 10L14 10L14 11L13 11L13 12L12 12L12 13L11 13L11 15L12 15L12 14L13 14L13 16L16 16L16 17L15 17L15 18L16 18L16 17L17 17L17 20L18 20L18 21L19 21L19 19L18 19L18 17L19 17L19 16L20 16L20 18L21 18L21 17L22 17L22 19L23 19L23 17L24 17L24 18L25 18L25 19L26 19L26 17L28 17L28 15L27 15L27 14L25 14L25 13L26 13L26 12L27 12L27 11L26 11L26 12L24 12L24 14L23 14L23 15L22 15L22 14L21 14L21 15L20 15L20 14L19 14L19 15L18 15L18 14L17 14L17 15L15 15L15 14L16 14L16 12L14 12L14 11L15 11L15 10L18 10L18 11L17 11L17 13L19 13L19 12L18 12L18 11L20 11L20 10L18 10L18 9ZM29 9L29 10L30 10L30 11L31 11L31 10L30 10L30 9ZM0 12L0 13L1 13L1 12ZM7 12L7 13L8 13L8 12ZM13 12L13 14L14 14L14 12ZM2 13L2 15L1 15L1 16L0 16L0 18L3 18L3 17L1 17L1 16L3 16L3 14L5 14L5 13ZM9 13L9 14L7 14L7 15L6 15L6 16L7 16L7 15L8 15L8 17L10 17L10 19L9 19L9 20L11 20L11 16L9 16L9 15L10 15L10 13ZM25 15L25 16L24 16L24 17L26 17L26 15ZM31 15L31 16L32 16L32 15ZM17 16L17 17L18 17L18 16ZM22 16L22 17L23 17L23 16ZM1 19L1 20L2 20L2 19ZM3 19L3 20L5 20L5 21L4 21L4 22L5 22L5 21L7 21L7 20L5 20L5 19ZM9 21L9 22L8 22L8 23L6 23L6 24L8 24L8 23L10 23L10 22L11 22L11 23L12 23L12 22L11 22L11 21ZM19 22L19 23L20 23L20 22ZM27 22L27 23L28 23L28 24L29 24L29 22ZM30 24L30 25L29 25L29 26L30 26L30 27L31 27L31 28L32 28L32 27L31 27L31 26L32 26L32 25L31 25L31 24ZM13 25L13 27L12 27L12 28L13 28L13 27L14 27L14 25ZM25 25L25 28L28 28L28 25ZM30 25L30 26L31 26L31 25ZM26 26L26 27L27 27L27 26ZM21 27L21 28L20 28L20 29L21 29L21 30L22 30L22 31L23 31L23 32L26 32L26 31L25 31L25 29L24 29L24 27L23 27L23 29L22 29L22 27ZM18 28L18 29L17 29L17 30L16 30L16 31L17 31L17 30L18 30L18 29L19 29L19 28ZM10 30L10 31L11 31L11 32L12 32L12 31L11 31L11 30ZM32 30L32 31L33 31L33 30ZM13 31L13 32L14 32L14 31ZM0 0L0 7L7 7L7 0ZM1 1L1 6L6 6L6 1ZM2 2L2 5L5 5L5 2ZM26 0L26 7L33 7L33 0ZM27 1L27 6L32 6L32 1ZM28 2L28 5L31 5L31 2ZM0 26L0 33L7 33L7 26ZM1 27L1 32L6 32L6 27ZM2 28L2 31L5 31L5 28Z" fill="#000000"/></g></g></svg>
